<?xml version="1.0" standalone="no"?>
<!DOCTYPE svg PUBLIC "-//W3C//DTD SVG 20010904//EN"
 "http://www.w3.org/TR/2001/REC-SVG-20010904/DTD/svg10.dtd">
<svg version="1.0" xmlns="http://www.w3.org/2000/svg"
 width="1024.000000pt" height="1024.000000pt" viewBox="0 0 1024.000000 1024.000000"
 preserveAspectRatio="xMidYMid meet">

<g transform="translate(0.000000,1024.000000) scale(0.100000,-0.100000)"
fill="#000000" stroke="none">
<path d="M0 7669 l0 -2571 40 32 c22 17 42 35 45 40 5 8 355 342 470 449 33
31 122 114 198 185 l137 129 -37 32 c-21 18 -34 37 -30 41 5 5 23 -8 41 -29
l32 -37 59 51 c58 50 -101 -109 -221 -221 -33 -30 -122 -113 -199 -185 -76
-71 -228 -215 -337 -319 l-198 -190 0 -2459 0 -2459 73 63 c39 34 121 113 181
176 60 62 115 113 122 113 7 0 16 5 20 12 5 7 2 8 -7 3 -14 -8 144 149 321
318 52 50 172 166 265 257 94 91 273 263 398 383 l227 219 0 163 c0 121 -3
165 -12 168 -10 4 -10 7 -1 14 10 7 13 129 12 539 0 291 0 536 -1 544 0 34 15
245 18 249 2 2 4 -50 4 -117 0 -67 3 -122 7 -122 3 0 15 7 25 17 10 9 18 11
18 5 0 -6 -11 -19 -25 -30 l-25 -20 0 -543 c0 -299 0 -613 0 -697 l0 -153 113
114 c61 63 229 227 372 365 l259 251 -24 28 -25 28 27 -24 28 -24 25 23 c32
30 31 39 -2 67 -16 12 -23 22 -17 23 6 0 21 -11 34 -25 l24 -25 185 182 c319
316 343 340 492 483 79 77 181 174 227 215 45 41 82 79 82 83 0 5 -4 6 -8 3
-5 -3 -9 11 -9 32 l-1 37 11 -33 c5 -18 14 -31 18 -30 8 3 279 261 412 392
l79 79 -121 121 c-66 66 -123 124 -127 128 -3 4 3 4 14 1 14 -3 24 2 32 17 11
20 -6 39 -228 263 -132 133 -253 256 -268 273 l-29 30 -62 -55 c-35 -30 -63
-61 -63 -70 0 -9 20 4 51 34 29 28 48 44 44 37 -4 -8 -27 -32 -51 -54 l-44
-41 0 -378 c0 -208 -3 -380 -7 -382 -5 -3 -9 176 -11 397 l-3 401 68 62 68 62
-55 58 c-79 83 -266 278 -483 502 l-188 194 -32 -32 c-18 -17 -37 -31 -42 -31
-6 0 8 16 30 35 l40 34 -105 105 -104 105 24 27 c14 15 52 52 85 83 33 31 150
144 260 252 110 107 231 224 270 260 38 35 93 87 122 116 28 28 63 59 77 68
14 10 26 24 26 31 0 8 4 14 8 14 5 0 14 12 21 27 12 27 13 27 27 8 21 -28 18
-39 -18 -60 -29 -17 -111 -93 -338 -315 -113 -110 -358 -341 -435 -410 -33
-30 -68 -65 -79 -77 l-18 -24 95 -97 96 -96 58 54 c32 30 231 223 443 430 212
206 425 414 475 462 l90 87 -100 103 -100 103 100 -98 c92 -89 102 -96 117
-81 14 15 10 22 -61 84 -42 37 -112 106 -156 152 -75 78 -73 76 25 -18 180
-172 243 -223 227 -180 -4 10 -1 13 9 9 7 -3 14 -9 14 -14 0 -4 8 -13 18 -18
16 -9 17 7 14 275 -2 186 1 284 7 284 7 0 10 -100 11 -286 l0 -287 25 -43 c14
-24 30 -46 36 -50 6 -3 47 28 92 72 119 115 92 85 -67 -75 -119 -120 -137
-142 -126 -156 13 -16 4 -20 -24 -9 -26 10 -18 30 24 64 22 17 40 35 40 40 0
5 -16 25 -35 46 l-36 38 -44 -44 c-54 -53 -59 -46 -8 10 33 38 35 42 20 57
-15 15 -34 -1 -244 -208 -299 -295 -518 -509 -659 -643 l-115 -109 43 -44 c23
-23 47 -43 52 -43 5 0 24 12 40 27 l31 28 -32 -35 -32 -35 316 -318 c312 -314
316 -318 337 -300 11 9 98 92 191 184 94 91 212 206 263 254 l92 88 -17 26
-16 26 21 -19 c22 -19 22 -19 114 70 51 49 116 107 143 129 61 48 76 65 68 78
-4 6 -1 7 6 3 15 -10 51 21 51 43 0 9 -117 133 -260 275 -143 143 -266 266
-272 275 -6 9 40 -35 103 -96 63 -62 119 -113 124 -113 6 1 39 27 75 60 l64
59 -19 23 -20 23 22 -19 c12 -10 27 -16 32 -15 6 2 75 67 153 144 79 77 186
181 238 230 52 49 147 139 210 200 63 61 219 208 345 327 127 119 258 245 293
280 l62 64 -2 237 -3 238 -100 -100 c-55 -54 -139 -134 -187 -178 -47 -43
-187 -174 -310 -292 -241 -232 -352 -336 -439 -415 -77 -70 194 195 366 357
219 207 378 360 533 510 l142 139 0 902 0 901 -151 150 c-83 83 -155 159 -161
170 -13 24 236 -212 497 -471 105 -104 194 -187 200 -185 5 1 7 0 3 -4 -4 -4
15 -25 43 -46 27 -22 49 -41 49 -43 0 -1 -8 -3 -17 -3 -9 0 -111 93 -226 206
-115 113 -213 207 -218 209 -5 2 -9 -356 -9 -887 1 -490 3 -891 6 -891 4 0 15
11 26 25 11 14 25 25 31 25 6 0 -5 -17 -25 -37 l-36 -38 -2 -104 c0 -57 2
-161 6 -232 l7 -129 156 152 c86 83 160 160 165 170 13 26 39 22 58 -9 9 -16
78 -88 155 -162 76 -74 218 -213 315 -309 98 -95 182 -171 188 -167 5 3 10 13
10 21 0 9 -90 106 -200 217 -140 141 -197 204 -189 212 7 7 14 4 21 -10 9 -17
312 -332 371 -387 18 -16 47 -15 47 3 0 4 20 31 45 59 25 28 45 45 45 39 0
-21 51 34 68 71 13 29 16 103 19 445 2 226 7 430 11 455 l8 45 7 -35 c3 -19 7
-187 8 -373 1 -186 4 -373 7 -416 l4 -78 42 45 41 45 2 276 c2 152 3 336 3
410 0 74 2 132 5 129 3 -2 5 -184 5 -403 l1 -398 32 30 c18 17 56 53 86 82 30
28 60 51 65 51 6 -1 -30 -40 -81 -88 -50 -48 -94 -97 -98 -110 -4 -13 -3 -56
0 -98 l7 -74 37 33 c20 18 57 48 83 66 27 19 46 36 43 39 -2 3 -24 -11 -47
-29 -75 -61 -105 -73 -43 -18 33 29 121 113 195 185 74 73 163 156 197 184 80
68 95 98 92 200 -1 44 -5 83 -10 86 -4 2 -6 10 -3 17 2 7 -11 28 -30 46 -28
27 -38 32 -49 22 -12 -9 -13 -7 -10 11 3 17 -9 35 -46 73 -28 27 -51 54 -51
59 0 5 25 -17 55 -49 46 -50 56 -56 70 -45 10 8 15 9 15 1 0 -6 -5 -11 -12
-11 -7 0 8 -20 32 -45 25 -25 50 -43 57 -41 6 3 10 0 7 -7 -2 -7 19 -36 49
-65 l52 -52 153 152 c83 83 152 154 152 158 0 15 -104 104 -108 92 -2 -7 -8
-12 -14 -12 -7 0 -7 4 1 13 8 11 -13 37 -97 118 -59 57 -127 122 -152 143 -25
21 -74 66 -110 100 -36 34 -92 86 -125 115 -79 71 -251 239 -397 389 -116 118
-154 150 -82 68 54 -61 358 -379 520 -543 101 -103 145 -142 157 -137 14 5 14
2 4 -26 l-12 -31 -18 23 c-18 23 -118 125 -922 938 -237 239 -437 444 -445
455 -7 11 78 -71 191 -182 293 -289 357 -349 424 -400 61 -47 -5 23 -441 462
-165 166 -289 283 -325 306 -8 5 -191 9 -413 9 -349 0 -397 -2 -392 -15 8 -22
-15 -67 -31 -60 -7 3 -19 8 -27 11 -8 3 -89 -67 -213 -183 -110 -103 -264
-249 -342 -323 -79 -74 -181 -169 -227 -210 -46 -41 -124 -113 -174 -159 -49
-46 -90 -81 -90 -78 0 7 107 108 250 237 63 57 156 143 205 190 251 240 352
335 461 436 73 69 120 120 121 133 l2 21 -422 0 -421 0 -61 -57 -60 -58 55 58
54 57 -222 0 -222 0 0 -577 c0 -317 -2 -574 -4 -572 -3 2 -6 158 -7 347 -1
189 -6 345 -10 348 -4 2 -11 -1 -16 -8 -5 -7 -26 -29 -48 -48 -23 -20 -16 -9
18 26 l59 61 -3 212 -3 211 -443 0 -443 0 0 -733 c0 -569 3 -736 12 -747 7 -8
-15 12 -50 45 -34 33 -62 64 -62 69 0 6 20 -9 44 -34 l45 -43 -2 721 -2 722
-1382 0 -1383 0 0 -2571z m5372 2344 c2 -94 0 -169 -4 -167 -5 3 -7 92 -7 197
2 225 7 212 11 -30z m47 184 l25 -32 -32 29 c-33 31 -37 36 -24 35 4 0 18 -14
31 -32z m46 -57 c10 -11 16 -20 13 -20 -3 0 -13 9 -23 20 -10 11 -16 20 -13
20 3 0 13 -9 23 -20z m-1480 -47 c-17 -14 -55 -49 -85 -77 -31 -28 -21 -16 22
27 42 42 81 77 85 77 4 0 -6 -12 -22 -27z m1625 -98 c52 -52 92 -95 90 -95 -3
0 -48 43 -100 95 -52 52 -92 95 -90 95 3 0 48 -43 100 -95z m-1840 -100 c-24
-25 -48 -45 -53 -45 -9 0 83 89 93 90 2 0 -16 -20 -40 -45z m2030 -100 c24
-29 24 -29 2 -10 -13 11 -28 29 -34 40 -11 21 -8 18 32 -30z m59 -59 c-3 -3
-11 5 -18 17 -13 21 -12 21 5 5 10 -10 16 -20 13 -22z m289 -291 c-5 -5 -206
199 -227 230 -8 11 41 -35 109 -103 67 -68 120 -125 118 -127z m-2643 197 c-6
-4 -46 -41 -91 -82 l-80 -75 82 83 c46 45 86 82 91 82 4 0 3 -4 -2 -8z m-365
-347 c-126 -125 -155 -160 -155 -182 0 -18 -5 -28 -15 -28 -8 0 -21 -4 -27 -8
-7 -5 -17 -6 -22 -3 -4 3 -36 -21 -69 -53 -34 -32 -57 -51 -53 -42 13 23 158
170 206 208 22 18 94 84 160 147 66 63 122 115 125 116 3 0 -65 -70 -150 -155z
m-110 111 c0 -2 -8 -10 -17 -17 -16 -13 -17 -12 -4 4 13 16 21 21 21 13z
m1630 1 c0 -2 -12 -14 -27 -28 l-28 -24 24 28 c23 25 31 32 31 24z m1030 -83
c0 -17 -5 -24 -20 -24 -28 0 -38 30 -15 46 23 17 35 9 35 -22z m175 16 c10
-11 16 -20 13 -20 -3 0 -13 9 -23 20 -10 11 -16 20 -13 20 3 0 13 -9 23 -20z
m-1265 6 c0 -2 -8 -10 -17 -17 -16 -13 -17 -12 -4 4 13 16 21 21 21 13z m-90
-80 c0 -2 -53 -52 -117 -111 l-118 -107 115 111 c113 109 120 115 120 107z
m540 0 c0 -2 -8 -10 -17 -17 -16 -13 -17 -12 -4 4 13 16 21 21 21 13z m-2220
-50 c0 -2 -8 -10 -17 -17 -16 -13 -17 -12 -4 4 13 16 21 21 21 13z m1035 -69
c-105 -95 -121 -101 -25 -10 47 45 87 79 89 77 3 -3 -26 -33 -64 -67z m1065
10 c0 -1 -30 -32 -67 -67 l-68 -65 65 68 c60 62 70 72 70 64z m-1180 -110 c0
-2 -12 -14 -27 -28 l-28 -24 24 28 c23 25 31 32 31 24z m1030 -30 c0 -1 -28
-29 -62 -62 l-63 -60 60 63 c55 58 65 67 65 59z m-626 -85 c-160 -151 -328
-305 -289 -264 59 60 359 341 365 341 3 0 -32 -35 -76 -77z m1136 33 c-24 -25
-46 -45 -49 -45 -3 0 15 20 39 45 24 25 46 45 49 45 3 0 -15 -20 -39 -45z
m-4346 -195 c120 -121 222 -220 227 -220 5 0 9 -3 9 -8 0 -4 37 -46 83 -93 45
-47 120 -126 167 -175 46 -49 209 -217 362 -373 185 -189 275 -288 270 -296
-4 -8 -54 -57 -112 -111 l-105 -98 103 105 102 105 -25 34 c-13 18 -315 325
-670 681 -355 355 -645 652 -645 658 0 6 4 11 8 11 5 0 107 -99 226 -220z
m2736 70 l-5 -145 -5 134 -5 135 -105 -100 c-58 -55 -126 -120 -153 -144 -40
-36 -45 -45 -35 -59 10 -13 10 -14 -2 -3 -12 10 -24 2 -72 -45 -32 -31 -60
-55 -63 -52 -3 3 41 48 97 100 55 52 157 147 225 212 69 65 126 117 126 115 1
-2 0 -68 -3 -148z m2960 75 c0 -7 -179 -179 -370 -356 -225 -208 -619 -581
-680 -643 -30 -31 -57 -56 -61 -56 -4 0 -10 7 -13 16 -4 9 -2 13 5 8 6 -4 70
51 148 128 120 119 566 541 725 686 l58 53 -23 27 -24 27 27 -24 28 -24 82 81
c75 74 98 92 98 77z m-2051 -81 c-13 -14 -82 -80 -154 -146 l-130 -120 150
145 c139 135 193 184 134 121z m561 3 c0 -2 -15 -16 -32 -33 l-33 -29 29 33
c28 30 36 37 36 29z m-4695 -137 c66 -66 117 -120 115 -120 -3 0 -59 54 -125
120 -66 66 -117 120 -115 120 3 0 59 -54 125 -120z m6330 63 c-18 -12 -17 -14
6 -40 l24 -28 -31 28 -32 29 22 21 c11 12 23 18 25 13 2 -5 -4 -15 -14 -23z
m-3925 -68 c13 -14 21 -25 18 -25 -2 0 -15 11 -28 25 -13 14 -21 25 -18 25 2
0 15 -11 28 -25z m2150 12 c0 -2 -15 -16 -32 -33 l-33 -29 29 33 c28 30 36 37
36 29z m-1261 -156 l-73 -70 -7 -118 -6 -118 -1 115 -1 115 77 77 c42 42 78
75 80 73 2 -2 -29 -35 -69 -74z m-839 14 c13 -14 21 -25 18 -25 -2 0 -15 11
-28 25 -13 14 -21 25 -18 25 2 0 15 -11 28 -25z m1970 21 c0 -2 -98 -95 -217
-207 -289 -272 -323 -303 -323 -297 0 3 91 90 201 194 111 104 232 217 268
251 66 62 71 66 71 59z m-4275 -36 c10 -11 16 -20 13 -20 -3 0 -13 9 -23 20
-10 11 -16 20 -13 20 3 0 13 -9 23 -20z m2396 3 c13 -16 12 -17 -3 -4 -17 13
-22 21 -14 21 2 0 10 -8 17 -17z m1130 -153 l-143 -139 30 -26 c17 -14 54 -53
83 -88 l52 -62 -69 71 c-108 112 -83 116 -251 -46 -131 -126 -183 -182 -183
-201 0 -3 17 -25 37 -50 l37 -44 -43 40 c-23 22 -45 40 -48 40 -4 0 -27 23
-52 50 -60 67 -307 322 -400 413 l-74 73 -36 -33 c-19 -18 -29 -24 -21 -13 8
11 24 27 35 37 20 16 20 17 -15 55 l-35 38 38 -35 37 -34 45 44 c25 24 45 41
45 38 0 -4 -19 -25 -42 -47 l-43 -40 85 -88 c47 -49 162 -166 256 -261 l170
-174 169 172 c94 94 172 175 173 181 2 5 9 9 16 9 7 0 73 58 147 130 74 71
136 129 139 129 3 0 -60 -63 -139 -139z m-1078 20 c-2 -2 -29 23 -61 55 l-57
59 60 -54 c34 -30 59 -57 58 -60z m4542 100 c-3 -5 -11 -10 -16 -10 -6 0 -7 5
-4 10 3 6 11 10 16 10 6 0 7 -4 4 -10z m-3840 -20 c3 -6 -1 -7 -9 -4 -18 7
-21 14 -7 14 6 0 13 -4 16 -10z m3330 -61 c39 -40 59 -63 45 -53 -26 19 -126
124 -119 124 3 0 36 -32 74 -71z m-6375 -2 c0 -6 -9 0 -20 13 -11 13 -20 25
-20 28 0 3 9 -3 20 -13 11 -10 20 -23 20 -28z m3081 26 c13 -16 12 -17 -3 -4
-10 7 -18 15 -18 17 0 8 8 3 21 -13z m-141 -6 c0 -2 -17 -19 -37 -38 l-38 -34
34 38 c33 34 41 42 41 34z m181 -44 c13 -16 12 -17 -3 -4 -10 7 -18 15 -18 17
0 8 8 3 21 -13z m2885 -47 c5 -20 2 -26 -10 -26 -11 0 -16 9 -16 31 0 17 -4
28 -10 24 -6 -3 -7 1 -4 9 5 13 8 13 19 2 8 -7 17 -25 21 -40z m-5912 -23 c55
-61 40 -53 -24 13 -30 31 -46 50 -35 43 11 -7 37 -32 59 -56z m-569 -153 c115
-115 208 -210 205 -210 -3 0 -100 95 -215 210 -115 116 -208 210 -205 210 3 0
100 -94 215 -210z m3035 23 c97 -98 248 -249 337 -336 l161 -158 33 28 c19 15
78 71 132 123 54 52 106 99 115 103 9 5 6 -1 -8 -13 -14 -12 -81 -76 -148
-142 l-124 -120 34 -36 c18 -20 34 -39 36 -41 1 -3 59 51 127 119 69 69 125
122 125 120 0 -3 -66 -70 -147 -150 -81 -80 -139 -135 -128 -122 18 22 18 23
-12 60 -17 20 -35 37 -41 37 -5 0 -33 -22 -62 -49 l-52 -49 8 -180 c5 -142 4
-178 -5 -172 -10 5 -12 72 -10 282 2 151 7 277 11 279 4 3 8 -36 8 -85 0 -50
3 -91 8 -90 4 0 25 21 46 45 l39 45 -109 107 c-262 259 -568 572 -559 572 6 0
89 -80 185 -177z m640 122 c30 -30 52 -55 49 -55 -2 0 -29 25 -59 55 -30 30
-52 55 -49 55 2 0 29 -25 59 -55z m-3032 -35 c-11 -17 -3 -29 77 -112 49 -51
94 -98 100 -103 5 -6 75 -78 155 -161 80 -83 33 -37 -105 101 l-250 253 -180
-173 -180 -173 20 -24 c11 -12 99 -102 195 -198 l175 -175 -3 -569 c-1 -313
-4 -567 -7 -564 -2 2 -5 249 -5 547 l-1 544 -42 -39 -42 -39 43 45 c23 25 42
52 42 59 0 8 -86 101 -192 208 l-192 193 -36 -32 c-20 -18 70 72 199 199 130
128 237 233 239 233 1 0 -3 -9 -10 -20z m2789 -82 c-3 -8 -6 -5 -6 6 -1 11 2
17 5 13 3 -3 4 -12 1 -19z m-872 -28 c10 -11 16 -20 13 -20 -3 0 -13 9 -23 20
-10 11 -16 20 -13 20 3 0 13 -9 23 -20z m4375 -70 c0 -10 -51 -60 -62 -60 -6
0 1 15 16 34 16 21 24 42 20 53 -5 16 -4 16 10 -1 9 -11 16 -22 16 -26z
m-3493 -92 c-2 -24 -4 -5 -4 42 0 47 2 66 4 43 2 -24 2 -62 0 -85z m566 -18
c6 0 29 17 52 37 l40 38 -42 -45 -43 -45 83 -85 82 -85 -87 85 -88 85 -70 -70
c-38 -38 -70 -67 -70 -63 0 3 30 35 68 72 l67 65 -37 38 -38 37 -47 -44 -48
-45 49 52 50 52 34 -39 c18 -22 39 -40 45 -40z m2847 30 c0 -5 -4 -10 -10 -10
-5 0 -10 5 -10 10 0 6 5 10 10 10 6 0 10 -4 10 -10z m-6629 -87 c13 -16 12
-17 -3 -4 -10 7 -18 15 -18 17 0 8 8 3 21 -13z m1933 -82 c-3 -3 -11 2 -18 11
-12 16 -15 16 -36 -7 -13 -14 -28 -25 -33 -25 -4 0 5 12 22 26 17 14 28 31 24
37 -3 7 6 1 20 -12 15 -14 24 -27 21 -30z m-2044 -76 c-24 -25 -46 -45 -49
-45 -3 0 15 20 39 45 24 25 46 45 49 45 3 0 -15 -20 -39 -45z m2220 -99 c0 -5
-26 17 -57 50 -87 91 -96 108 -15 29 40 -38 72 -74 72 -79z m1189 87 c12 -14
19 -28 16 -31 -3 -3 -6 -3 -7 -1 -2 2 -14 16 -27 32 -14 15 -20 27 -13 27 6 0
20 -12 31 -27z m3284 12 c-3 -9 -8 -14 -10 -11 -3 3 -2 9 2 15 9 16 15 13 8
-4z m-5633 -70 c13 -14 21 -25 18 -25 -2 0 -15 11 -28 25 -13 14 -21 25 -18
25 2 0 15 -11 28 -25z m-1140 -2 c0 -5 -13 -17 -28 -27 l-27 -19 24 26 c26 28
31 32 31 20z m6490 4 c0 -2 -12 -14 -27 -28 l-28 -24 24 28 c23 25 31 32 31
24z m-4055 -159 l110 -113 -111 105 c-96 91 -123 120 -111 120 1 0 52 -51 112
-112z m-2495 99 c0 -1 -37 -38 -82 -82 l-83 -80 80 83 c74 76 85 87 85 79z
m2630 -274 c31 -32 64 -69 75 -83 11 -14 -5 1 -35 33 -30 33 -82 84 -115 114
-33 31 -42 42 -20 25 22 -17 65 -57 95 -89z m710 113 c0 -2 -8 -10 -17 -17
-16 -13 -17 -12 -4 4 13 16 21 21 21 13z m1205 -26 c10 -11 16 -20 13 -20 -3
0 -13 9 -23 20 -10 11 -16 20 -13 20 3 0 13 -9 23 -20z m-2475 -30 c0 -5 -4
-10 -10 -10 -5 0 -10 5 -10 10 0 6 5 10 10 10 6 0 10 -4 10 -10z m1210 5 c0
-5 -37 -42 -71 -70 -13 -11 -6 1 16 27 36 41 55 57 55 43z m-575 -85 c33 -33
57 -60 54 -60 -2 0 -31 27 -64 60 -33 33 -57 60 -54 60 2 0 31 -27 64 -60z
m285 50 c0 -5 -2 -10 -4 -10 -3 0 -8 5 -11 10 -3 6 -1 10 4 10 6 0 11 -4 11
-10z m3410 -14 c0 -2 -8 -10 -17 -17 -16 -13 -17 -12 -4 4 13 16 21 21 21 13z
m-4792 -33 c-12 -16 -43 -46 -68 -68 -29 -25 -23 -16 20 28 67 70 88 87 48 40z
m-1228 -148 c-41 -41 -77 -75 -79 -75 -3 0 28 34 69 75 41 41 77 75 79 75 3 0
-28 -34 -69 -75z m2390 -31 c14 -15 -8 1 -47 36 -40 35 -73 66 -73 68 0 7 94
-74 120 -104z m58 48 c46 -56 36 -53 -18 4 -24 26 -38 45 -30 42 7 -2 29 -23
48 -46z m-1338 25 c0 -1 -24 -25 -52 -52 l-53 -50 50 53 c46 48 55 57 55 49z
m2290 -17 c0 -5 -2 -10 -4 -10 -3 0 -8 5 -11 10 -3 6 -1 10 4 10 6 0 11 -4 11
-10z m-280 -55 c19 -19 32 -35 29 -35 -3 0 -20 16 -39 35 -19 19 -32 35 -29
35 3 0 20 -16 39 -35z m-600 -30 c13 -14 21 -25 18 -25 -2 0 -15 11 -28 25
-13 14 -21 25 -18 25 2 0 15 -11 28 -25z m-2640 -48 c0 -2 -19 -21 -42 -42
l-43 -40 40 43 c36 39 45 47 45 39z m1070 0 c0 -2 -17 -19 -37 -38 l-38 -34
34 38 c33 34 41 42 41 34z m1670 -150 c74 -77 131 -138 125 -136 -5 2 -73 68
-150 147 -77 79 -133 140 -125 136 8 -4 76 -70 150 -147z m615 113 c10 -11 16
-20 13 -20 -3 0 -13 9 -23 20 -10 11 -16 20 -13 20 3 0 13 -9 23 -20z m-455
-167 l115 -118 -111 105 c-94 89 -132 130 -121 130 1 0 54 -53 117 -117z
m-3001 105 c-3 -2 -38 -34 -79 -73 l-75 -70 70 73 c38 39 74 72 79 72 5 0 7
-1 5 -2z m1041 -21 c0 -2 -12 -14 -27 -28 l-28 -24 24 28 c23 25 31 32 31 24z
m2820 -77 c0 -5 -5 -10 -11 -10 -5 0 -7 5 -4 10 3 6 8 10 11 10 2 0 4 -4 4
-10z m-322 -177 c-2 -140 -5 -123 -10 45 -2 50 0 92 5 92 4 0 6 -62 5 -137z
m-3698 123 c0 -2 -8 -10 -17 -17 -16 -13 -17 -12 -4 4 13 16 21 21 21 13z
m3851 -33 c13 -16 12 -17 -3 -4 -10 7 -18 15 -18 17 0 8 8 3 21 -13z m50 -50
c13 -16 12 -17 -3 -4 -10 7 -18 15 -18 17 0 8 8 3 21 -13z m-4011 -27 c0 -2
-8 -10 -17 -17 -16 -13 -17 -12 -4 4 13 16 21 21 21 13z m-50 -40 c0 -2 -8
-10 -17 -17 -16 -13 -17 -12 -4 4 13 16 21 21 21 13z m3857 -168 c-2 -13 -4
-5 -4 17 -1 22 1 32 4 23 2 -10 2 -28 0 -40z m-2467 39 c0 -2 -15 -16 -32 -33
l-33 -29 29 33 c28 30 36 37 36 29z m2044 -115 c-5 -4 -45 -41 -89 -82 l-80
-74 84 86 c47 48 87 85 90 83 2 -3 0 -9 -5 -13z m356 3 c-7 -8 -18 -15 -24
-15 -6 0 -2 7 8 15 25 19 32 19 16 0z m74 -61 c3 -8 2 -12 -4 -9 -6 3 -10 10
-10 16 0 14 7 11 14 -7z m-2654 -38 l25 -30 -31 25 c-17 13 -29 28 -27 32 3 5
6 7 7 5 0 -2 12 -16 26 -32z m2270 -9 c0 -2 -12 -14 -27 -28 l-28 -24 24 28
c23 25 31 32 31 24z m-2340 -11 c0 -2 -8 -10 -17 -17 -16 -13 -17 -12 -4 4 13
16 21 21 21 13z m151 -63 l24 -28 -30 25 c-16 14 -32 26 -34 28 -2 1 0 2 6 2
5 0 20 -12 34 -27z m-71 -17 c0 -2 -8 -10 -17 -17 -16 -13 -17 -12 -4 4 13 16
21 21 21 13z m-60 -49 c0 -1 -44 -45 -97 -97 -53 -52 -77 -72 -53 -45 53 60
150 153 150 142z m2741 -14 c13 -16 12 -17 -3 -4 -10 7 -18 15 -18 17 0 8 8 3
21 -13z m-2421 -118 c13 -14 21 -25 18 -25 -2 0 -15 11 -28 25 -13 14 -21 25
-18 25 2 0 15 -11 28 -25z m2360 12 c0 -1 -21 -20 -47 -41 l-48 -38 42 41 c37
36 53 48 53 38z m0 -191 l105 -111 -105 103 -106 102 -122 -116 -123 -117 23
-25 23 -25 -27 18 c-16 9 -28 20 -28 24 0 3 54 60 120 126 66 66 118 125 116
132 -10 25 22 -4 124 -111z m-2210 31 c35 -41 35 -41 4 -17 -35 29 -71 73 -52
64 7 -3 29 -25 48 -47z m320 17 c0 -9 -5 -14 -12 -12 -18 6 -21 28 -4 28 9 0
16 -7 16 -16z m-1070 -54 c0 -5 -2 -10 -4 -10 -3 0 -8 5 -11 10 -3 6 -1 10 4
10 6 0 11 -4 11 -10z m801 -27 c13 -16 12 -17 -3 -4 -17 13 -22 21 -14 21 2 0
10 -8 17 -17z m1279 4 c0 -2 -17 -19 -37 -38 l-38 -34 34 38 c33 34 41 42 41
34z m-972 -300 c213 -211 276 -280 266 -288 -10 -8 -16 -3 -27 18 -8 16 -122
136 -254 268 -204 206 -298 304 -271 285 4 -3 133 -130 286 -283z m-685 -102
c33 -38 -19 9 -117 105 -97 96 -182 184 -188 195 -15 27 229 -213 305 -300z
m300 78 c57 -65 19 -30 -103 94 -113 116 -116 119 -25 33 55 -52 113 -110 128
-127z m1097 213 c0 -2 -8 -10 -17 -17 -16 -13 -17 -12 -4 4 13 16 21 21 21 13z
m55 -86 c-49 -49 -90 -88 -92 -86 -4 3 169 176 177 176 2 0 -36 -40 -85 -90z
m895 -75 c19 -19 32 -35 29 -35 -3 0 -20 16 -39 35 -19 19 -32 35 -29 35 3 0
20 -16 39 -35z m-1970 -130 c19 -19 30 -35 24 -35 -5 0 -22 16 -37 35 -36 45
-30 45 13 0z m50 -55 c0 -5 -4 -10 -10 -10 -5 0 -10 5 -10 10 0 6 5 10 10 10
6 0 10 -4 10 -10z m750 -5 c0 -2 -10 -10 -22 -16 -21 -11 -22 -11 -9 4 13 16
31 23 31 12z m-1085 -32 l18 -28 -21 19 c-12 11 -22 23 -22 28 0 14 7 9 25
-19z m66 -70 c13 -16 12 -17 -3 -4 -10 7 -18 15 -18 17 0 8 8 3 21 -13z m84
-83 c33 -33 57 -60 54 -60 -2 0 -31 27 -64 60 -33 33 -57 60 -54 60 2 0 31
-27 64 -60z m864 -179 c14 -26 -10 -48 -29 -26 -13 16 -7 45 9 45 6 0 15 -9
20 -19z m-639 -56 c13 -14 21 -25 18 -25 -2 0 -15 11 -28 25 -13 14 -21 25
-18 25 2 0 15 -11 28 -25z m-267 -12 c9 -9 -23 -44 -34 -37 -17 10 -10 44 9
44 10 0 22 -3 25 -7z m347 -68 c13 -14 21 -25 18 -25 -2 0 -15 11 -28 25 -13
14 -21 25 -18 25 2 0 15 -11 28 -25z m65 -65 c10 -11 16 -20 13 -20 -3 0 -13
9 -23 20 -10 11 -16 20 -13 20 3 0 13 -9 23 -20z m170 -170 c10 -11 16 -20 13
-20 -3 0 -13 9 -23 20 -10 11 -16 20 -13 20 3 0 13 -9 23 -20z m56 -57 c13
-16 12 -17 -3 -4 -10 7 -18 15 -18 17 0 8 8 3 21 -13z m646 -226 c-114 -111
-208 -207 -207 -212 0 -6 14 -21 31 -35 17 -14 35 -34 41 -45 5 -11 -11 1 -38
27 l-48 47 -66 -61 c-36 -34 -141 -136 -235 -227 -93 -91 -181 -175 -195 -185
-34 -27 161 166 568 562 188 182 345 332 349 332 5 0 -86 -91 -200 -203z
m-547 128 c13 -14 21 -25 18 -25 -2 0 -15 11 -28 25 -13 14 -21 25 -18 25 2 0
15 -11 28 -25z m-490 -125 c0 -5 -4 -10 -10 -10 -5 0 -10 5 -10 10 0 6 5 10
10 10 6 0 10 -4 10 -10z m656 -48 c-8 -7 -25 8 -37 31 -11 21 -10 21 15 -2 14
-14 24 -26 22 -29z m1058 24 c-3 -7 2 -16 10 -19 9 -4 16 -11 16 -17 0 -6 -7
-4 -16 4 -8 9 -19 16 -24 16 -5 0 -7 7 -4 15 4 8 10 15 15 15 4 0 6 -6 3 -14z
m-914 -175 c0 -9 -52 44 -73 74 -11 17 0 8 26 -19 26 -28 47 -52 47 -55z
m1040 78 c-9 -17 -8 -25 7 -42 l18 -22 -22 19 c-23 19 -23 19 -45 0 l-23 -19
19 23 c11 12 16 22 11 22 -6 0 35 39 43 40 1 0 -2 -9 -8 -21z m-360 -134 c0
-8 -2 -15 -4 -15 -2 0 -6 7 -10 15 -3 8 -1 15 4 15 6 0 10 -7 10 -15z m410 12
c0 -1 -66 -67 -147 -147 l-148 -145 145 148 c134 137 150 152 150 144z m-2731
-250 c-185 -182 -809 -786 -925 -896 -8 -7 -17 -11 -20 -8 -3 2 19 27 48 54
47 44 220 209 318 303 99 95 616 595 695 672 50 48 92 88 95 88 3 -1 -92 -96
-211 -213z m261 149 c14 -18 14 -18 -7 -6 -12 8 -19 18 -16 23 3 4 6 7 7 5 1
-2 8 -12 16 -22z m1666 -136 c86 -88 160 -157 165 -155 4 3 7 24 7 46 0 22 3
43 6 47 4 3 6 -22 5 -56 l-2 -63 144 -145 c79 -79 139 -144 133 -144 -5 0 -53
44 -104 98 -52 53 -191 195 -309 315 -119 119 -212 217 -209 217 4 0 77 -72
164 -160z m-956 -15 c0 -8 -7 -15 -15 -15 -16 0 -20 12 -8 23 11 12 23 8 23
-8z m-947 -116 c-6 -6 -15 -4 -23 6 -12 14 -11 18 0 25 18 11 37 -17 23 -31z
m2588 -32 c-10 -9 -11 -8 -5 6 3 10 9 15 12 12 3 -3 0 -11 -7 -18z m-1151
-409 c219 -221 398 -404 396 -405 -1 -1 -167 162 -368 364 -338 338 -368 366
-385 352 -17 -13 -17 -13 -3 5 13 17 11 21 -18 47 -31 28 -38 39 -26 39 3 0
185 -181 404 -402z m-801 310 c-1 -51 -3 -56 -8 -28 -6 34 -3 90 5 90 2 0 3
-28 3 -62z m32 -35 c13 -16 12 -17 -3 -4 -17 13 -22 21 -14 21 2 0 10 -8 17
-17z m-34 -105 c-3 -8 -6 -5 -6 6 -1 11 2 17 5 13 3 -3 4 -12 1 -19z m341
-203 c-3 -3 -9 2 -12 12 -6 14 -5 15 5 6 7 -7 10 -15 7 -18z m-520 -341 c1 -1
-5 -7 -15 -15 -15 -12 -16 -12 -11 2 4 9 1 23 -5 30 -9 9 -6 9 8 -1 11 -8 21
-15 23 -16z m582 -108 c0 -2 -8 -10 -17 -17 -16 -13 -17 -12 -4 4 13 16 21 21
21 13z m194 -275 c-5 -6 -34 20 -34 30 0 5 8 1 18 -8 10 -10 17 -20 16 -22z
m-1224 -54 c0 -2 -12 -14 -27 -28 l-28 -24 24 28 c23 25 31 32 31 24z m-555
-207 c38 -38 67 -70 64 -70 -2 0 -36 32 -74 70 -38 39 -67 70 -64 70 2 0 36
-31 74 -70z m945 41 c0 -5 -7 -14 -15 -21 -12 -10 -15 -10 -15 2 0 8 3 18 7
21 9 10 23 9 23 -2z m-570 -4 c0 -2 -12 -14 -27 -28 l-28 -24 24 28 c23 25 31
32 31 24z m-200 -198 c0 -14 -16 -11 -29 5 -10 12 -8 13 8 9 12 -3 21 -9 21
-14z m30 -34 c0 -8 -4 -15 -9 -15 -5 0 -11 7 -15 15 -3 9 0 15 9 15 8 0 15 -7
15 -15z m1155 -203 c-3 -3 -15 8 -27 24 -12 16 -43 52 -68 80 -25 28 -12 17
28 -24 39 -41 70 -77 67 -80z m-985 36 c0 -4 -9 1 -20 12 -11 11 -20 23 -20
27 0 3 9 -2 20 -12 11 -10 20 -22 20 -27z m51 -44 c18 -20 25 -31 14 -24 -18
11 -61 60 -52 60 1 0 19 -16 38 -36z m-511 -66 c-19 -17 -55 -50 -80 -72 -25
-23 -14 -8 25 32 38 39 74 72 80 72 5 0 -6 -14 -25 -32z m668 -90 c21 -31 9
-20 -58 49 -65 67 -65 67 -9 18 30 -28 61 -58 67 -67z m-608 -802 c0 -3 -4 -8
-10 -11 -5 -3 -10 -1 -10 4 0 6 5 11 10 11 6 0 10 -2 10 -4z"/>
<path d="M5963 10153 c51 -48 196 -189 322 -314 127 -124 300 -291 385 -372
85 -80 184 -176 220 -214 75 -78 240 -233 240 -224 0 12 -19 34 -150 171 -74
78 -137 147 -138 153 -4 12 96 -88 129 -128 9 -11 29 -32 45 -47 16 -14 72
-72 124 -127 52 -56 143 -151 202 -213 60 -62 110 -119 113 -128 8 -26 153
-162 165 -155 5 3 8 0 5 -7 -3 -7 36 -54 90 -108 l95 -94 40 39 c22 21 40 45
40 52 0 7 4 13 10 13 13 0 200 157 194 163 -3 2 9 16 26 30 16 14 30 30 30 34
0 5 -19 28 -43 51 -33 32 -48 41 -63 35 -19 -7 -19 -6 0 12 18 19 20 18 72
-40 l53 -60 23 23 c13 13 48 46 78 74 81 75 287 275 633 616 l308 303 -278
274 -278 274 -83 1 -83 0 3 -442 c2 -244 6 -450 9 -458 4 -10 -18 -38 -70 -85
-42 -38 -67 -59 -56 -46 11 13 42 44 68 69 30 29 46 51 42 60 -3 9 -5 215 -5
459 l0 443 -1304 0 -1304 0 91 -87z m1257 47 c0 -10 -31 -22 -38 -16 -2 3 -2
12 1 20 6 15 37 12 37 -4z m1347 -152 c-2 -13 -4 -3 -4 22 0 25 2 35 4 23 2
-13 2 -33 0 -45z m-1353 -316 c-6 -9 -22 -17 -35 -17 -34 0 -40 42 -7 54 31
12 58 -11 42 -37z m1351 -211 c3 -5 1 -12 -5 -16 -5 -3 -10 1 -10 9 0 18 6 21
15 7z m-8 -163 c-3 -8 -6 -5 -6 6 -1 11 2 17 5 13 3 -3 4 -12 1 -19z m-1149
-204 c27 -8 29 -34 2 -34 -10 0 -24 -8 -29 -17 -8 -15 -10 -11 -11 20 0 39 2
40 38 31z m892 -27 c0 -2 -12 -14 -27 -28 l-28 -24 24 28 c23 25 31 32 31 24z
m-293 -293 c-10 -10 -58 37 -50 48 3 6 17 -2 31 -16 14 -14 23 -29 19 -32z
m-630 -6 c-3 -7 -5 -2 -5 12 0 14 2 19 5 13 2 -7 2 -19 0 -25z m443 -282 c0
-2 -8 -10 -17 -17 -16 -13 -17 -12 -4 4 13 16 21 21 21 13z m-50 -50 c0 -2 -8
-10 -17 -17 -16 -13 -17 -12 -4 4 13 16 21 21 21 13z"/>
<path d="M8718 10213 c11 -16 129 -134 262 -263 133 -129 243 -236 245 -238 1
-2 43 36 91 83 49 48 172 167 274 266 l185 179 -354 0 -354 0 69 -72 c129
-136 175 -178 186 -172 7 5 8 2 4 -5 -5 -7 0 -22 11 -34 18 -22 18 -22 -3 -4
-27 23 -32 22 -68 -10 l-31 -28 30 33 31 32 -129 130 -128 130 -170 0 -170 0
19 -27z m316 -238 c-7 -16 -24 -21 -24 -6 0 8 7 13 27 20 1 1 0 -6 -3 -14z
m106 -40 c0 -8 -4 -15 -9 -15 -13 0 -22 16 -14 24 11 11 23 6 23 -9z"/>
<path d="M9524 9966 c-240 -238 -276 -277 -265 -290 8 -9 17 -16 21 -16 4 0
54 46 112 103 57 56 191 186 297 290 l191 187 -39 0 c-39 0 -48 -8 -317 -274z"/>
<path d="M9843 10188 c-27 -29 -163 -163 -302 -297 -138 -134 -250 -249 -248
-255 2 -6 11 -10 20 -10 9 1 13 -4 10 -12 -3 -8 -2 -14 2 -14 4 0 151 144 327
320 l321 320 -40 0 c-35 0 -46 -6 -90 -52z"/>
<path d="M9776 9992 c-138 -137 -288 -284 -334 -328 l-83 -79 36 -43 37 -42
31 22 32 22 -22 -25 c-29 -32 -29 -40 2 -69 l26 -24 232 230 c239 237 391 383
465 449 39 34 42 41 42 86 l0 49 -106 0 -107 0 -251 -248z m154 115 c0 -1 -33
-34 -72 -72 -40 -39 -62 -56 -48 -40 35 43 120 123 120 112z m-150 -150 c0 -2
-15 -16 -32 -33 l-33 -29 29 33 c28 30 36 37 36 29z m80 -61 c0 -2 -8 -10 -17
-17 -16 -13 -17 -12 -4 4 13 16 21 21 21 13z m-150 -9 c0 -2 -17 -19 -37 -38
l-38 -34 34 38 c33 34 41 42 41 34z m110 -30 c0 -1 -26 -27 -57 -57 l-58 -55
55 58 c50 53 60 62 60 54z m-170 -165 c0 -5 -26 -30 -57 -57 l-58 -48 55 56
c57 59 60 62 60 49z m-120 -116 c0 -2 -8 -10 -17 -17 -16 -13 -17 -12 -4 4 13
16 21 21 21 13z"/>
<path d="M10195 10063 c-71 -65 -586 -564 -730 -709 -77 -77 -196 -194 -265
-260 -357 -341 -730 -709 -727 -719 11 -31 47 -5 193 137 87 84 165 160 174
168 86 81 245 233 442 423 219 211 237 231 226 251 -10 19 -10 20 5 8 14 -12
58 27 373 341 273 272 355 359 352 375 -3 19 -6 18 -43 -15z"/>
<path d="M10135 9924 c-130 -123 -555 -547 -555 -554 0 -13 181 -183 187 -176
33 33 397 382 431 412 l43 39 -3 187 -3 187 -100 -95z"/>
<path d="M9259 9723 c-13 -16 -12 -17 4 -4 9 7 17 15 17 17 0 8 -8 3 -21 -13z"/>
<path d="M9165 9613 c-33 -31 -172 -167 -310 -302 -137 -136 -350 -345 -472
-465 -175 -172 -226 -216 -241 -212 -12 4 -24 0 -33 -11 -13 -16 -12 -17 4 -4
9 8 20 11 23 9 3 -3 -21 -28 -53 -54 -85 -72 -193 -176 -205 -197 -8 -17 -7
-18 14 -12 27 9 23 3 -11 -15 -15 -8 -21 -8 -17 -1 4 6 6 11 4 11 -2 0 -86
-81 -187 -180 -101 -99 -187 -180 -191 -180 -14 0 -98 -106 -100 -125 -1 -11
-2 -51 -1 -90 l1 -70 102 97 c101 96 102 97 83 118 -18 20 -41 28 -30 10 3 -5
1 -10 -5 -10 -7 0 -10 6 -7 14 3 8 -2 20 -11 28 -8 7 -13 8 -9 2 4 -7 -1 -18
-11 -25 -15 -12 -16 -12 -5 2 10 12 10 18 0 29 -8 9 -8 11 0 6 6 -3 13 0 16 6
3 10 9 9 22 -4 16 -15 20 -15 44 -1 l26 15 -24 -19 -24 -20 22 -22 23 -23 66
63 c37 34 81 76 97 93 102 108 550 533 585 555 23 15 613 601 854 848 93 96
107 114 96 128 -7 8 -17 15 -22 15 -6 0 -59 -47 -118 -105 -59 -58 -111 -105
-115 -105 -4 0 43 49 105 108 96 92 112 111 106 130 -4 12 -13 22 -19 22 -7 0
-39 -26 -72 -57z m-135 -207 c0 -2 -8 -10 -17 -17 -16 -13 -17 -12 -4 4 13 16
21 21 21 13z m-40 -29 c0 -2 -19 -21 -42 -42 l-43 -40 40 43 c36 39 45 47 45
39z m-150 -238 c-47 -44 -118 -108 -158 -142 -40 -34 -118 -113 -172 -174
-101 -116 -207 -219 -216 -211 -2 3 19 27 48 54 29 27 97 98 150 157 89 99
186 192 356 340 36 31 68 57 71 57 3 -1 -32 -37 -79 -81z m20 68 c0 -2 -12
-14 -27 -28 l-28 -24 24 28 c23 25 31 32 31 24z m-559 -494 c-5 -10 -24 -31
-42 -48 -30 -28 -29 -26 6 18 41 50 52 58 36 30z m-52 -107 c14 -14 21 -29 17
-33 -4 -4 -20 7 -36 24 l-30 32 -122 -126 c-68 -69 -122 -128 -121 -132 1 -4
-20 -25 -47 -46 l-50 -39 23 -25 c22 -24 7 -20 -25 6 -14 13 -21 10 -60 -23
l-43 -38 43 45 c23 25 39 49 35 53 -4 4 0 4 9 1 19 -7 95 48 100 72 2 8 59 72
128 141 133 136 134 136 179 88z m-239 -199 c0 -2 -10 -12 -22 -23 l-23 -19
19 23 c18 21 26 27 26 19z m-270 -222 c-7 -9 -36 -34 -64 -57 -47 -38 -47 -36
9 15 60 57 78 70 55 42z m-148 -122 c-36 -36 -56 -46 -28 -15 17 18 33 32 38
32 4 0 0 -8 -10 -17z m-164 -233 c-7 -10 -14 -17 -17 -15 -4 4 18 35 25 35 2
0 -1 -9 -8 -20z"/>
<path d="M10195 9583 c-22 -20 -127 -120 -232 -222 l-193 -185 42 -43 42 -43
25 23 25 22 -25 -31 -24 -32 -43 49 -44 49 -151 -142 c-84 -79 -255 -245 -382
-369 -126 -124 -288 -281 -360 -350 -71 -68 -186 -180 -254 -249 -120 -120
-125 -127 -132 -175 l-6 -50 -2 44 -1 43 -51 -53 c-44 -48 -49 -56 -38 -74 11
-19 11 -19 -7 -4 -18 16 -27 9 -182 -145 l-163 -162 117 -124 117 -125 -122
121 -121 121 -326 -321 -326 -321 2 -235 c0 -129 0 -244 0 -255 -1 -11 -1
-179 -1 -374 1 -195 -1 -356 -4 -359 -3 -3 -5 58 -5 135 0 77 -3 154 -6 170
l-6 30 -39 -42 c-39 -42 -39 -43 -39 -125 0 -103 -8 -102 -11 1 -3 57 -7 75
-16 72 -15 -6 -17 9 -3 23 5 5 12 100 16 212 4 111 9 200 11 198 3 -2 4 -96 3
-208 l-1 -203 40 45 c39 44 40 47 42 120 0 41 2 111 4 155 2 44 0 99 -5 122
-4 25 -3 46 3 52 11 11 6 216 -6 227 -4 4 -19 -3 -35 -17 -21 -19 -21 -17 5
11 36 40 49 105 36 177 l-8 42 -120 -110 c-228 -211 -391 -364 -587 -554
l-197 -191 -2 -59 c-3 -104 -2 -107 24 -95 l22 11 -23 -18 c-22 -18 -23 -21
-22 -236 1 -129 5 -215 11 -212 5 3 6 0 4 -7 -3 -8 7 -26 23 -41 l28 -27 53
45 c48 41 82 62 53 33 -7 -7 -12 -16 -12 -22 0 -5 6 -1 14 9 7 10 11 28 8 39
-4 17 -2 18 8 9 13 -12 43 -7 35 7 -2 4 8 18 23 31 14 13 22 17 17 9 -9 -14
-9 -14 5 0 35 34 122 102 134 104 8 1 22 8 32 16 15 12 16 12 9 1 -5 -10 -4
-12 3 -7 9 5 9 13 2 26 -8 15 -7 18 2 15 15 -6 83 33 74 42 -3 3 -14 0 -23 -8
-16 -12 -16 -11 0 8 21 25 15 43 -14 43 -11 0 -17 5 -14 10 3 6 -1 10 -9 10
-9 0 -16 8 -16 17 0 9 -10 28 -22 42 -21 24 -21 24 8 -1 16 -16 33 -28 37 -28
4 0 23 -17 42 -37 32 -34 36 -36 46 -20 5 9 14 15 18 13 4 -3 29 20 57 51 74
84 123 133 133 133 29 0 16 -26 -36 -72 -116 -105 -163 -153 -163 -170 0 -11
-5 -15 -15 -12 -9 4 -42 -20 -87 -63 -92 -86 -162 -143 -176 -143 -6 0 -9 -9
-7 -19 2 -13 -21 -45 -74 -100 l-78 -80 27 -26 26 -25 57 56 c31 31 57 60 57
64 0 4 -7 13 -15 20 -9 7 -13 15 -10 18 3 3 14 -3 25 -13 20 -18 22 -18 88 46
86 83 14 2 -101 -112 l-88 -88 189 -193 c104 -106 220 -226 258 -265 39 -40
74 -73 78 -73 5 0 50 40 100 89 50 49 144 142 209 206 106 103 117 118 105
133 -7 9 -117 123 -245 252 -128 129 -231 236 -229 237 2 2 122 -116 267 -262
l264 -266 18 22 c9 12 21 19 25 15 4 -4 -3 -16 -15 -25 l-21 -18 26 -28 c16
-17 8 -12 -20 11 l-47 39 -223 -221 c-123 -121 -241 -235 -263 -254 l-40 -34
43 45 42 45 -30 29 -30 28 -19 -24 c-10 -14 -68 -70 -127 -124 -60 -55 -99
-89 -89 -75 11 14 56 59 100 100 44 41 91 88 104 103 l23 28 -158 160 c-155
156 -159 159 -166 132 l-7 -28 2 31 c2 33 -12 53 -91 128 l-51 49 -90 -90 -91
-91 0 -73 c0 -83 -10 -86 -19 -4 l-6 55 -28 -35 -29 -36 26 -34 c37 -48 32
-55 -7 -11 l-32 38 -64 -60 -64 -61 34 -35 c31 -33 34 -34 51 -19 10 9 18 13
18 8 0 -4 -7 -13 -16 -20 -14 -10 -9 -19 42 -68 l59 -56 5 37 c4 33 2 38 -20
43 l-25 7 28 1 c26 1 27 2 27 64 0 43 3 58 10 47 5 -8 8 -59 5 -114 -3 -71 0
-107 10 -125 7 -14 63 -75 124 -135 l112 -109 73 76 c40 42 76 77 81 77 10 0
-8 -21 -83 -98 l-63 -65 31 -32 32 -33 36 40 37 39 30 -33 30 -33 -31 28 -32
29 -26 -35 c-14 -18 -26 -38 -26 -43 0 -6 23 -32 51 -59 28 -28 87 -90 132
-140 67 -75 57 -67 -59 48 -117 115 -142 135 -154 125 -12 -11 -12 -10 -2 3 9
13 5 22 -26 52 -31 31 -40 35 -52 25 -12 -11 -12 -10 -2 3 9 13 -9 36 -113
139 l-124 123 -43 -36 c-24 -20 -86 -77 -138 -126 l-95 -89 60 -64 60 -63 -62
59 -61 58 -39 -27 c-43 -31 -60 -48 179 177 l127 119 -102 98 c-56 55 -106
100 -110 101 -5 1 -48 -36 -95 -82 -48 -46 -104 -97 -124 -112 -21 -16 -38
-33 -38 -38 0 -6 9 -24 21 -41 l21 -32 -29 31 c-15 18 -34 30 -41 27 -6 -3
-10 -9 -7 -13 3 -5 0 -12 -6 -16 -8 -4 -9 -3 -5 4 4 7 3 12 -3 12 -5 0 -19
-16 -31 -35 -19 -31 -40 -46 -40 -29 0 18 73 94 83 87 7 -3 5 2 -4 13 -24 27
-51 85 -45 92 3 3 6 2 6 -2 0 -5 12 -1 28 8 l27 17 -23 -20 c-23 -20 -23 -21
-6 -50 10 -17 23 -32 29 -35 7 -2 30 12 52 32 21 21 32 31 23 25 -38 -29 -27
-9 26 46 38 41 62 58 75 56 11 -2 17 0 14 5 -3 4 12 23 33 42 21 18 36 32 34
31 -2 -1 -20 16 -39 38 -19 21 -42 39 -50 39 -8 0 -11 5 -7 13 4 6 -6 0 -22
-14 -16 -15 -54 -42 -84 -60 -30 -18 -59 -37 -65 -41 -5 -5 -22 -17 -37 -28
-18 -14 -25 -26 -21 -37 4 -11 3 -14 -5 -9 -7 4 -12 3 -12 -2 0 -6 7 -13 16
-16 8 -3 12 -11 8 -17 -5 -8 -9 -8 -14 1 -5 7 -9 3 -12 -14 -3 -14 -1 -23 3
-20 5 3 9 -2 9 -10 0 -9 -7 -16 -16 -16 -8 0 -12 -5 -9 -11 14 -22 15 -98 1
-130 -9 -20 -11 -40 -6 -49 5 -9 11 -54 14 -100 l5 -85 -13 92 c-6 51 -14 94
-16 97 -3 2 -32 -20 -64 -49 l-60 -52 75 -82 c69 -76 74 -81 81 -59 6 21 7 21
5 -4 -1 -20 9 -39 38 -69 22 -23 31 -37 20 -31 -11 6 -69 61 -129 122 l-108
112 -92 -89 c-138 -134 -165 -151 -44 -28 59 61 110 113 113 116 3 3 -12 26
-33 49 l-39 44 -19 -23 c-10 -13 -51 -50 -91 -82 -54 -45 -71 -55 -70 -40 0
10 6 17 12 15 5 -2 39 22 74 54 54 49 63 61 56 81 l-7 23 -28 -27 c-16 -15
-26 -34 -23 -41 3 -8 0 -14 -7 -14 -6 0 -8 5 -5 10 10 16 -1 11 -16 -7 -10
-11 -10 -14 -1 -9 7 4 12 2 12 -4 0 -7 -7 -10 -15 -6 -9 3 -24 -7 -40 -28 -23
-30 -25 -41 -25 -141 0 -107 0 -108 20 -90 11 10 20 13 20 7 0 -6 -9 -17 -20
-25 -19 -13 -20 -28 -20 -728 -1 -485 3 -715 10 -717 5 -2 10 -8 10 -14 0 -6
-6 -5 -15 2 -13 11 -15 9 -11 -11 3 -13 5 -62 5 -108 1 -78 2 -83 19 -70 16
13 16 13 0 -7 -13 -14 -18 -39 -19 -80 -1 -62 -3 -63 -14 -1 -5 32 -9 37 -21
26 -25 -20 -25 -4 0 20 23 21 23 26 19 139 -3 69 -10 121 -17 127 -6 6 -31 33
-56 60 l-45 50 58 -55 57 -54 2 44 c4 118 -5 306 -16 312 -8 6 -7 8 2 8 9 0
12 104 12 488 0 268 -3 497 -6 508 -5 21 -7 20 -40 -12 -48 -49 -53 -42 -6 11
38 43 52 79 52 131 0 13 -4 24 -10 24 -5 0 -10 -5 -10 -12 0 -6 -3 -8 -6 -5
-4 4 -1 19 5 35 7 17 11 44 9 62 l-3 33 -31 -29 c-17 -16 -80 -74 -140 -128
-96 -87 -91 -81 37 45 l147 144 -2 116 c0 65 -4 115 -8 113 -3 -2 -8 1 -10 7
-3 9 -13 7 -34 -6 l-29 -17 23 20 c26 23 29 37 6 28 -8 -3 -12 -2 -9 4 3 6 15
10 26 10 23 0 36 27 20 43 -15 15 -41 18 -41 4 0 -5 -3 -8 -6 -5 -3 4 -1 16 6
27 9 18 8 22 -7 28 -10 4 -21 11 -24 16 -4 5 -9 5 -13 -2 -4 -6 -2 -11 5 -11
7 0 5 -8 -6 -20 -10 -11 -23 -20 -29 -20 -6 0 -2 7 8 15 11 8 17 18 13 21 -6
7 -98 -62 -105 -78 -2 -5 -11 -8 -20 -8 -8 0 -24 -8 -35 -18 -11 -9 -17 -11
-13 -5 4 7 31 29 62 49 30 20 63 47 73 60 10 13 21 21 24 18 3 -3 3 3 0 15 -3
12 -11 21 -17 21 -7 0 -119 -102 -250 -227 -131 -126 -290 -275 -352 -332 -63
-56 -114 -107 -114 -112 0 -5 95 -105 211 -221 253 -254 334 -338 326 -338 -3
0 -39 34 -80 75 l-74 74 -52 -50 c-29 -28 -57 -47 -63 -43 -6 4 -8 3 -4 -4 3
-5 -22 -35 -55 -66 l-62 -55 144 -142 144 -141 -143 134 c-134 124 -170 149
-179 122 -2 -6 87 -102 198 -213 111 -110 200 -203 197 -206 -3 -3 -94 85
-204 195 -109 110 -204 200 -210 200 -5 0 -26 -16 -45 -37 -18 -20 -27 -33
-19 -29 8 4 -3 -9 -25 -28 -22 -20 -43 -36 -47 -36 -18 0 -5 -26 34 -69 42
-46 301 -320 431 -455 l67 -71 24 27 c13 15 26 24 29 21 3 -3 -6 -15 -21 -28
l-26 -23 56 -64 c31 -35 114 -122 185 -193 70 -71 141 -145 156 -164 16 -20
79 -89 142 -153 62 -65 110 -119 108 -122 -2 -2 -23 17 -46 42 -23 26 -141
151 -262 277 -121 127 -292 307 -381 400 -436 462 -506 535 -515 540 -5 4 -67
-49 -139 -117 -72 -68 -161 -150 -198 -182 -37 -33 -139 -127 -227 -210 -88
-82 -131 -120 -96 -83 36 36 62 69 60 72 -3 3 -14 -4 -24 -15 -10 -11 -23 -20
-28 -20 -5 0 3 10 19 22 16 13 31 22 34 21 3 -1 133 124 289 277 l284 278 -64
79 c-35 43 -68 81 -73 85 -6 4 -8 9 -5 12 3 3 32 -24 64 -60 l57 -65 32 28 31
28 -27 -31 c-55 -60 -21 -80 41 -24 22 21 52 45 66 54 14 9 23 22 19 28 -4 7
-3 8 4 4 56 -34 -88 117 -387 409 -102 99 -195 188 -208 198 -22 18 -22 17
-180 -135 -87 -84 -205 -200 -263 -258 l-105 -105 3 -83 4 -82 71 72 c40 40
161 160 270 267 108 106 197 200 197 208 0 21 44 12 48 -10 2 -10 -4 -20 -15
-23 -10 -4 -33 -23 -52 -42 -28 -30 -32 -39 -22 -54 12 -20 1 -24 -16 -7 -15
15 -496 -448 -488 -469 3 -7 5 -76 5 -151 l0 -138 57 -64 57 -64 -60 57 -59
57 2 -82 c1 -45 2 -194 2 -331 l1 -250 22 25 c12 13 33 36 47 52 l25 27 -30
33 -29 32 31 -27 c16 -16 34 -28 39 -28 9 0 80 63 178 157 37 36 67 62 67 56
0 -5 -16 -24 -35 -43 -19 -18 -33 -35 -31 -38 3 -2 -26 -29 -62 -59 -76 -63
-108 -93 -155 -142 -17 -19 -40 -42 -49 -52 -13 -14 -18 -47 -23 -166 -4 -81
-9 -150 -11 -152 -2 -2 -4 12 -4 32 0 21 -4 37 -9 37 -6 0 -5 15 1 36 12 45 4
54 -21 23 -11 -13 -20 -19 -21 -12 0 6 11 20 25 31 19 15 25 29 25 58 0 22 -4
44 -8 51 -5 8 -58 -36 -157 -131 -139 -133 -149 -144 -135 -161 14 -17 14 -17
-7 -5 -20 13 -28 8 -130 -86 -155 -143 -168 -146 -25 -7 67 66 122 125 122
131 0 6 5 12 10 14 6 2 82 72 170 157 l160 154 0 110 0 109 -77 81 c-43 45
-62 67 -42 50 20 -16 53 -49 74 -72 21 -22 40 -41 44 -41 9 0 -2 447 -11 456
-5 4 -18 -1 -30 -12 l-23 -19 19 23 c19 22 19 22 -5 49 l-24 27 35 -29 35 -28
3 44 c1 24 -1 81 -5 126 l-8 83 -172 -173 c-95 -94 -176 -175 -180 -180 -3 -4
7 -22 23 -40 l29 -32 -31 28 c-37 33 -44 33 -67 1 -18 -24 -18 -25 5 -45 l23
-20 -28 17 -28 17 -52 -50 c-285 -272 -342 -333 -309 -333 4 0 20 -17 36 -38
l29 -37 -45 43 -44 42 -22 -23 c-21 -22 -21 -24 -4 -41 16 -18 16 -18 -5 -7
-21 11 -37 -3 -214 -181 -105 -106 -181 -179 -170 -161 12 18 34 41 48 53 14
11 23 23 20 26 -3 3 12 29 34 57 21 29 39 57 39 63 0 15 65 76 73 68 4 -4 13
-1 21 5 8 7 21 9 27 5 7 -4 9 -3 5 4 -3 6 11 25 33 44 21 18 40 38 42 43 2 6
16 20 31 33 l28 23 -51 52 -50 51 -26 -27 c-15 -14 -25 -28 -22 -30 23 -16 87
-77 81 -77 -5 0 -27 16 -51 36 l-42 36 -91 -88 c-51 -49 -139 -134 -197 -189
-153 -145 -251 -244 -251 -253 0 -4 6 -14 12 -21 11 -10 8 -11 -12 -6 -22 5
-40 -9 -132 -99 -60 -58 -108 -110 -108 -116 0 -5 -4 -10 -9 -10 -5 0 -26 -17
-47 -38 -52 -49 -583 -557 -788 -752 -49 -47 -110 -105 -135 -131 -25 -25
-104 -101 -176 -169 -72 -68 -170 -162 -220 -210 -50 -47 -119 -110 -154 -139
-96 -79 -92 -74 -89 -138 l3 -58 125 120 c69 66 138 137 154 158 22 30 31 36
42 26 8 -6 14 -17 14 -24 0 -7 -64 -76 -142 -154 l-143 -141 437 0 c403 0 438
1 454 18 17 16 17 16 11 0 -6 -16 25 -17 481 -17 l487 0 255 241 c140 132 384
369 542 526 158 157 292 288 298 292 6 4 132 127 280 274 149 148 271 262 275
256 3 -5 -110 -124 -252 -263 -336 -329 -501 -489 -538 -523 -16 -14 -102 -97
-190 -183 -88 -86 -235 -226 -325 -311 -91 -85 -201 -189 -245 -232 l-80 -78
55 0 55 0 104 101 c58 55 289 281 515 503 226 221 454 444 508 494 53 51 141
136 195 190 131 129 225 217 243 226 24 13 -396 -402 -785 -774 -198 -190
-450 -434 -560 -542 l-200 -198 1379 0 c1280 0 1381 1 1398 17 18 16 18 16 12
0 -6 -16 12 -17 232 -17 l239 0 195 192 195 193 -165 -170 c-91 -94 -174 -180
-185 -192 l-18 -23 2441 0 2442 0 0 3192 0 3192 -40 -39 c-22 -21 -40 -36 -40
-32 0 4 18 24 40 45 l40 38 -2 599 -3 599 -135 -129 c-74 -71 -158 -151 -187
-179 -51 -49 -53 -49 -73 -31 -27 25 -25 37 4 24 31 -15 28 -17 229 176 l167
160 0 1003 c0 551 -1 1002 -3 1002 -1 0 -20 -17 -42 -37z m-274 -545 c6 -13
30 -43 53 -68 36 -39 37 -41 6 -14 -53 47 -74 67 -89 87 -11 14 -11 17 2 17 9
0 21 -10 28 -22z m299 -411 c0 -2 -10 -12 -22 -23 l-23 -19 19 23 c18 21 26
27 26 19z m-220 -212 c-24 -25 -46 -45 -49 -45 -3 0 15 20 39 45 24 25 46 45
49 45 3 0 -15 -20 -39 -45z m-80 -68 c0 -2 -19 -21 -42 -42 l-43 -40 40 43
c36 39 45 47 45 39z m-101 -103 c-19 -23 -349 -336 -439 -416 l-75 -66 20 -24
20 -23 -23 19 -22 19 -88 -83 c-294 -282 -453 -429 -481 -444 -16 -9 85 90
128 125 22 17 205 188 363 338 37 35 65 67 63 72 -3 4 1 9 9 11 16 3 164 138
385 350 133 127 174 163 140 122z m-64 -14 c3 -5 2 -10 -4 -10 -5 0 -13 5 -16
10 -3 6 -2 10 4 10 5 0 13 -4 16 -10z m-864 -77 c13 -16 12 -17 -3 -4 -10 7
-18 15 -18 17 0 8 8 3 21 -13z m1059 -57 c0 -2 -7 -9 -15 -16 -13 -11 -14 -10
-9 4 5 14 24 23 24 12z m-697 -293 c4 -7 7 -13 5 -13 -2 0 -71 69 -153 152
l-150 153 145 -140 c80 -77 149 -146 153 -152z m-756 -70 c-2 -21 -4 -6 -4 32
0 39 2 55 4 38 2 -18 2 -50 0 -70z m-26 -30 c13 -16 12 -17 -3 -4 -10 7 -18
15 -18 17 0 8 8 3 21 -13z m26 -145 c-2 -24 -4 -5 -4 42 0 47 2 66 4 43 2 -24
2 -62 0 -85z m497 46 c8 -20 8 -24 -1 -24 -17 0 -35 19 -29 29 10 16 23 14 30
-5z m-74 -39 c11 -13 10 -14 -4 -9 -9 3 -16 10 -16 15 0 13 6 11 20 -6z m-835
-166 c11 -16 1 -19 -13 -3 -7 8 -8 14 -3 14 5 0 13 -5 16 -11z m412 -91 c-2
-18 -4 -6 -4 27 0 33 2 48 4 33 2 -15 2 -42 0 -60z m708 -28 c10 -11 16 -20
13 -20 -3 0 -13 9 -23 20 -10 11 -16 20 -13 20 3 0 13 -9 23 -20z m510 -188
c-229 -224 -1293 -1261 -1388 -1352 -70 -67 -86 -88 -81 -104 5 -17 4 -19 -6
-9 -10 9 -47 -21 -174 -141 -183 -174 -246 -231 -246 -222 0 3 21 25 48 48 26
23 142 135 257 248 116 113 284 277 375 365 91 88 282 275 425 415 143 140
391 381 550 535 159 154 305 296 324 316 20 20 41 37 46 38 6 0 -53 -61 -130
-137z m-1037 83 c-16 -13 -28 -29 -28 -36 0 -8 -4 -8 -13 -1 -8 7 -18 7 -27 2
-21 -14 -30 -12 -30 5 0 8 7 15 16 15 11 0 14 5 10 17 -6 15 -4 14 14 -2 20
-18 21 -18 48 3 37 29 43 27 10 -3z m1451 -162 c-1 -5 -63 -66 -138 -138
l-136 -130 115 120 c63 66 118 121 123 123 4 2 7 10 7 18 0 8 7 14 15 14 8 0
14 -3 14 -7z m-1664 -43 c-16 -16 -33 -30 -39 -30 -5 0 3 14 19 30 16 17 33
30 39 30 5 0 -3 -13 -19 -30z m-55 -34 c0 -2 -19 -19 -42 -36 l-43 -32 40 36
c40 36 45 39 45 32z m10 -19 c0 -2 -10 -12 -22 -23 l-23 -19 19 23 c18 21 26
27 26 19z m-80 -60 c0 -2 -10 -12 -22 -23 l-23 -19 19 23 c18 21 26 27 26 19z
m-65 -57 c-18 -20 -18 -22 41 -83 l59 -62 -62 59 -62 59 -26 -17 c-24 -16 -80
-68 -324 -301 -51 -49 -88 -79 -81 -65 14 28 8 22 150 149 172 155 260 239
260 248 0 7 34 25 59 32 2 1 -4 -8 -14 -19z m1406 -224 c-557 -550 -661 -652
-661 -646 0 10 810 809 821 810 4 0 -68 -74 -160 -164z m-2400 36 c1 -40 0
-75 -3 -77 -3 -3 -6 31 -7 77 -1 45 0 80 3 77 3 -2 6 -37 7 -77z m1149 -7 c13
-14 21 -25 18 -25 -2 0 -15 11 -28 25 -13 14 -21 25 -18 25 2 0 15 -11 28 -25z
m-830 -221 c0 -116 4 -184 10 -182 5 2 42 35 82 74 40 39 82 74 93 77 20 7 11
-2 -122 -124 l-63 -57 -2 -298 -3 -299 -2 275 c-2 151 -5 281 -8 289 -4 11
-11 9 -32 -10 l-26 -24 19 30 c10 17 24 36 31 43 9 10 13 59 13 177 0 139 -2
166 -17 180 -14 14 -14 18 -2 26 8 5 17 9 22 9 4 0 7 -84 7 -186z m935 133
c10 -8 15 -19 11 -25 -9 -14 -36 -16 -36 -3 0 5 -3 16 -6 25 -8 20 6 21 31 3z
m1575 -261 c0 -3 -15 -15 -32 -27 l-33 -23 24 27 c22 24 41 35 41 23z m-190
-179 c-69 -67 -249 -241 -400 -387 -299 -288 -510 -494 -1011 -985 -179 -176
-422 -410 -540 -520 -117 -110 -277 -263 -356 -340 -78 -77 -147 -139 -153
-137 -18 6 -10 -16 13 -35 28 -23 87 -95 87 -106 0 -5 -17 13 -39 40 -21 26
-48 57 -60 67 -20 18 -22 18 -39 3 -10 -10 -24 -17 -31 -17 -7 0 -9 -5 -5 -12
5 -10 4 -10 -6 -1 -11 10 -10 16 5 33 10 11 20 18 22 16 3 -2 16 5 29 17 l24
21 -22 24 -23 25 33 -23 32 -24 43 40 c23 22 80 76 127 120 47 44 123 116 170
160 47 43 134 127 195 185 60 58 128 122 150 142 l39 37 -39 42 -40 43 42 -39
c24 -22 45 -38 47 -35 3 2 81 78 173 169 438 430 669 655 908 885 143 138 332
320 420 405 273 265 320 310 325 310 3 0 -51 -55 -120 -123z m-2160 43 c0 -5
-2 -10 -4 -10 -3 0 -8 5 -11 10 -3 6 -1 10 4 10 6 0 11 -4 11 -10z m-1116
-124 c27 -36 33 -52 15 -41 -5 4 -20 -1 -32 -11 -20 -17 -20 -17 1 7 23 26 23
27 5 40 -24 17 -37 39 -25 39 5 0 21 -15 36 -34z m776 0 c0 -3 -4 -8 -10 -11
-5 -3 -10 -1 -10 4 0 6 5 11 10 11 6 0 10 -2 10 -4z m378 -55 c3 -8 -1 -12 -9
-9 -7 2 -15 10 -17 17 -3 8 1 12 9 9 7 -2 15 -10 17 -17z m137 -1 c10 -11 16
-20 13 -20 -3 0 -13 9 -23 20 -10 11 -16 20 -13 20 3 0 13 -9 23 -20z m1495
-65 c0 -8 -7 -15 -15 -15 -8 0 -15 7 -15 15 0 8 7 15 15 15 8 0 15 -7 15 -15z
m-1180 -111 c0 -17 -22 -14 -28 4 -2 7 3 12 12 12 9 0 16 -7 16 -16z m-85 -54
c27 -27 47 -50 44 -50 -3 0 -27 23 -54 50 -27 28 -47 50 -44 50 3 0 27 -22 54
-50z m-905 17 c0 -2 -12 -14 -27 -28 l-28 -24 24 28 c23 25 31 32 31 24z m155
-77 c10 -11 16 -20 13 -20 -3 0 -13 9 -23 20 -10 11 -16 20 -13 20 3 0 13 -9
23 -20z m-261 -22 c-17 -18 -37 -41 -45 -51 -17 -22 -24 -28 -69 -64 -65 -52
-75 -57 -25 -11 46 42 49 47 35 64 -14 18 -14 18 3 5 17 -13 23 -10 70 37 57
57 78 71 31 20z m223 -120 c-2 -18 -4 -4 -4 32 0 36 2 50 4 33 2 -18 2 -48 0
-65z m114 65 c13 -16 12 -17 -3 -4 -17 13 -22 21 -14 21 2 0 10 -8 17 -17z
m307 -310 c89 -90 158 -163 153 -163 -5 0 -11 3 -13 8 -2 4 -34 36 -70 71 -61
58 -69 63 -85 50 -16 -13 -17 -13 -4 4 8 9 11 21 7 25 -3 4 -70 72 -149 152
-78 79 -110 115 -72 80 39 -35 143 -137 233 -227z m-201 230 c-3 -10 -5 -4 -5
12 0 17 2 24 5 18 2 -7 2 -21 0 -30z m-637 -46 c0 -2 -12 -14 -27 -28 l-28
-24 24 28 c23 25 31 32 31 24z m60 -20 c0 -2 -15 -16 -32 -33 l-33 -29 29 33
c28 30 36 37 36 29z m96 -45 c-18 -16 -18 -16 -6 6 6 13 14 21 18 18 3 -4 -2
-14 -12 -24z m-176 -36 c0 -2 -8 -10 -17 -17 -16 -13 -17 -12 -4 4 13 16 21
21 21 13z m1680 -76 c0 -6 -7 -10 -15 -10 -8 0 -15 2 -15 4 0 2 -3 12 -7 21
-5 15 -3 16 15 6 12 -7 22 -16 22 -21z m-1780 -14 c0 -2 -8 -10 -17 -17 -16
-13 -17 -12 -4 4 13 16 21 21 21 13z m1270 -10 c0 -3 -4 -8 -10 -11 -5 -3 -10
-1 -10 4 0 6 5 11 10 11 6 0 10 -2 10 -4z m-1310 -38 c0 -5 -5 -6 -11 -2 -9 5
-10 -9 -7 -50 3 -31 1 -56 -4 -56 -4 0 -8 32 -8 71 0 62 2 70 15 59 8 -7 15
-17 15 -22z m15 -138 c10 -11 16 -20 13 -20 -3 0 -13 9 -23 20 -10 11 -16 20
-13 20 3 0 13 -9 23 -20z m1251 -72 l29 -33 -32 29 c-31 28 -38 36 -30 36 2 0
16 -15 33 -32z m-1151 2 c-10 -11 -21 -18 -23 -15 -3 3 3 12 14 20 27 20 30
18 9 -5z m66 3 c13 -16 12 -17 -3 -4 -10 7 -18 15 -18 17 0 8 8 3 21 -13z
m1155 -75 l29 -33 -32 29 c-18 17 -33 31 -33 33 0 8 8 1 36 -29z m-1061 -18
c10 -11 16 -20 13 -20 -3 0 -13 9 -23 20 -10 11 -16 20 -13 20 3 0 13 -9 23
-20z m-258 -8 c-8 -9 -23 -31 -31 -47 -9 -17 -16 -24 -16 -16 0 15 47 81 57
81 3 0 -1 -8 -10 -18z m948 -32 c21 -22 37 -40 34 -40 -3 0 -23 18 -44 40 -21
22 -37 40 -34 40 3 0 23 -18 44 -40z m1365 -241 l285 -282 -286 274 c-247 236
-300 290 -286 289 1 0 130 -127 287 -281z m-890 199 c8 -2 10 -9 6 -16 -10
-17 -26 -15 -33 6 -3 9 -15 31 -26 47 l-20 30 30 -31 c16 -17 35 -33 43 -36z
m-1110 27 c11 -13 10 -14 -4 -9 -9 3 -16 10 -16 15 0 13 6 11 20 -6z m-30 -35
c-6 -11 -16 -20 -22 -20 -6 0 -3 9 7 20 10 11 20 20 22 20 2 0 -1 -9 -7 -20z
m765 -50 c27 -27 47 -50 44 -50 -3 0 -27 23 -54 50 -27 28 -47 50 -44 50 3 0
27 -22 54 -50z m-1155 36 c0 -2 -8 -10 -17 -17 -16 -13 -17 -12 -4 4 13 16 21
21 21 13z m-260 -26 c-6 -11 -16 -20 -22 -20 -6 0 -3 9 7 20 10 11 20 20 22
20 2 0 -1 -9 -7 -20z m770 -30 c30 -43 18 -37 -16 7 -15 20 -23 33 -16 29 6
-3 21 -20 32 -36z m-1090 17 c0 -2 -10 -12 -21 -23 -22 -19 -22 -19 -8 4 12
19 29 30 29 19z m341 -24 c13 -16 12 -17 -3 -4 -10 7 -18 15 -18 17 0 8 8 3
21 -13z m-81 -6 c0 -2 -12 -14 -27 -28 l-28 -24 24 28 c23 25 31 32 31 24z
m806 -16 c0 -11 -4 -17 -9 -14 -4 2 -16 -1 -25 -9 -16 -12 -16 -11 -2 7 12 15
28 32 35 35 1 0 1 -9 1 -19z m-419 -83 c-2 -13 -4 -3 -4 22 0 25 2 35 4 23 2
-13 2 -33 0 -45z m1183 42 c0 -5 -2 -10 -4 -10 -3 0 -8 5 -11 10 -3 6 -1 10 4
10 6 0 11 -4 11 -10z m-1400 -30 c0 -5 -2 -10 -4 -10 -3 0 -8 5 -11 10 -3 6
-1 10 4 10 6 0 11 -4 11 -10z m-655 -20 c-10 -11 -22 -20 -28 -20 -5 0 1 9 14
20 31 25 37 25 14 0z m2125 -15 c19 -19 32 -35 29 -35 -3 0 -20 16 -39 35 -19
19 -32 35 -29 35 3 0 20 -16 39 -35z m-2050 9 c-8 -8 -23 -20 -34 -25 -15 -7
-13 -3 7 15 31 29 47 35 27 10z m537 -12 c-15 -15 -27 -35 -27 -43 -1 -7 -7 1
-15 20 -19 43 -19 48 3 27 18 -15 20 -15 37 4 10 11 20 20 23 20 3 0 -6 -13
-21 -28z m-228 5 c-2 -2 -29 -25 -59 -52 l-55 -49 50 52 c27 29 54 52 59 52 5
0 7 -1 5 -3z m488 -64 c-3 -10 -5 -4 -5 12 0 17 2 24 5 18 2 -7 2 -21 0 -30z
m1329 -15 l29 -33 -32 29 c-18 17 -33 31 -33 33 0 8 8 1 36 -29z m-1329 -55
c-1 -21 3 -51 7 -68 4 -16 5 -27 1 -23 -12 12 -24 82 -18 106 8 32 11 27 10
-15z m-1652 -1 c-42 -37 -166 -131 -150 -114 31 33 139 120 150 121 6 1 6 -2
0 -7z m1935 -5 c0 -2 -12 -14 -27 -28 l-28 -24 24 28 c23 25 31 32 31 24z
m-616 -23 c10 -25 -1 -29 -14 -5 -6 12 -7 21 -1 21 5 0 12 -7 15 -16z m510
-85 c-10 -11 -28 -26 -39 -31 -11 -6 -4 5 15 24 37 37 57 43 24 7z m-919 1
c-10 -11 -23 -20 -28 -20 -6 0 0 9 13 20 13 11 25 20 28 20 3 0 -3 -9 -13 -20z
m405 7 c0 -2 -12 -14 -27 -28 l-28 -24 24 28 c23 25 31 32 31 24z m695 -307
c149 -149 272 -274 275 -278 3 -4 -20 16 -50 43 -88 80 -531 526 -512 516 10
-5 139 -132 287 -281z m-1145 276 c0 -2 -8 -10 -17 -17 -16 -13 -17 -12 -4 4
13 16 21 21 21 13z m855 -46 c4 -6 10 -8 14 -5 5 2 17 -5 27 -18 l19 -22 -24
20 c-13 11 -24 18 -25 16 0 -3 -10 0 -21 7 -11 6 -15 12 -8 12 6 0 15 -5 18
-10z m2847 -220 c-1 -11 -22 -10 -22 1 0 8 -42 56 -92 109 l-93 95 104 -100
c57 -55 103 -102 103 -105z m-2882 180 c0 -5 -4 -10 -10 -10 -5 0 -10 5 -10
10 0 6 5 10 10 10 6 0 10 -4 10 -10z m1612 -5 c2 -8 152 -164 333 -347 349
-351 368 -377 65 -90 -381 362 -442 423 -436 438 7 18 34 18 38 -1z m-2872
-32 c0 -43 -5 -41 -13 5 -4 18 -2 32 3 32 6 0 10 -16 10 -37z m1541 -150 c8
-10 -32 24 -88 76 -57 51 -103 95 -103 98 0 7 173 -151 191 -174z m-787 132
c-6 -16 -24 -21 -24 -7 0 11 11 22 21 22 5 0 6 -7 3 -15z m-814 -19 c0 -2 -8
-10 -17 -17 -16 -13 -17 -12 -4 4 13 16 21 21 21 13z m158 -144 c-1 -139 -6
-124 -10 35 -2 55 0 99 5 96 4 -2 6 -61 5 -131z m-218 98 c-6 -11 -13 -20 -16
-20 -2 0 0 9 6 20 6 11 13 20 16 20 2 0 0 -9 -6 -20z m620 6 c0 -2 -8 -10 -17
-17 -16 -13 -17 -12 -4 4 13 16 21 21 21 13z m454 -79 c42 35 2 -6 -262 -270
l-267 -268 -67 73 -66 72 -5 -34 -4 -35 -1 40 c-2 32 -10 48 -49 88 -31 32
-38 43 -21 33 15 -10 41 -34 58 -54 49 -57 151 -162 158 -162 11 0 492 484
492 495 0 14 -42 40 -59 36 -12 -2 -13 0 -2 13 12 14 16 12 43 -15 30 -29 31
-29 52 -12z m-944 17 c0 -8 -5 -12 -10 -9 -6 4 -8 11 -5 16 9 14 15 11 15 -7z
m-110 -7 c0 -2 -12 -14 -27 -28 l-28 -24 24 28 c23 25 31 32 31 24z m1210 -10
c0 -2 -10 -12 -22 -23 l-23 -19 19 23 c18 21 26 27 26 19z m-822 -78 l-3 -44
-5 52 c-3 29 -1 48 3 44 5 -5 7 -28 5 -52z m929 29 c-3 -7 -5 -2 -5 12 0 14 2
19 5 13 2 -7 2 -19 0 -25z m363 7 c13 -14 21 -25 18 -25 -2 0 -15 11 -28 25
-13 14 -21 25 -18 25 2 0 15 -11 28 -25z m-1519 -102 c60 -56 119 -121 119
-130 0 -4 -18 10 -39 31 l-39 39 -5 -29 c-3 -22 -4 -20 -4 9 1 32 -6 44 -46
84 -26 25 -47 53 -46 62 0 12 2 11 8 -4 5 -11 28 -39 52 -62z m959 44 c0 -2
-10 -12 -21 -23 -22 -19 -22 -19 -8 4 12 19 29 30 29 19z m2088 -54 c2 -8 -5
-13 -17 -13 -12 0 -21 6 -21 16 0 18 31 15 38 -3z m-2643 -33 c10 -11 16 -20
13 -20 -3 0 -13 9 -23 20 -10 11 -16 20 -13 20 3 0 13 -9 23 -20z m-85 -9 c0
-6 -4 -13 -10 -16 -5 -3 -10 1 -10 9 0 9 5 16 10 16 6 0 10 -4 10 -9z m-1995
-61 c3 -5 2 -10 -4 -10 -5 0 -13 5 -16 10 -3 6 -2 10 4 10 5 0 13 -4 16 -10z
m1712 -47 c-3 -10 -5 -4 -5 12 0 17 2 24 5 18 2 -7 2 -21 0 -30z m1041 6 c-2
-6 -8 -10 -13 -10 -5 0 -11 4 -13 10 -2 6 4 11 13 11 9 0 15 -5 13 -11z m1130
-440 c171 -168 193 -191 77 -83 -88 82 -194 183 -237 224 l-77 76 -4 -136 c-1
-74 -3 -20 -3 120 0 140 2 205 3 143 l4 -112 237 -232z m-2808 398 c0 -2 -15
-16 -32 -33 l-33 -29 29 33 c28 30 36 37 36 29z m-885 -97 c-58 -59 -75 -70
-75 -50 0 6 6 10 13 10 7 0 35 23 62 50 27 28 52 50 54 50 3 0 -21 -27 -54
-60z m2325 29 c0 -5 -4 -9 -10 -9 -5 0 -10 7 -10 16 0 8 5 12 10 9 6 -3 10
-10 10 -16z m-1460 8 c0 -2 -12 -14 -27 -28 l-28 -24 24 28 c23 25 31 32 31
24z m-50 -11 c0 -2 -8 -10 -17 -17 -16 -13 -17 -12 -4 4 13 16 21 21 21 13z
m2535 -22 c9 -15 12 -23 6 -20 -11 7 -35 46 -28 46 3 0 12 -12 22 -26z m-3441
-91 c9 -21 -18 -3 -44 30 l-25 32 32 -25 c17 -14 34 -30 37 -37z m3517 0 c13
-16 12 -17 -3 -4 -10 7 -18 15 -18 17 0 8 8 3 21 -13z m-3551 -6 c0 -2 -17
-19 -37 -38 l-38 -34 34 38 c33 34 41 42 41 34z m5171 -44 c13 -16 12 -17 -3
-4 -10 7 -18 15 -18 17 0 8 8 3 21 -13z m-5271 -66 c0 -2 -10 -12 -22 -23
l-23 -19 19 23 c18 21 26 27 26 19z m1090 -1 c0 -2 -7 -7 -16 -10 -8 -3 -12
-2 -9 4 6 10 25 14 25 6z m-749 -33 c13 -16 12 -17 -3 -4 -17 13 -22 21 -14
21 2 0 10 -8 17 -17z m4080 -15 c6 -13 230 -243 498 -513 l486 -490 -495 490
c-272 270 -503 500 -513 513 -15 18 -15 22 -3 22 8 0 20 -10 27 -22z m-1481 2
c0 -5 -2 -10 -4 -10 -3 0 -8 5 -11 10 -3 6 -1 10 4 10 6 0 11 -4 11 -10z
m-3005 -30 c-16 -16 -30 -28 -33 -25 -4 4 47 55 56 55 3 0 -7 -13 -23 -30z
m685 -3 c0 -2 -17 -19 -37 -38 l-38 -34 34 38 c33 34 41 42 41 34z m3270 -32
c13 -14 21 -25 18 -25 -2 0 -15 11 -28 25 -13 14 -21 25 -18 25 2 0 15 -11 28
-25z m-4000 2 c0 -2 -10 -12 -22 -23 l-23 -19 19 23 c18 21 26 27 26 19z m865
-17 c10 -11 16 -20 13 -20 -3 0 -13 9 -23 20 -10 11 -16 20 -13 20 3 0 13 -9
23 -20z m3724 -102 c41 -43 70 -78 65 -78 -5 0 -44 37 -88 81 l-78 81 -66 -63
-67 -64 70 75 c57 62 72 73 80 61 6 -9 43 -51 84 -93z m1688 -90 c-1 -40 -3
-10 -3 67 0 77 1 110 3 73 2 -37 2 -100 0 -140z m-4452 172 c-3 -5 -10 -10
-16 -10 -5 0 -9 5 -9 10 0 6 7 10 16 10 8 0 12 -4 9 -10z m-1945 -85 c-41 -41
-77 -75 -79 -75 -3 0 28 34 69 75 41 41 77 75 79 75 3 0 -28 -34 -69 -75z
m1031 58 c13 -16 12 -17 -3 -4 -17 13 -22 21 -14 21 2 0 10 -8 17 -17z m2876
-105 c-2 -24 -4 -5 -4 42 0 47 2 66 4 43 2 -24 2 -62 0 -85z m-3137 62 c0 -5
-5 -10 -11 -10 -5 0 -7 5 -4 10 3 6 8 10 11 10 2 0 4 -4 4 -10z m3669 -96
c-31 -32 -32 -36 -16 -45 21 -12 22 -29 2 -29 -7 0 -18 -8 -24 -17 -11 -21
-21 -13 -39 32 -12 30 -12 30 5 8 13 -16 22 -20 33 -13 11 7 12 12 4 20 -9 9
-2 20 25 46 48 44 54 43 10 -2z m-2808 -5 c9 -17 7 -24 -11 -42 -17 -15 -27
-18 -39 -10 -18 11 -25 37 -17 59 8 22 54 17 67 -7z m-148 -4 c-3 -9 -8 -14
-10 -11 -3 3 -2 9 2 15 9 16 15 13 8 -4z m3490 -172 c193 -192 469 -470 477
-481 3 -4 -125 121 -283 277 -220 217 -290 282 -299 273 -19 -19 -30 -14 -18
8 10 18 5 26 -32 60 -23 22 -38 40 -33 40 5 0 89 -80 188 -177z m-3915 116 c2
-23 2 -23 -13 -5 -18 24 -20 39 -2 34 6 -3 13 -15 15 -29z m919 -21 c-2 -13
-4 -5 -4 17 -1 22 1 32 4 23 2 -10 2 -28 0 -40z m-541 6 c2 -24 1 -25 -18 -7
-18 16 -18 18 -1 24 10 4 18 8 18 8 0 1 1 -11 1 -25z m-1616 -7 c0 -2 -10 -12
-22 -23 l-23 -19 19 23 c18 21 26 27 26 19z m1491 -14 c13 -16 12 -17 -3 -4
-17 13 -22 21 -14 21 2 0 10 -8 17 -17z m1489 9 c0 -5 70 -80 155 -168 86 -87
166 -172 178 -189 12 -16 -62 55 -163 158 -102 104 -186 193 -188 198 -2 5 1
9 7 9 6 0 11 -4 11 -8z m1560 -3 c11 -8 12 -12 3 -16 -7 -2 -13 -12 -13 -20 0
-13 -3 -13 -15 -3 -13 11 -32 -3 -123 -90 -59 -56 -147 -144 -196 -194 -49
-50 -86 -84 -82 -76 8 15 396 406 406 408 3 1 12 -3 20 -9z m-1257 -120 c-4
-4 -6 15 -3 44 l5 52 3 -44 c2 -24 0 -47 -5 -52z m-1722 54 l24 -26 -27 19
c-15 10 -28 22 -28 27 0 12 5 8 31 -20z m4679 2 c7 -9 8 -15 2 -15 -5 0 -12 7
-16 15 -3 8 -4 15 -2 15 2 0 9 -7 16 -15z m-2054 -120 c-59 -58 -111 -105
-114 -105 -4 0 43 49 103 110 60 60 111 107 113 105 3 -2 -43 -52 -102 -110z
m676 -104 c121 -120 215 -222 210 -225 -5 -3 -18 7 -27 22 -9 15 -108 116
-219 224 -110 108 -197 197 -192 197 5 1 107 -98 228 -218z m-2705 -18 c-1
-43 -3 -8 -3 77 0 85 2 120 3 78 2 -43 2 -113 0 -155z m-1737 190 c0 -14 -15
-29 -32 -36 -22 -8 -23 1 -1 25 17 18 33 24 33 11z m-271 -39 c-14 -18 -24
-11 -15 11 3 9 11 13 16 10 8 -5 7 -11 -1 -21z m1402 -1 c13 -16 12 -17 -3 -4
-17 13 -22 21 -14 21 2 0 10 -8 17 -17z m238 -20 c-18 -21 -49 -53 -68 -71
l-34 -32 24 -28 23 -27 -24 22 -24 23 -56 -53 -55 -52 50 52 49 53 -39 40
c-21 22 -35 40 -31 40 5 0 22 -13 38 -30 15 -16 32 -30 36 -30 4 0 36 30 72
65 71 71 94 87 39 28z m1488 15 c-3 -8 -6 -5 -6 6 -1 11 2 17 5 13 3 -3 4 -12
1 -19z m-57 -12 c0 -2 -8 -10 -17 -17 -16 -13 -17 -12 -4 4 13 16 21 21 21 13z
m1350 -20 c0 -2 -53 -55 -117 -118 -65 -62 -178 -171 -252 -243 -73 -71 -132
-125 -130 -119 2 6 72 75 154 154 83 78 191 184 240 235 80 83 105 105 105 91z
m-1283 -98 c-3 -7 -5 -2 -5 12 0 14 2 19 5 13 2 -7 2 -19 0 -25z m-1727 8 c0
-7 -6 -19 -14 -25 -11 -9 -13 -6 -13 14 0 15 5 25 13 25 8 0 14 -6 14 -14z
m-1896 -15 c-10 -10 -23 -16 -27 -14 -5 3 0 11 10 19 27 20 39 17 17 -5z
m1856 9 c0 -5 -5 -10 -11 -10 -5 0 -7 5 -4 10 3 6 8 10 11 10 2 0 4 -4 4 -10z
m2540 -13 c0 -2 -17 -19 -37 -38 l-38 -34 34 38 c33 34 41 42 41 34z m-4359
-54 l34 -37 -37 30 c-20 16 -37 32 -37 37 -2 12 4 8 40 -30z m499 27 c0 -5 -2
-10 -4 -10 -3 0 -8 5 -11 10 -3 6 -1 10 4 10 6 0 11 -4 11 -10z m-629 -53
l-24 -22 19 27 c10 14 21 24 23 22 3 -3 -6 -15 -18 -27z m4402 -12 c-3 -9 -8
-14 -10 -11 -3 3 -2 9 2 15 9 16 15 13 8 -4z m-1816 -92 c-2 -21 -4 -6 -4 32
0 39 2 55 4 38 2 -18 2 -50 0 -70z m1943 74 c0 -2 -17 -19 -37 -38 l-38 -34
34 38 c33 34 41 42 41 34z m69 -38 c-19 -12 -24 -2 -8 17 9 11 14 13 17 4 3
-7 -2 -16 -9 -21z m-239 18 c0 -1 -26 -27 -57 -57 l-58 -55 55 58 c50 53 60
62 60 54z m-1845 -77 c-34 -35 -37 -41 -24 -57 13 -16 12 -17 -2 -5 -9 7 -25
9 -35 6 -11 -4 6 16 36 44 66 61 79 68 25 12z m1356 23 c13 -16 12 -17 -3 -4
-10 7 -18 15 -18 17 0 8 8 3 21 -13z m-2676 -63 c10 -11 16 -20 13 -20 -3 0
-13 9 -23 20 -10 11 -16 20 -13 20 3 0 13 -9 23 -20z m179 -18 c3 -5 -9 -19
-26 -32 l-31 -23 19 32 c19 32 29 38 38 23z m1056 -20 c0 -4 -17 -24 -37 -43
-33 -29 -34 -30 -10 -3 15 16 27 35 27 42 0 7 5 12 10 12 6 0 10 -4 10 -8z
m167 -44 c-3 -7 -5 -2 -5 12 0 14 2 19 5 13 2 -7 2 -19 0 -25z m353 23 c0 -5
-7 -12 -16 -15 -14 -5 -15 -4 -4 9 14 17 20 19 20 6z m3185 -11 c3 -5 4 -10 1
-10 -2 0 -12 -3 -20 -6 -12 -5 -15 -2 -10 10 7 18 20 21 29 6z m-2095 -135
c-74 -75 -155 -152 -180 -172 -25 -20 34 41 130 135 96 94 177 171 180 171 3
1 -56 -60 -130 -134z m2135 115 c10 -11 16 -20 13 -20 -3 0 -13 9 -23 20 -10
11 -16 20 -13 20 3 0 13 -9 23 -20z m-5065 -188 c-176 -174 -200 -202 -200
-230 0 -21 -6 -35 -20 -42 -23 -12 -40 -6 -40 15 0 8 88 101 197 207 108 106
207 205 221 221 14 15 29 27 34 27 4 0 -82 -89 -192 -198z m3170 165 c0 -2
-19 -21 -42 -42 l-43 -40 40 43 c36 39 45 47 45 39z m1980 -62 c14 -19 14 -19
-2 -6 -10 7 -18 18 -18 24 0 6 1 8 3 6 1 -2 9 -13 17 -24z m-2382 3 c-3 -7
-11 -13 -18 -13 -7 0 -15 6 -17 13 -3 7 4 12 17 12 13 0 20 -5 18 -12z m-4248
-23 c11 -13 10 -14 -4 -9 -9 3 -16 10 -16 15 0 13 6 11 20 -6z m4810 12 c0 -2
-17 -19 -37 -38 l-38 -34 34 38 c33 34 41 42 41 34z m1955 -127 c60 -60 107
-110 105 -110 -3 0 -55 50 -115 110 -60 61 -107 110 -105 110 3 0 55 -49 115
-110z m-3774 83 c13 -16 12 -17 -3 -4 -10 7 -18 15 -18 17 0 8 8 3 21 -13z
m-2931 -28 c19 -19 32 -35 29 -35 -3 0 -20 16 -39 35 -19 19 -32 35 -29 35 3
0 20 -16 39 -35z m3720 18 c0 -5 -11 -13 -24 -19 -23 -11 -24 -10 -13 7 12 19
37 26 37 12z m710 -42 c-11 -21 -30 -37 -30 -25 0 8 30 44 37 44 2 0 -1 -9 -7
-19z m240 16 c0 -2 -15 -16 -32 -33 l-33 -29 29 33 c28 30 36 37 36 29z
m-1000 -20 c0 -1 -24 -25 -52 -52 l-53 -50 50 53 c46 48 55 57 55 49z m-3595
-47 c10 -11 16 -20 13 -20 -3 0 -13 9 -23 20 -10 11 -16 20 -13 20 3 0 13 -9
23 -20z m6559 -17 c3 -10 9 -25 12 -33 4 -8 -5 -4 -20 9 -14 14 -26 28 -26 33
0 15 28 8 34 -9z m-4012 -25 c-9 -9 -12 -7 -12 12 0 19 3 21 12 12 9 -9 9 -15
0 -24z m454 -33 c-38 -36 -71 -65 -75 -65 -9 0 123 127 134 129 6 0 -21 -29
-59 -64z m-459 -87 c-2 -13 -4 -5 -4 17 -1 22 1 32 4 23 2 -10 2 -28 0 -40z
m-2116 -62 c-53 -54 -91 -99 -87 -105 4 -6 3 -11 -3 -11 -31 0 -12 30 76 115
54 52 100 95 103 95 2 0 -37 -42 -89 -94z m777 42 c-20 -29 -38 -34 -38 -10 0
24 8 32 33 32 18 0 18 -2 5 -22z m1702 12 c0 -5 -5 -10 -11 -10 -5 0 -7 5 -4
10 3 6 8 10 11 10 2 0 4 -4 4 -10z m1080 7 c0 -2 -12 -14 -27 -28 l-28 -24 24
28 c23 25 31 32 31 24z m-2060 -37 c13 -24 8 -36 -20 -43 -29 -7 -46 26 -24
47 21 21 31 20 44 -4z m-355 -1 c10 -14 1 -21 -19 -13 -9 3 -13 10 -10 15 7
12 21 11 29 -2z m1295 -12 c0 -2 -10 -12 -22 -23 l-23 -19 19 23 c18 21 26 27
26 19z m-1810 -25 c0 -11 -22 -32 -32 -32 -5 0 -4 9 2 20 11 20 30 28 30 12z
m2260 -15 c0 -1 -26 -27 -57 -57 l-58 -55 55 58 c50 53 60 62 60 54z m-2723
-64 c-3 -10 -5 -2 -5 17 0 19 2 27 5 18 2 -10 2 -26 0 -35z m2258 17 c10 -11
16 -20 13 -20 -3 0 -13 9 -23 20 -10 11 -16 20 -13 20 3 0 13 -9 23 -20z
m1188 -34 c6 -15 -1 -26 -15 -26 -4 0 -8 9 -8 20 0 23 15 27 23 6z m-1753 -11
c0 -8 -4 -15 -10 -15 -5 0 -10 7 -10 15 0 8 5 15 10 15 6 0 10 -7 10 -15z
m700 -100 c14 -19 14 -19 -2 -6 -10 7 -18 18 -18 24 0 6 1 8 3 6 1 -2 9 -13
17 -24z m60 -60 c19 -19 32 -35 29 -35 -3 0 -20 16 -39 35 -19 19 -32 35 -29
35 3 0 20 -16 39 -35z m-4265 -214 c-88 -88 -162 -157 -165 -154 -5 5 307 313
318 313 3 0 -66 -72 -153 -159z m1023 118 c9 -15 20 -19 35 -15 18 4 16 1 -8
-19 -52 -42 -72 -50 -90 -35 -21 17 -19 46 5 70 26 26 42 25 58 -1z m772 -22
c0 -2 -9 -14 -20 -27 -11 -13 -20 -19 -20 -15 0 5 7 17 17 27 15 17 23 22 23
15z m-335 -335 c-276 -273 -543 -532 -631 -612 -27 -24 52 57 176 181 247 247
712 699 720 699 3 0 -116 -121 -265 -268z m-570 188 c-27 -27 -54 -50 -59 -50
-6 0 12 23 39 50 27 28 54 50 59 50 6 0 -12 -22 -39 -50z m1009 -83 c16 -12
16 -14 -3 -31 -19 -18 -22 -18 -46 -2 -21 14 -24 20 -14 32 14 17 40 18 63 1z
m-2074 -41 c0 -3 -4 -8 -10 -11 -5 -3 -10 -1 -10 4 0 6 5 11 10 11 6 0 10 -2
10 -4z m-90 -80 c0 -2 -8 -10 -17 -17 -16 -13 -17 -12 -4 4 13 16 21 21 21 13z
m7180 -82 c0 -8 -4 -12 -10 -9 -5 3 -10 10 -10 16 0 5 5 9 10 9 6 0 10 -7 10
-16z m-2075 -54 c10 -11 16 -20 13 -20 -3 0 -13 9 -23 20 -10 11 -16 20 -13
20 3 0 13 -9 23 -20z m-4461 -151 c-36 -38 -274 -273 -280 -276 -13 -8 19 26
148 158 79 80 147 147 152 147 6 1 -3 -12 -20 -29z m3086 22 c0 -12 -20 -25
-27 -18 -7 7 6 27 18 27 5 0 9 -4 9 -9z m644 -18 c4 -9 1 -20 -6 -25 -20 -12
-28 -10 -28 8 0 8 4 12 10 9 6 -3 7 1 4 9 -3 9 -2 16 4 16 5 0 13 -8 16 -17z
m-312 -320 c-149 -153 -326 -332 -393 -398 -68 -66 28 34 212 223 184 188 358
369 388 402 30 33 56 58 59 55 3 -2 -117 -130 -266 -282z m-2455 245 c-3 -8
-6 -5 -6 6 -1 11 2 17 5 13 3 -3 4 -12 1 -19z m1861 -6 c2 -7 -2 -12 -10 -12
-7 0 -127 -114 -267 -252 -139 -139 -250 -246 -245 -238 4 8 114 121 243 252
129 130 239 244 244 253 9 18 28 16 35 -3z m-3142 -240 l-29 -27 23 32 c13 18
26 30 29 28 3 -3 -8 -18 -23 -33z m4224 -16 c0 -3 -4 -8 -10 -11 -5 -3 -10 -1
-10 4 0 6 5 11 10 11 6 0 10 -2 10 -4z m-3540 -61 c-7 -8 -17 -15 -23 -15 -6
0 -2 7 9 15 25 19 30 19 14 0z m1920 -208 c0 -2 -12 -14 -27 -28 l-28 -24 24
28 c23 25 31 32 31 24z m-2988 -59 c-7 -7 -12 -8 -12 -2 0 14 12 26 19 19 2
-3 -1 -11 -7 -17z m-68 -68 c-27 -27 -53 -50 -59 -50 -5 0 15 25 45 55 29 30
56 52 59 50 2 -3 -18 -28 -45 -55z m-134 -13 c0 -1 -23 -25 -52 -52 -29 -28
-45 -41 -37 -30 21 30 89 92 89 82z m70 -51 c0 -2 -7 -7 -16 -10 -8 -3 -12 -2
-9 4 6 10 25 14 25 6z"/>
<path d="M8826 9057 l-519 -512 32 -38 c18 -20 37 -37 43 -37 5 0 194 182 421
405 226 223 414 405 418 405 4 0 -45 -51 -109 -112 -64 -62 -254 -249 -422
-415 l-304 -302 24 -26 c13 -14 28 -25 34 -25 6 0 83 72 171 161 88 88 318
312 510 497 193 185 354 342 359 350 6 10 -1 23 -21 43 l-29 29 -97 -96 c-54
-54 -99 -95 -102 -93 -2 3 39 47 91 98 51 51 94 96 94 100 0 4 -17 23 -37 43
l-38 37 -519 -512z"/>
<path d="M9415 9212 c-142 -139 -497 -481 -775 -747 -69 -66 -127 -124 -129
-128 -2 -5 18 -31 45 -58 38 -38 45 -52 36 -61 -9 -9 -12 -9 -12 0 0 18 -90
107 -106 104 -8 -2 -12 3 -8 12 3 8 0 17 -6 21 -7 5 -84 -63 -199 -176 -279
-274 -404 -394 -421 -404 -8 -5 10 19 40 51 200 218 245 264 255 264 6 0 77
67 157 149 l146 149 -27 26 c-34 32 -38 32 -75 -1 -29 -26 -28 -25 2 9 l34 36
-39 40 -39 40 -115 -113 c-87 -85 -113 -117 -105 -126 8 -8 6 -10 -10 -5 -17
5 -32 -4 -67 -40 -26 -26 -44 -51 -40 -57 3 -6 2 -7 -4 -4 -5 3 -64 -47 -131
-112 -66 -65 -139 -133 -161 -152 l-40 -34 60 -62 c34 -35 68 -63 76 -63 9 0
51 32 94 71 44 40 82 70 85 67 2 -3 -33 -40 -78 -83 -78 -72 -81 -78 -63 -91
15 -12 21 -12 34 0 9 7 23 16 31 20 8 4 3 -2 -12 -14 -16 -12 -28 -25 -28 -29
0 -11 198 -206 209 -206 10 0 88 75 856 830 275 270 582 569 683 664 100 95
182 175 182 176 0 4 -118 122 -161 162 l-24 21 -150 -146z m-1215 -1046 c0 -3
-4 -8 -10 -11 -5 -3 -10 -1 -10 4 0 6 5 11 10 11 6 0 10 -2 10 -4z m-133 -216
c-32 -46 -150 -171 -170 -181 -13 -6 -5 6 18 28 22 21 67 71 99 111 32 40 61
70 63 68 3 -3 -2 -14 -10 -26z m63 27 c0 -2 -15 -16 -32 -33 l-33 -29 29 33
c28 30 36 37 36 29z m165 -77 c10 -11 15 -20 12 -20 -4 0 -16 9 -27 20 -11 11
-16 20 -12 20 5 0 17 -9 27 -20z m-245 -4 c0 -2 -8 -10 -17 -17 -16 -13 -17
-12 -4 4 13 16 21 21 21 13z"/>
<path d="M7160 8995 c13 -14 26 -25 28 -25 3 0 -5 11 -18 25 -13 14 -26 25
-28 25 -3 0 5 -11 18 -25z"/>
<path d="M7378 8039 c2 -52 7 -97 11 -101 4 -5 26 11 49 35 l42 42 -53 59 -52
58 3 -93z"/>
<path d="M7170 7700 c-102 -99 -184 -184 -183 -189 1 -5 -26 -33 -60 -62 -112
-94 -127 -115 -127 -184 0 -68 8 -107 21 -103 5 2 128 120 273 262 l265 259 6
51 c4 28 3 72 -2 98 l-8 46 -185 -178z m164 118 c-11 -20 -47 -58 -54 -58 -7
0 52 70 58 70 2 0 0 -6 -4 -12z m-4 -71 c0 -2 -10 -12 -22 -23 l-23 -19 19 23
c18 21 26 27 26 19z m-200 -110 c0 -2 -15 -16 -32 -33 l-33 -29 29 33 c28 30
36 37 36 29z m-80 -80 c0 -2 -12 -14 -27 -28 l-28 -24 24 28 c23 25 31 32 31
24z m-66 -182 c-4 -8 -11 -15 -16 -15 -6 0 -5 6 2 15 7 8 14 15 16 15 2 0 1
-7 -2 -15z"/>
<path d="M7497 7762 l-117 -117 1 -100 c0 -55 3 -103 6 -108 2 -4 34 23 71 59
37 37 91 82 120 101 29 18 68 48 86 66 18 17 42 37 52 43 10 6 20 21 20 33 1
23 -33 54 -49 44 -6 -3 -7 -1 -3 6 4 6 -9 28 -31 51 l-38 40 -118 -118z m-47
-156 c0 -2 -7 -7 -16 -10 -8 -3 -12 -2 -9 4 6 10 25 14 25 6z"/>
<path d="M5680 7799 c-14 -11 -90 -84 -169 -162 l-143 -142 6 -85 c3 -47 6
-383 7 -748 0 -367 4 -662 9 -660 5 2 32 25 62 53 183 171 281 266 606 588
l364 359 -8 75 c-5 55 -4 74 5 69 6 -4 11 -32 11 -62 0 -41 4 -54 15 -54 8 0
19 9 25 20 6 11 16 20 22 20 7 0 -1 -13 -17 -30 -16 -16 -26 -32 -24 -35 3 -3
18 8 33 24 l28 30 -21 30 c-12 17 -38 43 -58 60 l-35 29 -145 -141 c-79 -78
-148 -143 -152 -145 -4 -1 60 65 143 147 l151 151 -299 292 c-164 161 -310
300 -324 310 -14 9 -31 14 -38 11 -8 -3 -14 0 -14 6 0 16 -12 13 -40 -10z
m320 -1014 c-41 -41 -76 -72 -78 -70 -5 5 136 145 146 145 4 0 -27 -34 -68
-75z m-90 -88 c0 -2 -10 -12 -22 -23 l-23 -19 19 23 c18 21 26 27 26 19z
m-400 -391 c0 -2 -8 -10 -17 -17 -16 -13 -17 -12 -4 4 13 16 21 21 21 13z
m-51 -58 c-13 -24 -51 -59 -58 -53 -5 6 52 73 62 74 4 1 2 -9 -4 -21z"/>
<path d="M7700 7667 c-31 -28 -76 -68 -100 -88 -45 -36 -45 -37 -26 -58 11
-11 22 -21 25 -21 3 0 51 42 106 94 88 82 98 95 86 110 -20 24 -31 20 -91 -37z
m50 -1 c0 -2 -8 -10 -17 -17 -16 -13 -17 -12 -4 4 13 16 21 21 21 13z m-70
-49 c0 -2 -10 -12 -22 -23 l-23 -19 19 23 c18 21 26 27 26 19z m-50 -41 c0 -2
-8 -10 -17 -17 -16 -13 -17 -12 -4 4 13 16 21 21 21 13z"/>
<path d="M7713 7586 l-103 -101 66 -66 c36 -37 59 -66 50 -66 -8 0 -14 4 -13
8 3 11 -105 109 -119 109 -13 0 -129 -111 -181 -173 l-33 -39 0 -193 0 -192
188 181 c103 99 246 238 317 308 l130 128 -100 99 -100 99 -102 -102z m-159
-191 c-15 -23 -34 -33 -34 -18 0 10 32 43 42 43 5 0 1 -11 -8 -25z m-44 -29
c0 -2 -8 -10 -17 -17 -16 -13 -17 -12 -4 4 13 16 21 21 21 13z"/>
<path d="M7342 7617 c-7 -8 -8 -18 -4 -22 4 -5 2 -6 -3 -2 -6 3 -37 -17 -69
-44 -32 -27 -54 -49 -50 -49 8 0 64 42 88 66 9 8 16 11 16 5 0 -10 -113 -101
-125 -101 -3 0 -3 6 1 13 4 6 -2 3 -14 -7 -26 -23 -29 -34 -4 -15 9 7 6 1 -7
-14 -14 -15 -29 -27 -35 -27 -16 0 -158 -145 -151 -152 4 -3 -15 -26 -41 -50
-26 -23 -56 -52 -66 -62 -11 -12 -18 -15 -18 -7 0 7 -5 9 -11 6 -6 -4 -8 -13
-5 -21 3 -7 0 -16 -6 -20 -7 -4 -8 -3 -4 4 4 7 5 12 2 12 -26 0 -48 -165 -26
-200 11 -18 12 -18 230 197 91 89 179 172 195 184 17 12 45 36 63 53 17 16 32
26 32 20 0 -5 7 4 15 19 14 28 25 210 13 222 -3 3 -10 -1 -16 -8z m-22 -201
c0 -2 -8 -10 -17 -17 -16 -13 -17 -12 -4 4 13 16 21 21 21 13z"/>
<path d="M7457 7462 c-73 -76 -77 -82 -77 -126 0 -25 3 -46 8 -46 4 0 23 19
42 43 19 23 61 67 93 98 l59 56 -24 27 -23 27 -78 -79z"/>
<path d="M6739 7489 c-47 -57 -51 -74 -44 -153 l7 -68 41 40 c38 38 40 44 45
115 2 41 0 82 -5 91 -8 15 -14 11 -44 -25z"/>
<path d="M5169 7312 c-278 -266 -709 -675 -753 -716 -31 -28 -37 -39 -28 -48
7 -7 12 -17 12 -22 0 -6 -7 -2 -15 8 -14 19 -22 13 -162 -125 -82 -79 -149
-147 -151 -152 -4 -7 297 -305 351 -347 l28 -22 26 23 26 24 -17 -33 c-16 -31
-16 -33 4 -60 21 -28 617 -615 629 -620 4 -1 31 19 60 46 l52 49 -38 51 c-21
28 -50 60 -65 71 l-26 21 -52 -50 c-29 -28 -56 -48 -59 -44 -3 3 18 27 47 53
28 26 52 50 52 54 0 3 -12 18 -27 33 l-28 26 28 -17 c15 -10 27 -21 27 -26 0
-22 31 -3 100 61 l74 70 -39 40 c-21 22 -45 40 -53 40 -7 0 -11 3 -9 8 3 4 -1
12 -8 19 -10 10 -29 -1 -89 -53 -42 -35 -76 -68 -76 -71 0 -4 12 -21 28 -37
25 -28 25 -29 2 -11 -14 11 -28 24 -32 29 -3 5 -35 -15 -70 -44 -34 -29 -1 7
75 80 l138 134 -253 255 c-251 253 -296 305 -103 120 150 -144 355 -333 371
-342 8 -5 14 -4 14 3 0 7 -58 68 -130 137 -71 69 -130 130 -130 136 0 6 35
-23 78 -65 133 -129 198 -188 208 -188 5 0 44 35 87 78 l77 78 0 124 c0 69 2
412 5 763 3 350 5 637 3 637 -2 0 -86 -80 -189 -178z m-718 -839 c13 -16 12
-17 -3 -4 -10 7 -18 15 -18 17 0 8 8 3 21 -13z m879 -348 c-7 -9 -23 -21 -34
-27 -16 -8 -14 -3 8 21 29 31 51 36 26 6z m-485 -5 c10 -11 16 -20 13 -20 -3
0 -13 9 -23 20 -10 11 -16 20 -13 20 3 0 13 -9 23 -20z m255 -792 c0 -6 -6 -5
-15 2 -8 7 -15 14 -15 16 0 2 7 1 15 -2 8 -4 15 -11 15 -16z m50 -40 c0 -15
-15 -8 -28 12 -12 19 -11 20 8 8 11 -7 20 -16 20 -20z"/>
<path d="M6640 7403 c0 -13 -124 -138 -143 -146 -35 -13 -31 -38 11 -80 l42
-42 55 55 55 54 0 78 c0 42 -4 80 -10 83 -5 3 -10 3 -10 -2z"/>
<path d="M7295 7306 c-27 -27 -49 -53 -47 -58 1 -5 -2 -7 -7 -3 -6 3 -15 -4
-21 -15 -6 -11 -15 -18 -19 -15 -5 2 -15 -3 -22 -13 -13 -15 -12 -16 4 -3 10
8 17 9 17 3 0 -11 -52 -52 -66 -52 -4 0 1 10 12 22 28 33 -46 -31 -159 -138
-54 -51 -92 -92 -84 -90 8 1 50 39 93 85 72 75 169 159 122 105 -50 -58 -207
-212 -231 -227 -15 -10 -33 -15 -40 -11 -7 4 -9 4 -5 -1 4 -4 3 -13 -2 -20
-10 -12 13 -55 29 -55 17 0 200 167 342 313 128 131 149 156 149 184 0 17 -3
33 -7 35 -5 2 -30 -19 -58 -46z"/>
<path d="M6530 7315 c-18 -19 -31 -37 -29 -40 3 -2 21 11 39 30 18 19 31 37
29 40 -3 2 -21 -11 -39 -30z"/>
<path d="M6754 7292 c-50 -42 -61 -70 -63 -147 -2 -95 6 -104 55 -61 l39 34 2
101 c1 55 1 101 0 101 -1 0 -16 -13 -33 -28z m-11 -62 c-6 -22 -21 -35 -29
-27 -7 7 15 47 25 47 5 0 7 -9 4 -20z"/>
<path d="M7210 7114 c-74 -74 -179 -173 -232 -221 l-98 -87 51 -52 c29 -29 47
-54 41 -58 -6 -4 -14 0 -19 7 -4 7 -43 46 -85 86 -65 61 -80 71 -93 61 -13
-10 -13 -14 0 -27 8 -8 19 -11 25 -8 5 3 10 -1 10 -10 0 -19 13 -36 68 -88 44
-43 51 -57 28 -57 -8 0 -32 20 -53 45 l-38 44 -41 -39 c-23 -21 -40 -41 -37
-43 2 -3 -2 -4 -10 -4 -15 2 -262 -216 -277 -243 -4 -8 -5 -107 -3 -220 l5
-205 83 80 c172 166 432 413 490 465 33 29 102 93 153 142 l92 90 1 56 c1 31
3 46 6 32 11 -73 12 -74 34 -54 45 40 49 64 49 259 0 102 -3 185 -7 184 -5 -1
-69 -61 -143 -135z m73 -18 c-27 -34 -43 -38 -43 -10 0 8 8 14 19 14 10 0 24
7 31 15 26 31 20 14 -7 -19z m-623 -512 c0 -8 -5 -12 -10 -9 -6 4 -8 11 -5 16
9 14 15 11 15 -7z m-25 -254 c-24 -27 -40 -25 -43 5 -2 31 26 49 46 28 12 -12
12 -16 -3 -33z"/>
<path d="M6435 7200 c-9 -14 10 -43 50 -79 35 -30 55 -33 55 -8 0 11 -83 97
-94 97 -3 0 -8 -4 -11 -10z"/>
<path d="M6608 7163 c-41 -43 -42 -40 30 -108 39 -36 62 -37 26 0 -13 13 -15
28 -9 80 3 36 3 65 -2 65 -5 0 -25 -17 -45 -37z"/>
<path d="M6540 7086 c0 -18 90 -116 107 -116 25 0 13 31 -33 80 -46 49 -74 63
-74 36z"/>
<path d="M6747 7025 l-28 -35 31 -45 c33 -48 55 -60 41 -22 -4 12 -6 38 -4 57
3 19 1 45 -4 57 -8 22 -9 22 -36 -12z"/>
<path d="M6480 7013 l-40 -41 0 -103 0 -104 89 89 c100 99 99 95 32 160 l-40
39 -41 -40z"/>
<path d="M6360 6908 c-36 -35 -122 -117 -190 -183 -69 -66 -210 -203 -315
-305 -104 -102 -253 -246 -330 -320 l-140 -135 2 -113 c1 -62 5 -117 8 -123 7
-11 970 943 1011 1002 23 34 25 43 22 138 l-3 102 -65 -63z m-29 -145 c-12
-20 -14 -14 -5 12 4 9 9 14 11 11 3 -2 0 -13 -6 -23z m-922 -1017 c-9 -8 -10
-7 -5 7 3 10 7 31 8 45 1 22 2 21 5 -7 3 -19 -1 -38 -8 -45z"/>
<path d="M6667 6956 c-4 -10 -1 -13 9 -9 10 4 15 0 14 -8 -4 -28 0 -38 20 -44
11 -3 20 -13 20 -21 0 -18 29 -18 36 0 3 9 -12 31 -36 55 -46 45 -55 48 -63
27z"/>
<path d="M6599 6893 l-24 -28 28 24 c15 14 27 26 27 28 0 8 -8 1 -31 -24z"/>
<path d="M6618 6878 c-13 -16 -56 -62 -96 -102 -67 -64 -74 -76 -79 -117 -3
-26 -1 -54 4 -64 8 -14 27 0 126 95 64 62 114 117 110 123 -3 5 -1 7 4 4 6 -4
16 -1 22 7 8 10 4 18 -19 36 -16 12 -27 26 -25 30 3 4 -2 10 -10 13 -9 4 -23
-6 -37 -25z"/>
<path d="M6530 6827 c-8 -7 -26 -25 -40 -41 l-25 -29 28 18 c15 9 27 21 27 26
0 5 5 8 11 7 6 -2 13 5 14 15 4 20 4 20 -15 4z"/>
<path d="M6709 6790 c-12 -16 -60 -61 -105 -101 -46 -39 -82 -75 -79 -79 6 -9
-20 -32 -27 -24 -3 2 -17 -9 -32 -26 -24 -29 -37 -96 -21 -112 3 -2 51 42 107
99 122 123 109 108 112 125 1 7 7 22 14 33 13 19 13 19 7 -2 -3 -13 -8 -33
-11 -45 -5 -16 10 -7 60 37 l67 58 -33 34 c-17 18 -33 33 -35 33 -1 0 -12 -13
-24 -30z"/>
<path d="M6370 6665 c-19 -19 -30 -35 -24 -35 10 1 74 56 74 65 0 13 -19 2
-50 -30z"/>
<path d="M3572 6647 c-22 -24 -22 -24 -2 -42 25 -23 50 -6 47 32 -3 35 -18 38
-45 10z"/>
<path d="M6380 6635 c-13 -14 -29 -24 -36 -21 -6 2 -33 -18 -60 -46 -30 -31
-41 -48 -29 -44 11 4 -23 -37 -76 -91 -53 -54 -106 -109 -119 -123 -12 -14
-21 -20 -19 -13 2 7 48 57 103 113 54 55 95 104 91 108 -3 4 -16 -4 -27 -18
-10 -14 -182 -189 -381 -389 -199 -200 -352 -358 -339 -351 23 11 23 11 11
-12 -7 -13 -21 -34 -31 -49 -14 -18 -17 -31 -10 -48 8 -22 11 -21 82 45 122
113 471 448 688 660 l204 199 -4 49 c-4 58 -15 66 -48 31z m-80 -90 c-7 -9
-15 -13 -17 -11 -7 7 7 26 19 26 6 0 6 -6 -2 -15z m-281 -278 c-2 -1 -13 -9
-24 -17 -19 -14 -19 -14 -6 3 7 9 18 17 24 17 6 0 8 -1 6 -3z"/>
<path d="M3620 6604 l-24 -24 39 -40 39 -40 22 21 22 21 -26 30 c-21 23 -28
26 -30 14 -2 -9 -8 -16 -13 -16 -6 0 -5 9 2 21 17 32 -3 40 -31 13z"/>
<path d="M6295 6392 c-67 -64 -263 -256 -438 -426 -174 -169 -317 -314 -317
-322 0 -8 -6 -14 -14 -14 -8 0 -17 -7 -20 -16 -3 -8 -2 -12 3 -9 5 3 12 1 16
-5 3 -5 10 -10 14 -10 18 0 96 72 321 293 130 128 309 303 398 389 162 157
163 158 160 198 l-3 39 -120 -117z"/>
<path d="M6229 6223 c-401 -385 -650 -639 -653 -666 -2 -18 1 -24 10 -20 13 5
19 -14 15 -40 -2 -13 81 36 86 51 3 6 11 12 17 12 7 0 22 9 34 20 12 12 22 17
22 12 0 -4 -25 -30 -56 -56 -50 -44 -54 -50 -40 -64 13 -13 18 -13 42 2 14 10
63 52 108 94 l81 76 -70 -74 c-38 -40 -79 -83 -90 -94 -11 -12 -27 -30 -35
-41 -12 -17 -10 -16 11 3 14 12 28 19 32 16 4 -4 -1 -13 -11 -21 -15 -13 -15
-13 5 -3 12 5 20 16 17 23 -3 8 4 13 17 14 22 2 20 -4 -24 -54 -16 -18 -18
-25 -8 -37 13 -15 45 -11 35 5 -3 5 2 6 10 3 9 -3 16 -1 16 6 0 6 5 8 10 5 10
-6 59 39 385 356 66 64 145 139 175 167 l55 50 3 216 c2 119 -1 216 -5 216 -5
0 -92 -80 -194 -177z m-349 -717 c0 -2 -8 -10 -17 -17 -16 -13 -17 -12 -4 4
13 16 21 21 21 13z m-60 -10 c0 -3 -4 -8 -10 -11 -5 -3 -10 -1 -10 4 0 6 5 11
10 11 6 0 10 -2 10 -4z m-20 -59 c0 -2 -10 -12 -22 -23 l-23 -19 19 23 c18 21
26 27 26 19z"/>
<path d="M4018 6216 c-22 -26 -25 -36 -15 -46 10 -12 9 -12 -5 -1 -14 10 -22
9 -47 -10 -17 -13 -31 -25 -31 -29 0 -3 69 -74 153 -158 110 -110 158 -151
169 -147 28 11 28 33 1 55 -14 11 -21 20 -16 20 6 0 16 -7 23 -15 7 -8 17 -15
23 -15 6 0 -2 14 -19 32 l-29 32 38 -28 37 -27 30 21 c17 12 30 26 30 31 0 11
-301 320 -310 318 -3 0 -17 -15 -32 -33z m-33 -66 c3 -6 -1 -7 -9 -4 -18 7
-21 14 -7 14 6 0 13 -4 16 -10z m36 -37 c13 -16 12 -17 -3 -4 -10 7 -18 15
-18 17 0 8 8 3 21 -13z m139 -108 c35 -36 62 -65 59 -65 -2 0 -34 29 -69 65
-35 36 -62 65 -59 65 2 0 34 -29 69 -65z m-55 15 c10 -11 16 -20 13 -20 -3 0
-13 9 -23 20 -10 11 -16 20 -13 20 3 0 13 -9 23 -20z m85 -85 c13 -14 21 -25
18 -25 -2 0 -15 11 -28 25 -13 14 -21 25 -18 25 2 0 15 -11 28 -25z"/>
<path d="M5271 5864 l-73 -70 62 -52 c57 -48 90 -66 75 -42 -4 6 -2 17 5 25 7
8 10 41 9 78 -1 35 0 68 3 73 2 5 2 20 -1 34 -6 24 -9 22 -80 -46z"/>
<path d="M4338 5886 c-25 -30 -26 -34 -12 -54 19 -28 44 -28 78 -1 32 25 33
39 3 67 -30 28 -37 27 -69 -12z"/>
<path d="M6389 5893 c-14 -15 -62 -61 -105 -102 -198 -186 -379 -367 -379
-378 0 -6 -20 -32 -45 -57 -25 -25 -45 -50 -45 -56 0 -6 -7 -15 -15 -20 -8 -5
-10 -10 -4 -10 6 0 17 7 24 15 7 9 15 13 17 11 3 -3 15 4 27 15 42 40 62 42
26 3 -19 -22 -49 -54 -65 -73 l-30 -34 28 18 c17 11 27 13 27 6 0 -12 38 20
165 141 171 162 195 186 195 196 0 5 -17 24 -37 40 -21 17 -35 33 -31 37 4 4
21 -9 38 -29 18 -20 37 -36 42 -36 5 0 54 41 109 91 l99 92 -1 61 c0 33 -4 69
-8 79 -6 16 -9 15 -32 -10z m-509 -627 c0 -2 -8 -10 -17 -17 -16 -13 -17 -12
-4 4 13 16 21 21 21 13z"/>
<path d="M4272 5827 c-28 -29 -28 -38 1 -65 23 -22 53 -31 42 -12 -3 6 -1 10
6 10 7 0 9 3 6 7 -4 3 -2 12 5 20 9 11 6 19 -13 39 l-25 25 -22 -24z"/>
<path d="M4418 5817 l-28 -31 48 -51 c30 -32 35 -39 12 -19 -56 49 -68 56 -80
49 -8 -5 -5 -12 7 -22 16 -13 16 -13 -5 -3 -20 10 -26 8 -37 -7 -12 -16 4 -35
173 -198 102 -99 190 -179 195 -177 4 1 6 -2 2 -8 -10 -16 11 -12 25 5 6 8 9
19 5 24 -3 6 0 9 7 6 7 -3 33 15 57 39 l44 45 -192 188 c-106 103 -195 189
-199 190 -4 1 -19 -12 -34 -30z m27 -147 c3 -6 -1 -7 -9 -4 -18 7 -21 14 -7
14 6 0 13 -4 16 -10z m70 -20 c10 -11 16 -20 13 -20 -3 0 -13 9 -23 20 -10 11
-16 20 -13 20 3 0 13 -9 23 -20z m-25 -15 c13 -14 21 -25 18 -25 -2 0 -15 11
-28 25 -13 14 -21 25 -18 25 2 0 15 -11 28 -25z m130 -91 c0 -10 -36 16 -60
42 -23 26 -22 25 18 -5 23 -18 42 -35 42 -37z m65 -105 c29 -31 21 -27 -25 16
-90 81 -102 94 -55 58 22 -17 58 -51 80 -74z m60 -19 c10 -11 16 -20 13 -20
-3 0 -13 9 -23 20 -10 11 -16 20 -13 20 3 0 13 -9 23 -20z"/>
<path d="M4170 5728 c-30 -28 -48 -48 -39 -45 9 3 -44 -53 -117 -125 l-134
-131 22 -24 c21 -22 22 -22 42 -5 20 17 20 17 0 -10 -19 -26 -19 -26 -39 -7
-21 19 -22 18 -224 -181 -183 -180 -202 -202 -190 -218 13 -16 12 -16 -4 -3
-17 14 -26 8 -103 -71 -85 -86 -122 -114 -110 -82 3 8 6 18 6 20 0 3 5 2 11
-1 6 -4 54 37 107 91 53 55 181 181 285 282 168 164 186 185 176 204 -10 18
-27 4 -207 -174 -109 -106 -252 -247 -319 -312 l-123 -119 50 -51 50 -51 403
405 c221 223 442 448 489 500 l86 95 -22 29 c-13 17 -27 31 -32 32 -5 2 -34
-20 -64 -48z m18 -87 c-7 -11 -16 -17 -20 -15 -4 3 -8 0 -8 -6 0 -6 -5 -8 -11
-4 -7 4 0 14 18 25 35 23 36 23 21 0z m-78 -55 c0 -2 -8 -10 -17 -17 -16 -13
-17 -12 -4 4 13 16 21 21 21 13z m33 -8 c-3 -7 -45 -49 -92 -93 l-86 -80 90
93 c49 50 91 92 92 92 1 0 0 -6 -4 -12z m-73 -32 c0 -2 -8 -10 -17 -17 -16
-13 -17 -12 -4 4 13 16 21 21 21 13z m-270 -180 c0 -2 -8 -10 -17 -17 -16 -13
-17 -12 -4 4 13 16 21 21 21 13z"/>
<path d="M5446 5724 c-5 -14 -4 -15 9 -4 17 14 19 20 6 20 -5 0 -12 -7 -15
-16z"/>
<path d="M6325 5645 l-90 -83 50 -53 c69 -73 66 -72 104 -36 23 22 30 26 23
11 -6 -11 -18 -26 -26 -34 -9 -7 -16 -16 -16 -19 0 -10 59 -76 62 -70 7 10 -4
369 -10 369 -4 0 -47 -38 -97 -85z"/>
<path d="M4262 5654 c-24 -26 -41 -50 -40 -55 4 -11 79 -90 313 -329 215 -220
338 -352 417 -450 82 -102 61 -93 -27 12 -16 19 -56 63 -88 98 l-58 62 -112
-108 c-62 -60 -112 -117 -111 -126 0 -9 -3 -15 -7 -12 -4 2 -85 -71 -179 -163
-94 -93 -175 -169 -178 -171 -4 -1 125 131 285 294 l293 297 -68 75 c-77 87
-481 506 -491 510 -3 1 -60 -52 -126 -118 l-119 -119 20 -22 19 -22 -25 16
-25 16 -264 -260 c-235 -232 -262 -261 -250 -277 11 -14 11 -15 -1 -4 -21 18
-24 17 -74 -42 l-46 -54 137 -141 c75 -78 152 -160 171 -181 19 -22 37 -40 41
-40 3 0 33 25 66 55 49 45 57 57 45 65 -8 5 -10 10 -5 10 6 0 16 -4 24 -9 11
-7 7 -15 -20 -39 -19 -17 -49 -44 -68 -61 l-35 -31 154 -155 154 -155 68 70
c37 38 68 72 68 75 0 10 43 65 51 65 18 0 18 -36 -1 -62 -11 -15 -16 -28 -10
-28 5 0 10 -5 10 -11 0 -8 -5 -7 -16 2 -13 11 -24 3 -79 -57 -35 -38 -64 -72
-65 -75 0 -3 140 -148 311 -323 l311 -316 44 42 c24 24 49 43 54 43 6 0 9 3 8
6 -5 13 35 49 46 42 6 -3 8 -2 3 2 -4 5 9 25 29 46 20 20 35 42 33 47 -2 6
-84 92 -182 192 -158 161 -180 180 -195 168 -31 -24 8 21 62 71 186 174 703
681 648 636 -20 -16 -22 -17 -16 -2 4 11 0 19 -10 23 -9 3 -13 10 -10 16 3 5
12 7 20 4 24 -9 15 7 -32 58 -35 38 -47 46 -58 37 -10 -8 -16 -8 -25 3 -8 10
-9 16 -1 21 5 3 10 1 10 -5 0 -6 4 -9 9 -6 9 6 -29 47 -120 132 -55 51 -116
120 -130 145 -5 10 -14 19 -20 19 -6 0 -3 -7 5 -16 9 -8 16 -18 16 -20 0 -12
-61 41 -136 118 -122 126 -169 184 -74 91 47 -46 96 -91 109 -100 l25 -17 -17
25 c-10 13 -63 71 -120 128 -56 58 -91 97 -77 88 14 -9 44 -37 68 -62 27 -29
49 -44 58 -41 9 4 12 2 8 -5 -7 -12 83 -109 102 -109 7 0 14 7 18 15 3 8 1 15
-5 15 -6 0 -7 5 -3 12 4 7 3 8 -4 4 -6 -4 -19 6 -29 21 -9 15 -29 40 -44 55
-15 14 -25 28 -23 30 2 2 -24 31 -58 64 -34 32 -55 50 -47 39 8 -11 19 -23 24
-27 6 -5 5 -8 -2 -8 -7 0 -18 10 -25 23 -12 22 -14 28 -17 47 0 6 -8 10 -17 8
-10 -2 -18 4 -19 14 -3 14 -184 198 -204 206 -4 1 -26 -19 -49 -44z m159 -141
c13 -16 12 -17 -3 -4 -10 7 -18 15 -18 17 0 8 8 3 21 -13z m40 -40 c13 -16 12
-17 -3 -4 -17 13 -22 21 -14 21 2 0 10 -8 17 -17z m14 -63 c27 -27 47 -50 44
-50 -3 0 -27 23 -54 50 -27 28 -47 50 -44 50 3 0 27 -22 54 -50z m25 25 c7 -9
8 -15 2 -15 -5 0 -12 7 -16 15 -3 8 -4 15 -2 15 2 0 9 -7 16 -15z m-440 -180
c13 -14 21 -25 18 -25 -2 0 -15 11 -28 25 -13 14 -21 25 -18 25 2 0 15 -11 28
-25z m155 -165 c10 -11 16 -20 13 -20 -3 0 -13 9 -23 20 -10 11 -16 20 -13 20
3 0 13 -9 23 -20z m56 -57 c13 -16 12 -17 -3 -4 -17 13 -22 21 -14 21 2 0 10
-8 17 -17z m60 -70 c13 -16 12 -17 -3 -4 -10 7 -18 15 -18 17 0 8 8 3 21 -13z
m70 -70 c13 -16 12 -17 -3 -4 -17 13 -22 21 -14 21 2 0 10 -8 17 -17z m73 -70
c51 -57 41 -55 -14 3 -25 26 -40 45 -34 43 5 -2 27 -23 48 -46z m561 7 c3 -5
1 -10 -4 -10 -6 0 -11 5 -11 10 0 6 2 10 4 10 3 0 8 -4 11 -10z m-785 -65 c0
-18 -5 -25 -20 -25 -20 0 -28 28 -13 43 15 16 33 6 33 -18z m900 -55 c0 -14
-28 -19 -38 -7 -22 29 -23 37 -5 30 15 -5 14 -2 -4 19 -37 40 -26 43 12 2 19
-20 35 -40 35 -44z m-38 -74 c10 -19 10 -20 -6 -7 -9 8 -22 24 -28 35 -10 19
-10 20 6 7 9 -8 22 -24 28 -35z m-1242 -21 c19 -19 32 -35 29 -35 -3 0 -20 16
-39 35 -19 19 -32 35 -29 35 3 0 20 -16 39 -35z m484 -502 c11 -20 -411 409
-432 439 -8 11 84 -80 204 -201 120 -121 222 -229 228 -238z m106 -110 c0 -8
-9 0 -50 45 l-45 47 48 -45 c26 -24 47 -45 47 -47z m-50 -106 c0 -2 -17 -19
-37 -38 l-38 -34 34 38 c33 34 41 42 41 34z m-90 -90 c0 -2 -15 -13 -32 -26
l-33 -22 28 25 c26 24 37 31 37 23z"/>
<path d="M4048 5634 c-80 -67 -193 -183 -185 -190 4 -5 60 45 125 109 118 119
140 147 60 81z"/>
<path d="M2504 5606 l-29 -25 49 -50 50 -51 23 22 c13 12 23 25 23 29 0 4 -20
29 -44 54 l-43 46 -29 -25z"/>
<path d="M5220 5557 c-25 -23 -58 -52 -75 -64 l-29 -21 58 -66 c31 -36 63 -65
69 -63 10 2 22 46 41 160 3 16 1 27 -6 27 -9 0 -9 3 -1 11 6 6 9 18 6 27 -5
11 -3 13 8 7 12 -8 12 -6 0 8 -7 9 -16 17 -20 17 -3 0 -26 -20 -51 -43z"/>
<path d="M6037 5366 c-103 -100 -187 -186 -187 -191 0 -6 7 -1 15 9 15 19 15
19 15 -3 0 -16 4 -21 15 -17 18 6 20 -15 4 -31 -8 -8 -6 -17 11 -35 20 -22 22
-22 34 -5 16 21 42 14 49 -13 6 -25 -2 -31 -24 -19 -15 7 -19 6 -19 -5 0 -9 6
-13 15 -10 10 4 13 0 10 -14 -2 -12 3 -26 10 -32 8 -6 11 -19 8 -28 -5 -14 -2
-13 14 3 12 12 16 23 10 26 -5 4 -7 11 -3 17 3 6 1 14 -5 18 -7 4 -9 3 -5 -4
3 -6 2 -13 -3 -16 -15 -10 -21 22 -6 34 18 15 35 5 35 -20 0 -34 15 -30 67 18
28 26 53 47 55 47 2 0 26 21 54 47 27 25 86 76 132 113 45 36 82 72 82 79 0 6
-18 29 -40 51 -35 34 -41 37 -56 24 -16 -13 -16 -12 -5 6 11 18 7 26 -41 76
l-53 57 -188 -182z m128 -125 c-3 -6 -11 -11 -17 -11 -6 0 -6 6 2 15 14 17 26
13 15 -4z m-150 -68 c-26 -18 -32 -7 -9 18 12 14 20 17 23 8 2 -7 -4 -18 -14
-26z m-49 -6 c21 8 17 -8 -11 -42 -18 -22 -27 -27 -36 -18 -8 8 -5 15 10 25
12 9 20 21 18 29 -2 8 -2 11 0 7 2 -4 11 -4 19 -1z"/>
<path d="M6840 5515 c-11 -13 -10 -14 4 -9 9 3 16 10 16 15 0 13 -6 11 -20 -6z"/>
<path d="M2612 5504 c-13 -9 -22 -22 -20 -29 3 -14 69 -84 302 -325 72 -74
171 -177 219 -229 l89 -94 31 31 31 32 -314 315 c-312 312 -315 315 -338 299z"/>
<path d="M6776 5460 c-20 -22 -36 -43 -36 -48 0 -7 40 34 69 71 26 32 3 17
-33 -23z"/>
<path d="M4821 5429 c-23 -29 -23 -31 -5 -43 11 -8 30 -24 44 -36 31 -27 7
-16 -39 18 l-33 25 -35 -35 -35 -35 27 -19 c15 -11 41 -31 60 -46 l32 -28 28
21 c21 17 24 24 13 31 -9 6 -6 7 10 3 18 -5 22 -3 20 16 -2 16 3 24 16 27 15
3 18 0 13 -20 -7 -27 27 -65 53 -60 11 2 12 1 3 -6 -9 -6 -2 -19 26 -46 l39
-38 26 18 c14 11 26 22 26 25 0 14 -141 139 -152 133 -7 -5 -8 -3 -3 5 5 9
-12 32 -46 67 -29 30 -56 54 -59 53 -3 0 -16 -14 -29 -30z"/>
<path d="M5305 5430 c-4 -6 -11 -7 -17 -4 -7 4 -8 2 -4 -5 4 -6 2 -18 -4 -26
-9 -11 -9 -15 -1 -15 6 0 11 5 11 11 0 5 4 8 9 4 5 -3 13 0 17 6 5 8 3 9 -6 4
-8 -5 -11 -3 -8 6 3 8 11 13 17 11 7 -1 10 2 6 8 -8 13 -12 13 -20 0z"/>
<path d="M5874 5388 l-19 -23 23 19 c21 18 27 26 19 26 -2 0 -12 -10 -23 -22z"/>
<path d="M6690 5374 c-14 -10 -45 -35 -70 -58 -24 -23 -36 -31 -26 -18 26 31
8 27 -33 -7 -35 -29 -35 -43 -1 -61 15 -8 26 -2 64 37 25 25 43 50 40 54 -3 5
1 6 9 4 15 -6 50 27 53 50 3 19 -6 19 -36 -1z"/>
<path d="M5271 5326 c-9 -11 -9 -16 1 -22 7 -4 10 -4 6 1 -4 4 -3 14 3 22 6 7
9 13 6 13 -2 0 -10 -6 -16 -14z"/>
<path d="M4915 5310 c3 -5 8 -10 11 -10 2 0 4 5 4 10 0 6 -5 10 -11 10 -5 0
-7 -4 -4 -10z"/>
<path d="M6355 5255 c-114 -92 -227 -207 -216 -218 12 -12 33 1 25 16 -5 9 -4
9 5 1 9 -9 3 -21 -29 -53 -22 -22 -46 -41 -52 -41 -7 0 -6 -5 2 -15 7 -9 10
-18 6 -22 -3 -3 -6 -1 -6 5 0 19 -18 14 -30 -9 -11 -19 -10 -20 9 -9 12 6 21
8 21 4 0 -3 7 -1 15 6 8 7 13 16 10 20 -4 7 14 19 30 20 3 0 31 24 62 54 32
29 85 76 118 103 99 83 107 94 103 148 l-3 47 -70 -57z m-5 -59 c0 -2 -7 -7
-16 -10 -8 -3 -12 -2 -9 4 6 10 25 14 25 6z m-100 -90 c-30 -29 -58 -51 -62
-49 -7 4 100 101 112 102 3 1 -20 -23 -50 -53z"/>
<path d="M6451 5143 l-2 -168 82 82 82 81 -33 34 c-18 18 -29 28 -26 21 3 -6
1 -15 -5 -19 -8 -4 -9 -3 -5 4 10 16 -6 15 -24 0 -8 -7 -7 -4 3 8 20 24 22 40
5 50 -6 4 -8 3 -5 -3 4 -6 -5 -15 -20 -22 l-26 -12 17 25 c15 24 15 25 -1 19
-15 -6 -16 -4 -6 9 11 12 8 19 -11 37 l-24 23 -1 -169z m49 14 c0 -2 -10 -12
-22 -23 l-23 -19 19 23 c18 21 26 27 26 19z"/>
<path d="M5196 5260 c-20 -22 -40 -40 -46 -40 -22 0 -7 -28 40 -75 28 -27 50
-46 50 -42 0 4 8 3 18 -2 10 -5 24 -6 31 -2 10 6 9 10 -4 15 -9 3 -13 10 -10
16 4 6 10 8 15 5 4 -3 14 3 21 13 13 15 12 16 -3 3 -14 -10 -18 -10 -18 -1 0
9 -4 9 -17 -1 -16 -13 -16 -13 0 11 33 47 17 53 -43 15 -29 -18 -40 -21 -40
-11 0 8 7 17 16 20 8 3 12 10 9 16 -3 5 0 7 8 4 16 -6 40 19 44 46 1 9 -6 25
-16 34 -17 16 -20 14 -55 -24z"/>
<path d="M4887 5256 c-15 -12 -27 -29 -27 -38 0 -9 28 -46 63 -83 54 -59 63
-65 63 -44 0 13 -2 26 -5 29 -3 3 -17 18 -31 34 l-25 29 37 -29 c21 -16 38
-32 38 -36 0 -16 20 -7 31 13 10 19 6 27 -32 65 -23 24 -46 41 -51 38 -4 -3
-6 1 -3 8 3 7 -3 18 -13 24 -14 9 -23 7 -45 -10z"/>
<path d="M5280 5268 c0 -4 7 -8 15 -8 8 0 15 4 15 8 0 5 -7 9 -15 9 -8 0 -15
-4 -15 -9z"/>
<path d="M5082 5157 l-32 -33 23 -22 c13 -12 29 -22 35 -22 7 0 11 -6 10 -12
-2 -7 3 -12 10 -10 8 1 11 -1 8 -6 -2 -4 4 -13 14 -20 17 -10 18 -9 13 6 -3 9
4 5 16 -10 12 -16 28 -28 35 -28 13 0 46 31 46 43 0 16 -30 5 -44 -15 -12 -17
-16 -18 -16 -6 0 8 7 21 15 28 21 18 19 33 -10 60 -20 18 -28 21 -37 12 -9 -9
-9 -12 2 -12 9 0 8 -5 -5 -20 -18 -19 -41 -28 -31 -12 3 5 -8 19 -24 31 -17
12 -30 27 -30 33 0 7 12 0 28 -14 26 -25 27 -25 46 -7 19 19 19 19 -4 44 -13
14 -26 25 -30 25 -3 0 -21 -15 -38 -33z"/>
<path d="M5295 5179 c-4 -6 -5 -12 -2 -15 2 -3 7 2 10 11 7 17 1 20 -8 4z"/>
<path d="M6350 5114 c-41 -42 -87 -85 -102 -96 -16 -10 -28 -24 -28 -29 0 -17
25 -9 78 25 28 19 52 32 52 29 0 -4 12 4 26 18 26 24 26 24 15 2 -6 -13 -15
-23 -20 -23 -4 0 -36 -18 -70 -40 -51 -33 -66 -39 -78 -29 -11 10 -19 7 -40
-14 -22 -22 -23 -25 -7 -23 10 2 18 8 17 13 -1 5 7 10 18 10 25 2 24 -9 -1
-25 -11 -7 -20 -20 -20 -30 0 -10 -14 -28 -31 -41 -17 -13 -28 -25 -26 -28 9
-9 56 22 106 70 33 32 51 43 51 33 0 -9 -4 -16 -9 -16 -5 0 -30 -22 -57 -50
-26 -27 -52 -46 -57 -43 -6 4 -8 -1 -4 -11 4 -10 7 -20 7 -22 0 -2 7 -4 16 -4
10 0 14 -6 11 -15 -9 -23 9 -26 28 -5 10 11 22 17 27 14 4 -3 7 -2 6 3 -2 4 0
8 3 8 3 0 43 36 88 80 l82 80 -3 95 -3 95 -25 -25 c-14 -14 -43 -38 -65 -54
-30 -22 -22 -11 28 39 37 37 67 71 65 76 -2 5 -37 -25 -78 -67z"/>
<path d="M5510 5145 c0 -14 4 -25 9 -25 12 0 23 29 15 41 -10 18 -24 9 -24
-16z"/>
<path d="M4865 5151 c6 -10 2 -12 -14 -6 -32 10 -25 -2 21 -35 22 -16 38 -30
35 -30 -4 0 9 -21 28 -46 19 -25 35 -51 34 -57 0 -7 -8 -1 -17 13 -27 39 -92
112 -118 132 l-23 18 14 -27 c8 -16 41 -56 73 -91 42 -45 63 -61 75 -56 16 6
22 -5 18 -29 -1 -5 3 -6 9 -2 5 3 10 1 10 -5 0 -14 61 -66 73 -62 5 1 6 -2 2
-7 -6 -11 9 -28 61 -71 16 -14 33 -33 37 -43 7 -18 27 -24 27 -8 0 5 3 16 6
24 4 10 -1 15 -13 14 -11 -1 -18 5 -18 18 0 13 -8 21 -22 23 -13 2 -23 8 -23
14 0 16 -63 77 -73 71 -6 -3 -7 -1 -3 5 4 7 -9 28 -31 50 -48 49 -72 78 -55
68 21 -13 13 1 -23 38 -19 20 -39 36 -45 36 -6 0 -9 4 -6 9 3 4 -6 19 -21 32
-14 13 -23 18 -18 10z m296 -358 c13 -16 12 -17 -3 -4 -10 7 -18 15 -18 17 0
8 8 3 21 -13z"/>
<path d="M5015 5093 c-4 -12 1 -24 14 -34 11 -9 17 -20 13 -24 -4 -5 1 -5 10
-2 10 3 20 2 23 -3 4 -6 0 -10 -7 -10 -8 -1 -6 -6 6 -15 17 -13 22 -13 38 2
18 16 17 18 -26 60 -50 47 -61 51 -71 26z"/>
<path d="M5590 5070 c7 -13 7 -21 -2 -26 -6 -4 -8 -3 -4 4 3 6 3 13 -2 16 -4
2 -8 -15 -8 -40 0 -31 -5 -48 -19 -60 -11 -8 -15 -13 -8 -10 6 4 13 0 16 -6 2
-7 9 3 14 22 6 22 15 34 24 33 8 -2 16 5 17 15 1 9 3 25 4 36 2 11 -6 21 -20
27 -20 8 -21 6 -12 -11z"/>
<path d="M5645 5060 c-3 -5 -1 -10 4 -10 6 0 11 5 11 10 0 6 -2 10 -4 10 -3 0
-8 -4 -11 -10z"/>
<path d="M5750 5049 c0 -6 -7 -8 -16 -5 -8 3 -13 2 -10 -2 2 -4 -3 -16 -11
-27 -11 -14 -17 -16 -20 -7 -7 17 -30 15 -37 -4 -4 -10 -2 -13 6 -8 6 4 8 3 5
-3 -4 -6 -19 -16 -35 -22 -15 -7 -35 -24 -44 -39 -16 -27 -16 -27 58 -112 41
-47 74 -88 74 -92 0 -19 -19 -15 -24 5 -3 12 -34 51 -70 86 l-65 64 4 -36 c1
-21 -1 -37 -7 -37 -5 0 -7 -4 -4 -8 3 -5 6 -75 7 -155 1 -81 3 -147 4 -147 6
0 143 160 148 172 2 7 8 10 11 6 4 -3 -29 -51 -73 -104 -45 -54 -81 -101 -81
-104 0 -3 5 -12 10 -20 8 -12 15 -8 45 23 19 20 35 42 35 47 0 6 4 10 10 10
11 0 150 133 150 144 0 3 -9 2 -19 -4 -11 -5 -23 -10 -28 -10 -4 1 3 7 17 14
l24 14 -3 173 c-2 96 -5 177 -8 182 -2 4 -9 5 -14 2 -5 -4 -9 -1 -9 4 0 6 -7
11 -15 11 -8 0 -15 -5 -15 -11z m26 -246 l27 -47 -29 -23 c-62 -51 -83 -63
-89 -53 -3 5 1 10 9 10 9 0 34 16 56 36 l39 36 -24 36 c-23 34 -30 52 -21 52
2 0 16 -21 32 -47z m-162 -27 c32 -42 34 -58 4 -24 -41 44 -51 58 -40 58 5 0
21 -15 36 -34z m156 -91 c-21 -25 -32 -17 -13 9 10 13 20 20 21 15 2 -5 -2
-16 -8 -24z"/>
<path d="M5829 4998 c0 -24 -3 -81 -5 -127 l-4 -84 22 19 c52 44 112 146 95
163 -14 14 -30 15 -22 1 3 -5 -3 -10 -15 -10 -14 0 -26 11 -35 33 -13 28 -15
29 -12 7 1 -14 7 -32 12 -40 7 -13 6 -13 -7 -2 -10 8 -15 26 -14 47 1 19 -2
35 -6 35 -5 0 -8 -19 -9 -42z m84 -68 c-3 -11 -7 -20 -9 -20 -2 0 -4 9 -4 20
0 11 4 20 9 20 5 0 7 -9 4 -20z"/>
<path d="M6117 5023 c4 -11 3 -14 -6 -9 -8 5 -20 0 -31 -12 -14 -15 -16 -22
-7 -25 16 -6 70 40 62 53 -10 17 -25 11 -18 -7z m-26 -36 c-10 -9 -11 -8 -5 6
3 10 9 15 12 12 3 -3 0 -11 -7 -18z"/>
<path d="M5265 5020 c-3 -5 -3 -10 1 -10 4 0 0 -8 -9 -18 -25 -27 -9 -35 23
-12 38 27 58 0 25 -34 -14 -14 -13 -15 15 -13 38 3 38 13 -1 60 -31 38 -43 44
-54 27z"/>
<path d="M5003 5003 c14 -14 19 -15 29 -4 9 9 9 12 1 7 -6 -3 -14 -2 -18 4 -3
5 -11 10 -18 10 -6 0 -4 -7 6 -17z"/>
<path d="M5537 5000 c3 -11 7 -20 9 -20 2 0 4 9 4 20 0 11 -4 20 -9 20 -5 0
-7 -9 -4 -20z"/>
<path d="M5114 4998 c-14 -22 -13 -37 2 -31 8 3 21 0 29 -7 8 -6 19 -9 25 -5
14 9 2 25 -14 19 -9 -3 -13 1 -13 12 2 21 -18 30 -29 12z"/>
<path d="M5887 4995 c3 -8 9 -12 14 -9 12 7 11 11 -5 17 -10 4 -13 1 -9 -8z"/>
<path d="M5470 4956 c0 -2 8 -10 18 -17 15 -13 16 -12 3 4 -13 16 -21 21 -21
13z"/>
<path d="M5931 4890 c-18 -26 -44 -59 -57 -71 -16 -15 -22 -30 -19 -43 3 -12
2 -15 -1 -8 -12 25 -24 -1 -23 -51 0 -42 2 -47 9 -29 5 12 16 25 24 28 8 3 12
12 10 19 -3 7 0 24 7 37 7 13 12 28 11 35 -1 6 2 14 8 18 5 3 10 0 10 -9 0 -8
3 -21 6 -29 3 -9 -3 -16 -15 -20 -21 -5 -30 -37 -11 -37 6 0 10 3 10 8 0 4 23
20 50 37 28 16 50 33 50 38 0 4 -4 6 -8 3 -5 -3 -9 2 -9 10 0 10 4 11 11 4 15
-15 24 -12 37 11 9 17 8 20 -2 14 -9 -6 -11 -3 -6 8 4 11 1 17 -7 17 -21 0
-27 -12 -13 -29 11 -14 10 -14 -6 -2 -15 12 -20 11 -37 -4 -14 -13 -17 -22
-10 -29 5 -5 10 -15 10 -20 0 -6 -5 -3 -11 7 -6 9 -15 14 -21 11 -8 -5 -9 -1
-5 10 4 10 3 15 -3 11 -6 -3 -10 -3 -10 2 1 13 37 53 48 53 13 0 25 31 15 41
-5 5 -23 -14 -42 -41z m-46 -90 c3 -5 1 -10 -4 -10 -6 0 -11 5 -11 10 0 6 2
10 4 10 3 0 8 -4 11 -10z"/>
<path d="M5485 4900 c5 -17 4 -21 -5 -15 -9 5 -11 4 -6 -4 4 -6 12 -9 17 -6
12 8 11 32 -2 41 -8 4 -9 -1 -4 -16z"/>
<path d="M5979 4883 c-13 -15 -12 -15 9 -4 23 12 28 21 13 21 -5 0 -15 -7 -22
-17z"/>
<path d="M6146 4888 c2 -4 -4 -11 -13 -17 -10 -5 -15 -12 -13 -15 3 -3 18 5
34 17 25 20 26 23 8 23 -11 0 -19 -4 -16 -8z"/>
<path d="M5421 4834 c0 -11 3 -14 6 -6 3 7 2 16 -1 19 -3 4 -6 -2 -5 -13z"/>
<path d="M5459 4813 c-13 -16 -12 -17 4 -4 16 13 21 21 13 21 -2 0 -10 -8 -17
-17z"/>
<path d="M5472 4795 c-48 -52 -49 -72 -2 -133 22 -29 40 -60 40 -70 0 -10 -9
-3 -26 21 -14 21 -30 35 -36 31 -6 -4 -8 -3 -5 4 9 14 -2 42 -17 42 -6 0 -11
-13 -12 -30 -1 -22 10 -41 42 -76 24 -26 44 -55 44 -64 0 -10 7 -23 15 -30 11
-9 15 -9 15 -1 0 7 5 9 10 6 14 -9 13 224 -1 280 -6 24 -16 46 -23 48 -7 3
-26 -10 -44 -28z"/>
<path d="M5421 4754 c0 -11 3 -14 6 -6 3 7 2 16 -1 19 -3 4 -6 -2 -5 -13z"/>
<path d="M5236 4713 c-6 -14 -5 -15 5 -6 7 7 10 15 7 18 -3 3 -9 -2 -12 -12z"/>
<path d="M5860 4700 c-8 -5 -12 -12 -9 -15 4 -3 12 1 19 10 14 17 11 19 -10 5z"/>
<path d="M6053 4605 c-33 -31 -40 -45 -24 -45 9 0 66 70 60 73 -2 1 -19 -12
-36 -28z"/>
<path d="M5792 4608 c-7 -7 -12 -18 -12 -26 0 -7 -4 -10 -10 -7 -5 3 -10 -1
-10 -10 0 -22 24 -13 29 11 2 10 8 22 14 26 6 4 9 9 6 12 -3 3 -11 0 -17 -6z"/>
<path d="M5400 4602 c0 -7 5 -12 10 -12 6 0 10 -5 10 -11 0 -5 -4 -8 -9 -5
-16 10 6 -74 25 -95 28 -31 54 -43 66 -31 7 7 2 20 -16 39 l-27 28 7 -29 c5
-22 4 -27 -5 -21 -7 4 -11 18 -8 32 3 16 -2 28 -15 37 -13 10 -16 16 -8 21 6
4 17 -1 25 -11 7 -11 16 -16 19 -13 3 3 -12 23 -34 44 -22 22 -40 34 -40 27z"/>
<path d="M5760 4529 c-33 -29 -40 -39 -24 -36 30 4 85 50 76 63 -5 8 -22 -1
-52 -27z"/>
<path d="M5678 4498 c-32 -33 -58 -67 -58 -75 0 -9 -5 -11 -12 -7 -8 5 -8 1 2
-12 8 -10 16 -21 17 -23 4 -7 33 21 33 31 0 6 -7 5 -15 -2 -12 -10 -15 -9 -15
7 0 20 18 43 33 43 5 0 7 -7 3 -15 -8 -21 -1 -19 29 11 19 19 23 29 15 39 -8
9 -3 16 20 25 29 12 36 31 14 36 -5 1 -35 -25 -66 -58z m12 -23 c-7 -9 -15
-13 -19 -10 -3 3 1 10 9 15 21 14 24 12 10 -5z"/>
<path d="M5772 4488 c-24 -24 -31 -28 -26 -13 l7 20 -22 -20 c-47 -41 -79 -98
-75 -135 5 -51 13 -80 22 -80 12 1 119 104 129 125 12 24 16 135 5 135 -4 0
-22 -15 -40 -32z"/>
<path d="M5380 4475 c0 -14 4 -25 9 -25 5 0 12 -7 15 -16 4 -12 2 -15 -9 -10
-8 3 -15 1 -15 -4 0 -6 6 -10 13 -10 8 0 8 -3 2 -8 -6 -4 -12 -27 -14 -51 -2
-34 0 -42 11 -36 10 6 11 5 1 -6 -16 -16 -17 -33 -2 -23 7 4 7 -1 -1 -16 -24
-45 3 -32 66 31 l64 65 -47 44 c-26 25 -41 36 -33 25 9 -13 5 -11 -12 5 -14
14 -24 27 -23 30 2 3 -3 11 -11 18 -12 11 -14 9 -14 -13z m94 -74 c4 -5 -3 -7
-14 -4 -23 6 -26 13 -6 13 8 0 17 -4 20 -9z"/>
<path d="M5516 4435 c-8 -22 4 -41 15 -24 7 11 9 9 9 -6 1 -20 1 -20 15 -1 8
11 15 26 15 34 0 12 -3 12 -16 1 -12 -10 -17 -10 -23 0 -6 10 -10 9 -15 -4z"/>
<path d="M5570 4385 c-11 -13 -9 -20 10 -40 13 -13 27 -22 33 -18 6 3 7 2 4
-4 -4 -6 5 -21 19 -34 l25 -23 -22 54 c-34 83 -45 94 -69 65z"/>
<path d="M3725 4220 c-19 -21 -17 -22 90 -130 60 -61 115 -110 121 -110 6 0
16 6 22 13 8 9 -18 42 -102 130 -112 116 -113 117 -131 97z"/>
<path d="M3970 3970 c-12 -22 -1 -34 181 -214 340 -335 438 -426 454 -420 8 4
15 9 15 12 0 7 -88 97 -388 396 -240 238 -250 248 -262 226z"/>
<path d="M4834 3538 l-19 -23 23 19 c21 18 27 26 19 26 -2 0 -12 -10 -23 -22z"/>
<path d="M3269 3277 c-58 -56 -160 -152 -225 -213 -106 -99 -117 -113 -105
-128 14 -17 2 -23 -15 -6 -7 7 -83 -60 -234 -208 l-224 -218 47 -48 c26 -26
52 -46 57 -44 5 2 194 187 420 411 288 288 410 415 410 430 0 42 -13 127 -19
127 -3 -1 -54 -47 -112 -103z m-39 -128 c0 -5 -7 -9 -15 -9 -9 0 -12 6 -9 15
6 15 24 11 24 -6z m-190 -199 c0 -5 -10 -15 -22 -21 -23 -12 -23 -12 -4 10 21
23 26 26 26 11z m-55 -64 c0 -14 -4 -21 -9 -16 -5 5 -14 7 -20 6 -6 -2 -8 -1
-4 1 4 2 4 11 1 19 -3 9 1 14 13 14 13 0 19 -7 19 -24z m-53 -45 c4 -26 2 -28
-18 -21 -12 5 -26 6 -30 2 -5 -4 2 5 15 21 14 15 25 27 27 27 1 0 4 -13 6 -29z
m-52 -44 c0 -2 -10 -12 -22 -23 l-23 -19 19 23 c18 21 26 27 26 19z m-240
-241 c0 -2 -8 -10 -17 -17 -16 -13 -17 -12 -4 4 13 16 21 21 21 13z"/>
<path d="M2347 2188 c-27 -22 -45 -43 -42 -46 3 -3 -14 -26 -37 -50 -26 -27
-34 -40 -21 -33 12 6 41 34 65 63 24 28 54 62 67 75 41 40 18 34 -32 -9z"/>
</g>
</svg>
