<?xml version="1.0" standalone="no"?>
<!DOCTYPE svg PUBLIC "-//W3C//DTD SVG 20010904//EN"
 "http://www.w3.org/TR/2001/REC-SVG-20010904/DTD/svg10.dtd">
<svg version="1.0" xmlns="http://www.w3.org/2000/svg"
 width="1024.000000pt" height="1024.000000pt" viewBox="0 0 1024.000000 1024.000000"
 preserveAspectRatio="xMidYMid meet">

<g transform="translate(0.000000,1024.000000) scale(0.100000,-0.100000)"
fill="#000000" stroke="none">
<path d="M0 7689 l0 -2550 23 5 22 6 -23 -11 -22 -12 0 -2564 0 -2563 5120 0
5120 0 0 3445 0 3444 -26 -9 c-33 -13 -57 -13 -49 0 3 5 1 18 -5 29 -9 18 -6
20 35 27 l45 6 0 1649 0 1649 -5120 0 -5120 0 0 -2551z m9468 2179 c30 -30 -4
-108 -47 -108 -22 0 -51 30 -51 53 0 47 68 85 98 55z m-2453 -100 c-2 -30 -15
-58 -26 -58 -15 0 -10 42 8 62 20 22 19 23 18 -4z m1665 -47 c0 -46 -21 -65
-63 -57 -21 4 -37 11 -37 16 0 6 4 10 9 10 5 0 8 8 7 18 -1 11 6 16 17 15 12
-1 17 4 13 14 -3 8 -2 12 2 9 4 -2 14 -1 22 4 20 12 30 3 30 -29z m-2695 -581
c4 -6 -5 -23 -19 -37 -24 -23 -26 -24 -33 -7 -4 10 -2 19 5 22 7 2 12 10 12
18 0 16 26 19 35 4z m-5797 -157 c31 -28 36 -59 13 -82 -23 -23 -54 -21 -82 5
-23 21 -24 52 -2 76 20 23 45 23 71 1z m6882 -2 c18 -35 11 -68 -21 -95 -17
-14 -37 -26 -45 -26 -8 0 -14 -7 -14 -15 0 -8 -10 -21 -23 -30 -13 -8 -33 -33
-46 -55 -24 -44 -41 -44 -41 -2 0 28 61 158 100 212 26 36 73 42 90 11z m443
-121 c33 -39 17 -91 -33 -109 -52 -18 -75 3 -63 59 5 30 44 70 67 70 6 0 19
-9 29 -20z m712 -24 c23 -17 14 -42 -20 -58 -35 -16 -42 -3 -17 31 15 21 18
31 9 34 -6 3 -7 6 -1 6 5 1 19 -5 29 -13z m-3617 -79 c6 -6 13 -24 17 -38 6
-23 1 -30 -28 -48 -19 -12 -55 -48 -79 -81 -42 -59 -78 -84 -86 -61 -2 6 -8 8
-14 5 -8 -5 -9 9 -5 42 4 43 11 55 54 94 27 25 54 57 61 73 9 20 18 27 41 27
16 0 33 -6 39 -13z m-1060 -153 c31 -21 29 -62 -2 -70 -39 -9 -60 -1 -71 30
-8 23 -6 30 10 42 24 18 35 18 63 -2z m3290 -30 c22 -40 -27 -151 -80 -179
-36 -19 -38 -19 -51 -1 -8 10 -12 30 -11 45 2 14 1 18 -2 9 -6 -19 -24 -25
-24 -8 0 13 136 150 149 150 5 0 14 -7 19 -16z m-758 -66 c0 -24 0 -22 11 -60
6 -22 6 -42 -2 -60 -13 -31 -19 -34 -37 -16 -9 9 -15 8 -25 -7 -13 -17 -16
-16 -50 21 -21 22 -37 50 -37 63 0 59 98 130 128 93 6 -9 12 -24 12 -34z m419
-62 c16 -20 -12 -76 -38 -76 -24 0 -43 23 -36 44 3 9 7 23 10 31 6 19 49 20
64 1z m-2307 -33 c10 -9 18 -22 18 -30 0 -20 -47 -35 -71 -23 -18 10 -26 50
-12 63 12 12 46 7 65 -10z m2364 -49 c-19 -19 -21 -11 -4 16 7 11 14 16 16 10
2 -5 -4 -17 -12 -26z m962 0 c2 -22 -5 -40 -23 -63 -31 -36 -67 -41 -89 -10
-10 15 -27 21 -58 23 -40 2 -43 4 -43 30 0 27 2 29 55 33 30 2 61 9 70 14 8 5
31 8 50 6 31 -2 35 -5 38 -33z m-3192 -9 c15 -10 25 -10 32 -3 14 14 50 1 63
-23 14 -27 5 -49 -21 -49 -30 0 -153 62 -139 70 7 5 6 9 -5 13 -8 3 -16 1 -19
-6 -2 -6 -6 -3 -10 7 -6 16 -3 17 35 11 24 -4 53 -13 64 -20z m2281 -22 c-3
-10 -5 -4 -5 12 0 17 2 24 5 18 2 -7 2 -21 0 -30z m1305 -19 c11 -24 9 -29
-16 -51 -35 -30 -48 -26 -60 17 -8 27 -7 35 9 46 29 21 54 17 67 -12z m-1355
-16 c-3 -8 -6 -5 -6 6 -1 11 2 17 5 13 3 -3 4 -12 1 -19z m-441 -51 c4 -4 17
-7 30 -7 12 0 25 -7 28 -16 9 -25 7 -64 -4 -64 -5 0 -10 -9 -10 -19 0 -11 -4
-22 -10 -26 -5 -3 -7 -40 -4 -88 4 -63 1 -90 -10 -112 -20 -37 -20 -56 -2 -49
21 8 26 -33 9 -79 -8 -23 -16 -55 -17 -71 -1 -17 -8 -32 -14 -34 -7 -2 -12
-11 -12 -19 0 -20 44 -10 73 17 11 11 27 20 35 20 8 0 36 13 62 29 27 16 51
28 54 25 3 -2 4 -1 1 2 -2 4 18 31 45 61 34 37 57 75 77 128 15 41 30 70 34
64 3 -6 9 1 13 15 4 15 10 24 15 21 8 -4 27 -132 24 -162 -1 -14 67 11 78 29
4 6 12 7 18 4 6 -4 11 -3 11 2 0 5 11 14 25 20 15 7 25 8 25 2 0 -6 6 -10 14
-10 8 0 16 -5 18 -10 2 -6 35 10 73 36 39 25 74 48 79 51 5 4 6 1 2 -5 -9 -15
-1 -15 23 -2 34 18 -1 -56 -51 -108 -61 -65 -109 -128 -101 -136 3 -3 1 -6 -5
-6 -6 0 -14 -9 -17 -20 -3 -11 -12 -20 -18 -20 -16 -1 -55 -37 -97 -91 -19
-24 -42 -49 -51 -56 -28 -21 -133 -184 -122 -191 11 -7 38 -27 107 -78 53 -39
201 -134 210 -134 5 0 69 -40 189 -118 20 -14 35 -27 33 -30 -5 -5 -237 111
-276 138 -56 39 -276 149 -293 146 -26 -4 -87 -127 -87 -177 0 -41 -12 -51
-29 -22 -8 15 -12 11 -27 -22 -31 -69 -56 -90 -68 -59 -10 25 4 61 26 71 17 7
25 28 39 94 10 46 15 94 12 106 -5 22 -5 22 -31 -5 -23 -22 -27 -23 -30 -9 -4
22 -15 21 -37 -3 -10 -11 -23 -20 -29 -20 -7 0 -35 -21 -64 -47 -90 -83 -92
-84 -92 -57 0 9 -5 13 -12 10 -7 -3 -21 -9 -30 -12 -10 -4 -18 -10 -18 -14 0
-4 -9 -10 -19 -13 -28 -7 -45 30 -31 68 l11 29 -23 -19 c-27 -24 -59 -61 -75
-89 -19 -33 -15 -9 6 34 11 22 15 42 11 45 -10 6 -50 -25 -50 -38 0 -5 -13
-22 -29 -38 -34 -33 -111 -146 -111 -162 0 -6 11 0 25 13 25 23 25 23 39 4 17
-23 12 -32 -9 -14 -12 10 -15 10 -15 -2 0 -8 -11 -21 -25 -28 -14 -7 -25 -19
-25 -26 0 -7 -5 -16 -10 -19 -6 -4 -10 -3 -9 2 6 37 -18 19 -139 -99 -115
-113 -287 -252 -432 -351 -95 -65 -163 -108 -165 -105 -10 10 94 99 195 168
95 64 276 235 350 330 67 86 91 151 37 103 -12 -11 -29 -25 -37 -32 -8 -6 -26
-20 -39 -31 -27 -22 -41 -25 -41 -10 0 11 -45 9 -56 -3 -4 -4 -13 -2 -19 3 -8
7 -20 4 -36 -8 -13 -11 -34 -24 -46 -30 -19 -10 -20 -9 -16 8 4 15 0 20 -13
20 -13 0 -3 10 26 29 40 25 74 57 135 132 78 94 135 169 149 197 9 18 37 64
61 102 25 38 45 71 45 74 0 9 112 189 127 204 15 15 17 41 4 60 -7 11 -9 10
-15 -3 -3 -9 -10 -13 -16 -10 -10 6 13 45 54 92 10 12 24 33 31 45 6 13 17 22
23 21 6 -2 9 4 6 12 -4 8 -4 22 0 30 5 13 10 13 41 -2 19 -9 35 -21 35 -26 0
-6 9 -2 21 9 20 18 22 18 34 1 20 -28 32 -20 61 39 19 39 27 69 25 102 -1 50
-23 92 -46 92 -8 0 -18 12 -21 26 -5 20 -11 24 -27 20 -25 -6 -48 10 -40 30 3
8 0 14 -6 14 -21 0 -11 38 14 54 35 23 65 6 65 -36 0 -25 3 -29 12 -20 18 18
38 15 59 -9 l19 -22 20 44 c11 24 28 55 39 68 10 14 17 30 14 37 -5 13 21 13
33 1z m-1524 -14 c22 -20 23 -39 2 -47 -22 -8 -60 17 -67 43 -4 17 0 21 21 21
14 0 34 -7 44 -17z m2076 -5 c20 -20 14 -55 -14 -73 -24 -16 -27 -16 -45 1
-23 21 -24 42 -2 66 19 21 44 23 61 6z m753 -50 c23 -26 23 -32 4 -48 -9 -7
-14 -19 -11 -27 3 -7 1 -24 -4 -38 -9 -22 -15 -25 -55 -23 -63 4 -61 25 13
126 14 17 27 32 30 32 2 0 13 -10 23 -22z m-2708 -14 c7 -8 -16 -33 -25 -28
-9 6 1 34 11 34 4 0 10 -3 14 -6z m2626 -158 c18 -22 -11 -60 -62 -81 -23 -9
-63 -26 -88 -37 -26 -11 -52 -18 -58 -14 -5 4 -17 -4 -26 -18 -14 -21 -91 -56
-124 -56 -41 0 35 85 117 131 53 30 54 30 47 7 -5 -19 -4 -20 5 -8 9 11 13 12
17 3 2 -7 12 -13 22 -13 24 0 91 48 91 65 0 8 7 15 15 15 8 0 15 5 15 10 0 15
16 12 29 -4z m2056 -136 c12 -19 -24 -62 -48 -58 -25 3 -34 32 -17 53 14 17
56 20 65 5z m-8100 -80 c0 -8 -8 -16 -17 -18 -13 -2 -18 3 -18 18 0 15 5 20
18 18 9 -2 17 -10 17 -18z m-831 -16 c3 -8 2 -12 -4 -9 -6 3 -10 10 -10 16 0
14 7 11 14 -7z m102 -136 c3 -4 4 -8 2 -8 -8 0 -78 98 -78 110 0 9 42 -46 76
-102z m1819 72 c4 -6 10 -8 15 -5 5 3 12 0 16 -6 9 -15 -40 -59 -65 -59 -21 0
-41 19 -41 40 0 9 5 21 12 28 15 15 54 16 63 2z m-67 -82 c24 -21 12 -33 -37
-35 -57 -3 -83 16 -60 43 14 17 72 12 97 -8z m6993 -8 c25 -14 24 -45 -3 -64
-42 -30 -87 24 -48 56 26 21 26 21 51 8z m-7791 -10 c0 -16 132 -140 149 -141
11 0 12 -2 3 -6 -6 -2 -40 15 -75 40 -34 24 -75 47 -90 51 -30 7 -43 27 -33
51 6 17 46 21 46 5z m-889 -57 c13 -16 12 -17 -3 -4 -17 13 -22 21 -14 21 2 0
10 -8 17 -17z m69 -81 c0 -3 -9 3 -20 13 -11 10 -20 23 -20 28 0 6 9 0 20 -13
11 -13 20 -25 20 -28z m8230 20 c0 -21 -27 -25 -48 -9 -11 8 -11 12 0 18 23
15 48 10 48 -9z m-8160 -92 c0 -7 20 -30 79 -95 15 -16 31 -37 35 -45 9 -18
-100 97 -147 155 l-32 39 33 -24 c17 -13 32 -27 32 -30z m7863 36 c17 -13 15
-15 -16 -35 -44 -27 -57 -27 -57 2 0 43 37 60 73 33z m-6878 -26 c3 -6 -1 -7
-9 -4 -18 7 -21 14 -7 14 6 0 13 -4 16 -10z m6210 -47 c4 -12 0 -21 -11 -28
-41 -23 -105 -105 -325 -420 -56 -81 -155 -220 -231 -327 -6 -10 -18 -20 -25
-22 -15 -6 8 35 43 74 64 73 187 258 179 270 -4 6 -1 9 6 8 7 -2 41 38 76 87
35 50 97 135 138 191 40 56 77 114 81 130 4 16 11 35 17 42 14 18 44 15 52 -5z
m-6129 -15 l19 -23 -25 20 c-14 11 -27 21 -29 22 -2 2 0 3 6 3 5 0 18 -10 29
-22z m-1632 -24 c3 -8 2 -12 -4 -9 -6 3 -10 10 -10 16 0 14 7 11 14 -7z m3283
-64 c-1 -18 -9 -26 -25 -28 -24 -4 -27 2 -36 67 l-7 44 35 -29 c25 -21 35 -36
33 -54z m-2550 -55 c15 -13 25 -27 22 -30 -3 -2 -18 9 -34 25 -35 36 -25 40
12 5z m-620 0 c-4 -8 -2 -17 4 -21 6 -4 4 -13 -7 -25 -16 -18 -17 -18 -34 4
-21 25 -17 37 11 37 10 0 19 5 19 10 0 6 3 10 6 10 3 0 4 -7 1 -15z m1763 -21
c0 -2 -9 0 -20 6 -11 6 -20 13 -20 16 0 2 9 0 20 -6 11 -6 20 -13 20 -16z
m7190 -15 c0 -27 -22 -49 -49 -49 -30 0 -31 0 -249 -180 -77 -63 -245 -199
-373 -302 -568 -455 -1031 -839 -1072 -888 -10 -12 -16 -28 -13 -35 3 -9 0
-12 -8 -9 -7 3 -11 15 -9 28 4 17 -16 45 -84 121 -48 54 -101 114 -117 134
-16 20 4 0 45 -44 135 -147 193 -198 188 -167 -1 4 0 50 2 102 l3 95 5 -94 6
-94 195 164 c172 145 337 281 434 359 17 14 135 110 261 214 127 105 300 246
385 315 168 134 330 273 369 315 25 26 81 37 81 15z m-8252 -54 c9 -11 39 -47
66 -80 47 -58 48 -59 6 -15 -78 81 -115 125 -118 140 -1 10 3 8 13 -5 9 -11
23 -29 33 -40z m-659 -141 c25 -82 29 -88 59 -96 23 -6 34 -16 39 -38 9 -33
56 -64 425 -276 108 -62 230 -134 270 -160 40 -26 82 -50 93 -53 11 -3 82 -44
158 -91 224 -137 311 -190 327 -200 8 -5 12 -11 8 -15 -3 -4 -33 11 -65 32
-72 49 -327 205 -371 227 l-33 17 5 -53 c5 -51 5 -51 -4 -11 -17 80 18 55
-575 400 -132 77 -248 142 -257 146 -22 8 -22 2 -3 -123 23 -147 16 -160 -9
-17 -13 70 -25 129 -28 132 -3 3 -22 -38 -43 -90 -21 -52 -40 -94 -41 -92 -2
2 10 41 26 87 16 47 30 97 30 112 0 33 -17 43 -153 88 -54 18 -96 34 -94 37 3
2 54 -12 115 -32 62 -20 118 -35 126 -33 11 2 8 20 -15 93 -16 50 -29 94 -29
99 0 23 14 -9 39 -90z m-274 -20 c24 -11 25 -13 5 -8 -14 4 -38 13 -55 20 -24
11 -25 13 -5 8 14 -4 39 -13 55 -20z m6108 -39 c-40 -129 -53 -154 -67 -122
-3 6 -3 -1 0 -18 4 -23 3 -27 -5 -15 -9 12 -11 11 -11 -7 0 -12 -7 -39 -16
-60 -9 -21 -20 -47 -25 -58 -20 -51 -74 -163 -89 -185 -9 -14 -30 -50 -46 -80
-52 -101 -85 -143 -193 -245 -33 -32 -50 -43 -46 -30 l7 20 -17 -20 c-9 -11
-22 -27 -28 -35 -7 -8 -44 -43 -84 -78 -70 -62 -81 -83 -46 -96 9 -4 23 -1 32
6 14 12 14 11 2 -4 -11 -15 -11 -21 -1 -33 16 -20 29 -19 53 2 18 17 18 17 6
-11 -12 -25 -11 -30 6 -43 11 -8 31 -24 45 -35 l25 -20 -25 16 c-78 50 -71 51
-125 -17 -27 -33 -65 -91 -85 -127 -36 -65 -128 -200 -136 -200 -4 0 18 36 74
115 37 53 65 105 60 111 -8 8 -297 -414 -416 -607 -52 -84 -78 -139 -96 -203
-31 -105 -30 -100 -8 -92 14 5 14 4 -2 -9 -11 -8 -23 -15 -28 -15 -4 0 -8 -10
-8 -22 0 -13 -5 -30 -11 -38 -8 -11 -9 -7 -5 19 l6 33 -28 -18 c-72 -46 -71
-46 -74 -109 l-2 -60 -3 53 c-4 56 -6 58 -42 38 -31 -17 -33 -30 -20 -148 11
-103 27 -171 62 -252 l21 -49 34 39 34 39 -27 -42 c-25 -39 -26 -43 -11 -71 8
-16 22 -32 31 -35 17 -7 21 -37 5 -37 -5 0 -13 0 -17 0 -5 0 -8 8 -9 19 -1 11
-8 27 -17 36 -15 14 -18 13 -34 -11 -16 -26 -16 -28 6 -68 l22 -41 -29 33 -29
33 -62 -69 c-33 -39 -61 -72 -61 -76 0 -3 9 -6 20 -6 11 0 20 -6 20 -13 0 -8
-9 -22 -20 -32 -25 -23 -27 -47 -2 -38 24 8 110 73 154 117 20 20 42 36 47 36
6 0 18 14 26 31 9 16 22 29 29 27 14 -3 108 -109 102 -115 -1 -2 -17 0 -34 3
-20 4 -32 13 -32 23 0 9 -8 21 -19 28 -29 18 -65 -11 -56 -45 5 -21 4 -23 -8
-14 -11 9 -19 6 -41 -17 -15 -16 -59 -53 -97 -82 -73 -57 -83 -72 -46 -69 12
1 33 2 46 1 25 -1 25 -1 5 -19 -12 -12 -42 -21 -78 -25 -68 -7 -91 -24 -82
-60 5 -20 14 -26 51 -31 25 -4 49 -4 55 -1 5 3 19 1 31 -5 15 -9 33 -9 70 0
31 8 54 9 62 3 6 -6 45 -15 84 -22 40 -7 76 -18 79 -23 5 -8 -6 -9 -32 -5 -21
3 -68 9 -104 12 l-65 6 -85 -58 c-70 -49 -86 -65 -88 -89 -7 -59 -21 -50 -52
34 -7 17 -16 32 -19 32 -8 0 -153 -105 -192 -138 -13 -12 -35 -30 -49 -42 -43
-37 -144 -135 -184 -180 -31 -34 -37 -48 -32 -71 6 -33 -13 -51 -21 -20 -8 30
-24 26 -53 -11 -14 -18 -40 -49 -58 -68 l-33 -35 18 40 c10 22 33 65 52 95 34
55 42 103 22 123 -8 8 -23 -1 -54 -30 -23 -23 -73 -72 -112 -108 -38 -37 -122
-118 -186 -181 -113 -111 -139 -130 -139 -99 0 8 3 15 8 15 9 0 33 50 28 59
-2 3 2 12 10 19 8 7 14 11 14 8 0 -2 67 64 148 148 138 142 202 216 187 216
-4 0 3 15 14 34 30 48 26 54 -11 18 -53 -50 -132 -112 -136 -107 -3 3 8 23 23
45 15 22 26 42 24 44 -2 2 -60 -34 -129 -80 -120 -80 -150 -95 -150 -75 0 12
94 92 220 187 152 114 142 104 124 132 -22 34 -11 52 31 50 30 -1 34 -4 29
-21 -5 -15 -3 -17 7 -11 8 5 20 9 27 10 23 4 119 82 218 177 53 51 107 99 120
107 24 15 33 40 14 40 -24 0 -7 22 29 38 l38 17 -12 40 c-7 22 -31 75 -54 118
-22 43 -41 85 -41 93 0 8 -4 13 -9 10 -14 -9 -21 48 -21 161 0 58 -4 103 -8
101 -53 -22 -162 -82 -162 -89 0 -5 -7 -6 -15 -3 -11 5 -15 -2 -16 -27 l-1
-34 -8 30 c-5 18 -7 -5 -4 -60 2 -73 1 -81 -6 -45 -5 25 -9 62 -9 83 -1 20 -4
37 -8 37 -5 -1 -39 -16 -78 -35 -38 -18 -71 -32 -73 -30 -2 2 32 22 75 44 l80
40 31 107 c31 105 34 130 10 106 -7 -7 -15 -12 -19 -12 -4 0 4 13 19 28 15 15
29 27 31 25 13 -8 64 64 90 125 29 72 59 125 161 285 28 43 50 81 50 85 0 3
-10 -3 -23 -14 -13 -10 -11 -7 5 8 l27 27 -19 53 c-30 85 -91 232 -100 242 -5
5 -27 -7 -52 -26 -24 -19 -61 -45 -82 -58 l-39 -23 29 -24 c16 -12 34 -23 40
-23 6 0 30 16 55 36 l44 36 -43 -41 -43 -42 23 -21 23 -20 -29 17 c-28 17 -31
17 -60 0 l-31 -18 22 24 22 25 -34 27 -35 28 -33 -24 c-38 -29 -187 -111 -187
-104 0 3 39 26 86 52 47 26 88 54 91 62 6 16 -31 52 -55 53 -7 0 -30 -12 -50
-26 l-37 -26 35 30 c31 27 33 31 16 38 -11 4 -31 0 -50 -11 l-31 -17 29 24
c23 19 26 26 15 35 -8 6 -23 13 -34 15 -11 2 -20 10 -20 18 0 8 -8 14 -18 14
-9 -1 -14 2 -11 7 9 16 -19 10 -40 -8 l-21 -18 20 23 c19 23 19 24 1 38 -11 7
-24 10 -30 6 -6 -5 -31 -24 -56 -43 -25 -20 -77 -54 -116 -77 -39 -22 -76 -48
-84 -56 -7 -9 -17 -16 -23 -16 -15 0 61 58 133 100 78 46 138 95 128 105 -4 4
-38 -12 -75 -35 -37 -24 -115 -73 -173 -110 -110 -70 -150 -93 -150 -87 0 4
146 99 303 197 l68 43 -31 29 -32 29 -77 -35 c-75 -35 -68 -22 13 22 22 12 33
22 23 22 -20 0 -173 -75 -243 -120 -26 -16 -53 -30 -58 -30 -20 0 226 145 279
164 20 7 20 8 1 18 -41 23 -92 21 -151 -7 -36 -18 -68 -26 -89 -23 -28 3 -33
0 -32 -16 1 -10 -6 -21 -14 -23 -13 -4 -13 -3 0 7 12 9 10 11 -12 6 -14 -3
-34 -9 -44 -13 -13 -5 -15 -3 -9 7 5 9 4 11 -4 6 -6 -4 -9 -11 -6 -16 3 -5 -7
-12 -22 -16 -15 -3 -55 -16 -88 -29 -33 -12 -73 -27 -90 -33 l-30 -11 35 4
c36 3 188 53 231 75 13 7 20 8 14 2 -5 -6 -55 -30 -110 -54 -116 -51 -228
-112 -233 -126 -4 -13 61 1 91 20 19 13 51 25 132 53 11 3 -20 -14 -69 -40
-48 -25 -94 -51 -101 -58 -61 -62 -322 -233 -301 -198 3 5 20 14 38 21 18 8
62 36 98 65 36 28 84 64 107 80 40 28 53 45 36 45 -21 0 -141 -71 -274 -160
-82 -55 -149 -98 -149 -96 0 3 44 35 98 72 53 38 122 87 152 109 30 23 73 52
95 63 22 12 37 21 33 22 -14 0 -64 -25 -118 -60 -30 -19 -72 -43 -93 -53 -41
-19 -162 -108 -190 -141 -11 -13 -17 -15 -14 -6 2 8 28 34 58 58 30 24 68 55
84 69 17 14 55 41 85 61 30 21 57 39 60 42 11 11 56 34 144 74 32 15 56 30 53
33 -4 3 -22 -4 -42 -16 -20 -11 -40 -21 -45 -21 -21 0 -117 -50 -135 -70 -11
-12 -42 -34 -70 -47 -27 -14 -54 -31 -60 -38 -13 -17 -125 -66 -125 -56 0 5
10 11 22 14 12 4 20 9 17 11 -9 9 -174 -59 -504 -208 -44 -20 -89 -36 -100
-36 -11 0 -27 -4 -34 -9 -10 -6 0 -8 30 -5 l44 5 -45 -21 c-25 -12 -56 -31
-69 -43 -20 -18 -23 -19 -18 -5 13 36 -39 33 -179 -11 -178 -55 -177 -55 -116
-26 29 14 99 41 155 60 56 20 108 38 116 41 12 4 10 9 -7 26 l-21 21 -77 -28
c-43 -16 -109 -44 -148 -63 -84 -41 -116 -53 -116 -46 0 8 259 131 293 139 37
10 29 28 -14 36 -19 4 -26 7 -16 8 17 1 17 2 0 20 -16 17 -24 19 -62 10 -24
-5 -46 -7 -49 -5 -2 3 14 8 37 12 48 8 52 18 14 37 -26 13 -38 10 -173 -45
-212 -85 -491 -190 -496 -185 -2 2 76 36 174 75 97 39 231 93 297 119 66 27
129 53 139 57 18 6 16 9 -15 37 l-34 30 45 -25 45 -25 55 20 c153 57 200 72
351 114 205 57 214 61 269 104 25 19 37 25 27 14 -44 -51 -100 -76 -294 -133
-186 -54 -340 -106 -378 -127 -14 -8 -9 -14 31 -40 46 -31 47 -31 78 -13 39
23 237 92 244 85 3 -2 -1 -7 -9 -9 -8 -3 -66 -24 -129 -46 -63 -22 -118 -44
-123 -49 -4 -4 -1 -14 8 -21 19 -16 22 -15 245 77 199 82 221 92 195 93 -12 0
3 12 38 30 70 37 84 38 34 5 -20 -14 -37 -28 -37 -30 0 -3 30 7 67 21 38 14
118 43 178 64 61 21 134 50 162 64 29 14 57 26 61 26 12 0 131 39 167 55 17 7
50 20 75 30 25 9 63 25 85 35 54 25 258 106 320 128 32 10 43 18 31 20 -10 2
-37 -3 -60 -11 -22 -9 -57 -19 -76 -22 -19 -4 -79 -27 -134 -52 -54 -24 -103
-42 -109 -40 -14 4 203 95 256 107 72 16 136 35 144 44 4 5 0 6 -9 3 -10 -3
-17 -3 -17 1 3 20 -7 19 -73 -9 -95 -39 -109 -32 -16 8 87 38 59 44 -37 8 -37
-14 -69 -24 -71 -22 -4 4 85 41 136 56 l35 11 -34 -4 c-31 -3 -32 -2 -16 11
17 12 16 13 -11 13 -17 0 -53 -7 -79 -15 -69 -20 -68 -11 2 13 40 14 50 21 33
21 -20 1 -22 3 -10 11 11 7 5 10 -25 11 -33 2 -35 3 -11 6 l29 5 -35 21 c-20
12 -60 38 -89 57 -30 20 -90 56 -134 79 -44 24 -135 77 -203 117 -68 41 -129
74 -137 74 -21 0 -22 22 -3 60 10 19 18 31 19 25 4 -57 21 -73 196 -176 228
-136 310 -179 339 -180 16 0 23 -3 16 -6 -16 -6 3 -33 24 -33 8 0 14 -4 14 -8
0 -5 18 -15 40 -22 22 -7 40 -17 40 -21 0 -5 12 -15 28 -23 23 -12 33 -12 67
0 57 20 89 16 36 -4 -51 -20 -54 -35 -9 -42 19 -3 32 -11 30 -18 -4 -19 46 -7
134 34 136 62 196 89 312 139 65 28 112 54 112 62 0 8 -3 12 -7 10 -5 -3 -8 8
-9 24 -1 15 3 26 7 23 5 -3 9 -11 9 -18 0 -17 25 -38 34 -29 3 4 16 8 28 10
17 3 19 1 8 -12 -7 -8 -19 -15 -26 -15 -18 0 -18 -12 3 -55 11 -23 22 -34 31
-30 7 3 23 5 33 5 11 0 18 4 15 8 -6 10 24 27 64 37 24 7 24 7 5 -9 -25 -19
-9 -20 25 -1 14 8 30 14 35 14 6 0 -8 -9 -30 -21 -22 -12 -34 -23 -27 -25 6
-3 12 -10 12 -16 0 -6 -7 -4 -17 5 -15 16 -19 15 -65 -8 -42 -21 -48 -28 -42
-46 12 -40 63 -148 69 -148 3 0 15 9 27 20 22 21 18 40 -5 24 -12 -9 2 4 50
45 14 12 21 26 17 35 -4 10 6 21 33 35 22 11 57 41 78 68 21 26 55 66 76 88
20 22 40 51 44 65 3 14 3 20 -2 14 -4 -6 -20 -17 -34 -25 -126 -67 -172 -89
-177 -85 -2 3 8 13 24 21 156 88 207 117 275 162 59 39 56 25 -4 -19 -31 -23
-52 -45 -47 -48 6 -4 1 -15 -11 -29 -81 -86 -179 -207 -176 -215 2 -6 22 -12
44 -14 34 -2 61 7 150 53 59 30 99 48 88 40 -11 -9 -66 -39 -122 -68 -57 -29
-103 -54 -103 -58 0 -12 91 -48 106 -42 13 5 15 3 9 -8 -5 -8 6 -1 24 14 18
15 47 35 63 43 19 10 28 21 24 30 -5 13 -3 13 16 0 19 -14 24 -13 52 6 17 12
49 38 72 57 108 95 167 142 144 117 -27 -31 -173 -157 -222 -193 l-30 -21 20
-20 c11 -11 17 -24 14 -28 -4 -3 2 -2 13 4 11 6 31 23 45 38 14 15 41 37 60
49 19 12 100 86 180 163 l145 140 -20 22 c-30 33 -51 41 -79 30 -14 -5 -26 -8
-26 -6 0 12 143 146 157 146 15 0 15 -1 0 -18 -15 -17 -15 -20 0 -43 l17 -24
-25 17 c-26 16 -27 16 -59 -17 l-33 -34 34 -21 c20 -12 43 -18 56 -15 12 3 23
0 26 -8 3 -8 10 -7 23 7 19 18 18 18 -3 11 -23 -6 -32 8 -12 20 6 4 8 13 5 20
-3 8 4 12 19 11 13 0 21 -4 19 -8 -2 -4 0 -9 5 -13 5 -3 18 6 28 21 36 51 61
79 67 73 4 -3 -12 -30 -34 -60 -36 -49 -39 -55 -24 -66 9 -7 20 -10 25 -8 4 3
5 -3 2 -13 -5 -21 52 -76 68 -67 5 4 7 0 4 -7 -2 -7 2 -21 9 -31 12 -15 18
-16 35 -7 15 8 21 8 21 0 0 -7 12 2 26 19 14 17 30 28 35 25 5 -3 8 0 7 8 -2
7 3 12 10 10 7 -1 17 9 22 23 5 14 12 25 15 25 4 0 3 -6 0 -12 -4 -7 9 4 28
25 19 21 40 39 48 40 22 4 40 18 34 27 -3 5 5 17 18 27 12 10 42 42 66 71 24
28 50 52 58 52 7 0 13 9 13 19 0 11 4 21 8 23 5 2 30 48 58 103 27 55 54 103
59 107 6 4 7 8 2 8 -4 0 8 31 28 68 19 38 35 73 35 79 0 20 64 158 77 166 7 4
13 13 13 20 0 29 22 89 30 81 5 -5 2 -31 -7 -59z m-4952 -40 c26 -9 20 -39 -9
-43 -17 -3 -22 2 -22 18 0 12 -19 45 -41 74 l-42 51 47 -47 c26 -26 56 -50 67
-53z m4439 47 c0 -4 -9 -13 -21 -20 -19 -12 -19 -11 -9 8 10 19 30 28 30 12z
m-2822 -32 c7 -11 11 -20 9 -20 -2 0 -12 9 -22 20 -10 11 -14 20 -9 20 5 0 15
-9 22 -20z m2708 -55 c-9 -9 -16 -13 -16 -8 0 12 22 34 28 28 2 -2 -3 -11 -12
-20z m58 -3 c-5 -4 -32 -35 -58 -69 -52 -66 -68 -81 -39 -35 30 46 96 122 102
117 3 -4 1 -9 -5 -13z m-2706 -22 c17 -27 10 -25 -19 6 -13 14 -17 23 -9 19 9
-3 21 -14 28 -25z m2607 -52 c-13 -24 -30 -54 -37 -68 -7 -14 -19 -32 -27 -40
-8 -8 -43 -50 -79 -92 -35 -43 -66 -78 -70 -78 -3 0 4 10 15 23 11 12 26 33
33 47 10 21 5 18 -27 -12 -21 -21 -42 -38 -46 -38 -4 0 -18 -10 -30 -21 -12
-12 -64 -54 -116 -93 -178 -134 -214 -156 -145 -86 21 22 44 40 50 40 7 0 22
12 35 26 13 14 42 37 64 51 22 14 49 35 60 45 11 11 75 73 143 138 67 65 122
115 122 112 0 -3 13 15 30 41 37 59 58 62 25 5z m-2577 2 c7 -11 11 -20 9 -20
-2 0 -12 9 -22 20 -10 11 -14 20 -9 20 5 0 15 -9 22 -20z m232 -20 c-6 -11
-13 -20 -16 -20 -2 0 0 9 6 20 6 11 13 20 16 20 2 0 0 -9 -6 -20z m6654 1 c3
-5 0 -13 -7 -19 -15 -13 -42 1 -33 17 9 13 33 15 40 2z m-7064 -31 c8 -5 11
-10 5 -10 -5 0 -17 5 -25 10 -8 5 -10 10 -5 10 6 0 17 -5 25 -10z m273 -69
l28 -34 25 24 c14 13 33 37 41 52 8 16 17 26 20 23 3 -3 -4 -21 -15 -39 -11
-19 -23 -48 -27 -65 -7 -34 -34 -50 -50 -30 -5 7 -19 15 -30 17 -11 1 -31 10
-45 18 -16 9 -18 12 -5 8 47 -16 55 -17 55 -4 0 8 -16 34 -35 58 -19 24 -35
47 -35 50 1 6 20 -15 73 -78z m-203 39 c8 -5 11 -10 5 -10 -5 0 -17 5 -25 10
-8 5 -10 10 -5 10 6 0 17 -5 25 -10z m6380 -35 c0 -8 -7 -15 -15 -15 -8 0 -15
7 -15 15 0 8 7 15 15 15 8 0 15 -7 15 -15z m-3470 -20 c0 -17 -23 -25 -40 -15
-11 7 -11 11 -1 24 14 17 41 11 41 -9z m-3585 -25 c3 -6 -1 -7 -9 -4 -18 7
-21 14 -7 14 6 0 13 -4 16 -10z m40 -20 c3 -6 -1 -7 -9 -4 -18 7 -21 14 -7 14
6 0 13 -4 16 -10z m-1928 -83 c-12 -37 -25 -67 -29 -67 -4 0 2 26 13 58 12 31
23 63 25 71 3 8 7 12 9 9 3 -2 -5 -34 -18 -71z m1968 63 c3 -6 -1 -7 -9 -4
-18 7 -21 14 -7 14 6 0 13 -4 16 -10z m129 -66 c59 -31 106 -58 106 -60 0 -5
-146 68 -192 96 -62 38 -19 20 86 -36z m-1917 -46 c-2 -18 -4 -6 -4 27 0 33 2
48 4 33 2 -15 2 -42 0 -60z m780 45 c-3 -10 -5 -4 -5 12 0 17 2 24 5 18 2 -7
2 -21 0 -30z m5108 -116 c-19 -64 -51 -156 -71 -203 -20 -48 -37 -96 -40 -107
-4 -21 -24 -40 -33 -31 -3 2 5 21 16 42 24 44 112 280 139 371 10 35 20 59 21
54 2 -5 -12 -62 -32 -126z m-5098 61 c-3 -8 -6 -5 -6 6 -1 11 2 17 5 13 3 -3
4 -12 1 -19z m-1010 -40 c-3 -8 -6 -5 -6 6 -1 11 2 17 5 13 3 -3 4 -12 1 -19z
m7383 -2 c0 -16 -18 -31 -27 -22 -8 8 5 36 17 36 5 0 10 -6 10 -14z m-5004
-34 c-5 -4 -66 26 -66 33 0 3 16 -3 35 -12 19 -9 33 -18 31 -21z m39 -20 c-3
-3 -11 0 -18 7 -9 10 -8 11 6 5 10 -3 15 -9 12 -12z m2905 1 c0 -5 -19 -26
-41 -48 -23 -22 -54 -68 -71 -102 -16 -35 -34 -63 -40 -63 -5 0 0 15 11 34 12
19 19 40 15 49 -3 9 16 37 53 76 55 57 73 71 73 54z m-2821 -17 c10 -6 9 -11
-2 -24 -8 -10 -17 -24 -20 -32 -4 -11 -6 -9 -6 5 -1 11 -10 27 -21 35 -11 8
-20 18 -20 22 0 9 51 5 69 -6z m4748 -8 c-3 -8 -6 -5 -6 6 -1 11 2 17 5 13 3
-3 4 -12 1 -19z m-421 -38 c8 0 13 -4 9 -9 -3 -6 10 -8 32 -5 38 4 38 4 7 -6
-29 -9 -54 -48 -33 -51 5 -1 13 -2 18 -3 5 0 13 -5 18 -10 5 -5 3 -6 -4 -2 -7
4 -13 3 -13 -1 0 -5 6 -15 13 -23 6 -8 0 -4 -15 9 -16 14 -28 20 -28 14 0 -12
45 -55 51 -48 3 2 21 -12 40 -33 l34 -37 -36 33 c-19 18 -38 30 -40 27 -3 -3
-18 9 -34 25 -33 34 -45 38 -45 13 0 -14 -4 -12 -17 7 -9 14 -20 27 -24 30
-19 13 -13 45 11 57 15 7 24 20 22 30 -2 17 -2 17 8 1 6 -10 18 -18 26 -18z
m431 -32 c-3 -8 -6 -5 -6 6 -1 11 2 17 5 13 3 -3 4 -12 1 -19z m-2762 -8 c-3
-5 -14 -10 -23 -10 -15 0 -15 2 -2 10 20 13 33 13 25 0z m183 -19 c-29 -22
-147 -91 -156 -91 -4 0 29 23 73 52 44 28 82 55 83 60 2 4 8 5 13 2 5 -3 -1
-14 -13 -23z m-3631 -63 c-2 -13 -4 -5 -4 17 -1 22 1 32 4 23 2 -10 2 -28 0
-40z m7111 14 c2 -7 -2 -10 -12 -6 -9 3 -16 11 -16 16 0 13 23 5 28 -10z m722
-47 c0 -8 -7 -15 -15 -15 -8 0 -15 7 -15 15 0 8 7 15 15 15 8 0 15 -7 15 -15z
m-7814 -73 c3 -20 9 -30 16 -26 7 5 8 2 2 -7 -5 -8 -8 -41 -7 -74 l2 -60 -9
45 c-5 25 -11 81 -14 125 -4 76 -3 75 10 -3z m3170 33 c-11 -8 -25 -15 -30
-15 -6 1 0 7 14 15 32 19 40 18 16 0z m-51 -25 c-3 -5 -16 -15 -28 -21 -19 -9
-19 -8 3 10 28 23 34 26 25 11z m2830 -10 c10 -11 16 -20 13 -20 -3 0 -13 9
-23 20 -10 11 -16 20 -13 20 3 0 13 -9 23 -20z m-1495 -10 c-6 -11 -13 -20
-16 -20 -2 0 0 9 6 20 6 11 13 20 16 20 2 0 0 -9 -6 -20z m1677 -32 c-3 -7 -5
-2 -5 12 0 14 2 19 5 13 2 -7 2 -19 0 -25z m-3073 12 c-17 -17 -126 -80 -138
-80 -6 0 16 16 49 35 33 20 67 40 75 45 20 12 26 12 14 0z m1186 -4 c0 -2 -8
-10 -17 -17 -16 -13 -17 -12 -4 4 13 16 21 21 21 13z m600 -87 c-23 -41 -46
-78 -52 -84 -6 -5 11 32 38 82 27 51 50 89 52 85 1 -5 -16 -42 -38 -83z m-421
59 c-15 -27 -80 -118 -85 -118 -2 0 0 8 3 18 6 15 5 16 -12 2 -11 -9 -5 5 14
33 17 26 34 47 37 47 3 0 -4 -14 -16 -31 -12 -16 -20 -32 -17 -35 5 -5 47 48
66 84 6 12 14 22 17 22 2 0 -1 -10 -7 -22z m-4509 -23 c-36 -19 -69 -34 -75
-34 -5 0 19 15 55 34 36 19 70 34 75 34 6 0 -19 -15 -55 -34z m2990 -39 c0 -2
-7 -7 -16 -10 -8 -3 -12 -2 -9 4 6 10 25 14 25 6z m-3240 -84 c-74 -37 -179
-87 -232 -111 -54 -24 -103 -50 -109 -57 -8 -9 3 -8 32 5 24 10 60 22 79 25
23 3 16 -1 -20 -13 -82 -26 -103 -40 -97 -62 3 -10 2 -17 -2 -16 -3 1 -8 -2
-10 -8 -3 -5 8 -13 25 -16 16 -4 23 -7 16 -8 -7 0 -18 -6 -25 -11 -7 -6 -36
-26 -65 -44 l-54 -33 43 -1 c23 -1 45 -5 48 -8 3 -3 -18 -4 -48 -3 l-54 4 -69
-82 c-38 -46 -71 -83 -74 -83 -6 0 98 132 138 176 16 17 26 33 23 36 -3 3 12
20 35 38 53 42 65 64 44 84 -8 9 -11 16 -5 16 5 0 8 15 7 33 -2 17 -1 22 1 10
2 -13 8 -23 12 -23 10 0 206 88 351 158 69 33 130 60 135 61 6 0 -51 -31 -125
-67z m6200 33 c0 -5 -5 -3 -10 5 -5 8 -10 20 -10 25 0 6 5 3 10 -5 5 -8 10
-19 10 -25z m308 -40 c0 -16 -2 -15 -8 5 -4 14 -8 34 -8 45 0 16 2 15 8 -5 4
-14 8 -34 8 -45z m-6145 -19 c3 -30 1 -43 -4 -35 -8 13 -13 97 -5 88 2 -2 6
-26 9 -53z m407 8 c0 -2 -7 -4 -15 -4 -8 0 -15 4 -15 10 0 5 7 7 15 4 8 -4 15
-8 15 -10z m4347 -1 c-53 -96 -124 -204 -86 -130 21 40 82 137 86 137 2 0 2
-3 0 -7z m-2883 -23 c16 -16 -37 -12 -75 6 l-34 15 50 -6 c27 -3 54 -10 59
-15z m36 -30 c11 -8 7 -9 -15 -4 -37 8 -45 14 -19 14 10 0 26 -5 34 -10z
m1116 -11 c8 -14 -10 -11 -32 6 -18 13 -18 14 4 8 12 -3 25 -9 28 -14z m-786
1 c-8 -5 -19 -10 -25 -10 -5 0 -3 5 5 10 8 5 20 10 25 10 6 0 3 -5 -5 -10z
m5765 1 c-3 -5 3 -12 12 -14 11 -3 8 -5 -9 -6 -29 -1 -38 13 -15 22 18 8 19 8
12 -2z m-8008 -8 c-20 -2 -52 -2 -70 0 -17 2 0 4 38 4 39 0 53 -2 32 -4z
m-144 -10 c-13 -2 -35 -2 -50 0 -16 2 -5 4 22 4 28 0 40 -2 28 -4z m-110 -10
c-7 -2 -21 -2 -30 0 -10 3 -4 5 12 5 17 0 24 -2 18 -5z m2174 -9 c-3 -3 -12
-4 -19 -1 -8 3 -5 6 6 6 11 1 17 -2 13 -5z m2498 -12 c-3 -3 -11 0 -18 7 -9
10 -8 11 6 5 10 -3 15 -9 12 -12z m1765 -47 c18 -22 20 -25 4 -12 -11 9 -23
17 -27 17 -8 0 -29 -67 -37 -124 l-8 -51 -1 45 c0 25 9 69 21 102 12 31 23 56
23 55 0 -1 11 -15 25 -32z m-6517 18 c-13 -2 -35 -2 -50 0 -16 2 -5 4 22 4 28
0 40 -2 28 -4z m332 -2 c17 -4 -33 -5 -110 -3 -181 4 -205 10 -45 10 69 0 139
-3 155 -7z m-457 -8 c-10 -2 -26 -2 -35 0 -10 3 -2 5 17 5 19 0 27 -2 18 -5z
m6395 -8 c4 -8 2 -17 -3 -20 -6 -4 -10 3 -10 14 0 25 6 27 13 6z m-5846 -1
c-3 -3 -12 -4 -19 -1 -8 3 -5 6 6 6 11 1 17 -2 13 -5z m1873 -4 c-8 -5 -22 -9
-30 -9 -10 0 -8 3 5 9 27 12 43 12 25 0z m-1725 -15 c44 -7 67 -13 50 -13 -16
0 -64 5 -105 12 -41 8 -64 14 -50 14 14 0 61 -5 105 -13z m4413 -7 c-8 -13
-39 -61 -68 -108 -49 -78 -85 -128 -65 -90 20 38 138 220 142 220 3 0 -1 -10
-9 -22z m-5408 8 c0 -2 -8 -10 -17 -17 -16 -13 -17 -12 -4 4 13 16 21 21 21
13z m338 -13 c-10 -2 -28 -2 -40 0 -13 2 -5 4 17 4 22 1 32 -1 23 -4z m-368
-47 c-41 -40 -110 -86 -128 -86 -4 0 9 10 28 22 19 12 57 41 85 65 64 56 72
55 15 -1z m287 38 c-3 -3 -12 -4 -19 -1 -8 3 -5 6 6 6 11 1 17 -2 13 -5z m446
-1 c-7 -2 -19 -2 -25 0 -7 3 -2 5 12 5 14 0 19 -2 13 -5z m420 0 c-7 -2 -21
-2 -30 0 -10 3 -4 5 12 5 17 0 24 -2 18 -5z m391 -2 c4 -5 -3 -7 -14 -4 -23 6
-26 13 -6 13 8 0 17 -4 20 -9z m1056 5 c0 -2 -7 -7 -16 -10 -8 -3 -12 -2 -9 4
6 10 25 14 25 6z m-2367 -13 c-7 -2 -19 -2 -25 0 -7 3 -2 5 12 5 14 0 19 -2
13 -5z m1186 -9 c8 -7 -143 -2 -194 6 -33 6 -10 7 70 3 66 -3 122 -7 124 -9z
m-1582 -16 c-3 -8 -6 -5 -6 6 -1 11 2 17 5 13 3 -3 4 -12 1 -19z m5503 18 c0
-2 -8 -10 -17 -17 -16 -13 -17 -12 -4 4 13 16 21 21 21 13z m1340 -16 c6 -11
8 -20 6 -20 -3 0 -10 9 -16 20 -6 11 -8 20 -6 20 3 0 10 -9 16 -20z m-5182 3
c-10 -2 -26 -2 -35 0 -10 3 -2 5 17 5 19 0 27 -2 18 -5z m181 -33 c64 -31 95
-40 139 -41 31 -1 48 -3 37 -6 -46 -10 -49 -13 -29 -28 10 -8 -8 -2 -41 14
-71 35 -184 86 -205 94 -13 5 -13 6 1 6 8 1 52 -17 98 -39z m8 34 c-3 -3 -12
-4 -19 -1 -8 3 -5 6 6 6 11 1 17 -2 13 -5z m993 -8 c-19 -8 -64 -26 -100 -41
-93 -38 -193 -75 -205 -75 -5 0 49 24 120 53 72 29 139 58 150 65 11 6 31 11
45 11 22 0 21 -2 -10 -13z m-1192 -13 c-10 -2 -28 -2 -40 0 -13 2 -5 4 17 4
22 1 32 -1 23 -4z m498 -49 c-4 -9 -11 -12 -18 -8 -7 5 -31 7 -53 7 l-40 -2
43 9 c52 11 62 17 63 38 1 10 4 7 6 -6 3 -13 2 -30 -1 -38z m474 41 c-46 -18
-64 -17 -25 0 17 8 37 14 45 14 8 0 -1 -7 -20 -14z m-2645 -72 c-9 -32 -19
-66 -22 -76 -3 -12 11 -3 36 22 23 23 44 40 49 39 8 -3 64 32 74 47 5 6 8 6 7
0 0 -5 -32 -41 -71 -80 -40 -39 -61 -56 -49 -38 12 18 26 35 31 38 6 4 10 12
10 18 -1 7 -27 -17 -60 -52 -52 -56 -59 -69 -57 -100 2 -31 -2 -38 -28 -50
-16 -8 -48 -26 -70 -40 -33 -21 -75 -35 -75 -25 0 1 22 16 48 32 51 31 140
151 127 172 -3 5 2 22 13 38 11 15 25 51 33 81 7 29 15 48 17 42 2 -6 -4 -37
-13 -68z m1768 60 c-13 -2 -33 -2 -45 0 -13 2 -3 4 22 4 25 0 35 -2 23 -4z
m5304 -10 c-23 -70 -46 -125 -46 -111 -1 18 39 128 47 128 2 0 2 -8 -1 -17z
m-5510 -9 c-3 -3 -12 -4 -19 -1 -8 3 -5 6 6 6 11 1 17 -2 13 -5z m350 -40 c-3
-3 -12 -4 -19 -1 -8 3 -5 6 6 6 11 1 17 -2 13 -5z m-50 -10 c-3 -3 -12 -4 -19
-1 -8 3 -5 6 6 6 11 1 17 -2 13 -5z m793 -19 c-19 -7 -42 -13 -50 -13 -8 0 1
6 20 13 19 7 42 13 50 13 8 0 -1 -6 -20 -13z m490 11 c0 -2 -7 -7 -16 -10 -8
-3 -12 -2 -9 4 6 10 25 14 25 6z m-2777 -13 c-7 -2 -19 -2 -25 0 -7 3 -2 5 12
5 14 0 19 -2 13 -5z m70 -10 c-7 -2 -19 -2 -25 0 -7 3 -2 5 12 5 14 0 19 -2
13 -5z m2116 3 c-12 -12 -109 -44 -109 -36 0 5 21 15 48 23 50 16 68 19 61 13z
m126 -18 c-27 -11 -86 -31 -130 -44 -44 -13 -134 -44 -200 -69 -65 -25 -127
-45 -138 -45 -10 0 -15 -4 -12 -10 3 -5 4 -10 2 -10 -3 0 -21 -7 -41 -15 -20
-8 -36 -13 -36 -10 0 3 13 11 30 16 16 6 28 15 25 19 -3 5 12 14 32 20 21 6
56 20 78 30 43 19 194 73 315 113 94 31 147 35 75 5z m425 18 c0 -2 -7 -7 -16
-10 -8 -3 -12 -2 -9 4 6 10 25 14 25 6z m-2592 -13 c-10 -2 -26 -2 -35 0 -10
3 -2 5 17 5 19 0 27 -2 18 -5z m65 -10 c-7 -2 -19 -2 -25 0 -7 3 -2 5 12 5 14
0 19 -2 13 -5z m6504 -25 c-3 -7 -5 -2 -5 12 0 14 2 19 5 13 2 -7 2 -19 0 -25z
m-6429 15 c-10 -2 -26 -2 -35 0 -10 3 -2 5 17 5 19 0 27 -2 18 -5z m1482 -26
c0 -5 -4 -6 -9 -3 -4 3 -22 1 -40 -4 -19 -5 -31 -5 -31 1 0 5 12 9 26 9 22 0
24 2 14 14 -10 13 -8 13 14 3 14 -7 26 -16 26 -20z m67 27 c-3 -3 -12 -4 -19
-1 -8 3 -5 6 6 6 11 1 17 -2 13 -5z m7378 -4 c3 -5 -3 -10 -14 -10 -12 0 -21
5 -21 10 0 6 6 10 14 10 8 0 18 -4 21 -10z m-8852 -7 c-7 -2 -21 -2 -30 0 -10
3 -4 5 12 5 17 0 24 -2 18 -5z m2317 2 c0 -5 -107 -55 -118 -55 -21 0 70 47
116 59 1 1 2 -1 2 -4z m2415 -25 c-9 -16 -18 -30 -21 -30 -2 0 2 14 11 30 9
17 18 30 21 30 2 0 -2 -13 -11 -30z m-4587 13 c-21 -2 -55 -2 -75 0 -21 2 -4
4 37 4 41 0 58 -2 38 -4z m90 -10 c-10 -2 -26 -2 -35 0 -10 3 -2 5 17 5 19 0
27 -2 18 -5z m1392 -13 c-8 -5 -17 -7 -19 -4 -3 3 1 9 9 14 8 5 17 7 19 4 3
-3 -1 -9 -9 -14z m-172 4 c12 -4 22 -10 22 -14 0 -10 -49 0 -56 11 -6 10 2 11
34 3z m-168 -24 c-8 -5 -19 -10 -25 -10 -5 0 -3 5 5 10 8 5 20 10 25 10 6 0 3
-5 -5 -10z m297 4 c-3 -3 -12 -4 -19 -1 -8 3 -5 6 6 6 11 1 17 -2 13 -5z
m4794 -38 c6 3 5 -3 -3 -15 -7 -12 -16 -21 -21 -21 -4 0 -5 6 0 12 4 7 7 24 7
38 -1 22 -1 23 3 2 2 -12 9 -20 14 -16z m-148 19 c4 -8 3 -16 -1 -19 -4 -3 -9
4 -9 15 -2 23 3 25 10 4z m24 -7 c-3 -8 -6 -5 -6 6 -1 11 2 17 5 13 3 -3 4
-12 1 -19z m-4714 1 c-6 -6 -53 -21 -106 -35 -110 -28 -176 -54 -196 -78 -8
-9 -24 -22 -35 -28 -18 -10 -18 -8 4 16 35 38 101 70 198 96 45 12 85 26 88
31 3 5 17 9 32 9 18 0 23 -3 15 -11z m1177 7 c0 -2 -7 -7 -16 -10 -8 -3 -12
-2 -9 4 6 10 25 14 25 6z m1978 -21 c-6 -14 -13 -23 -15 -21 -5 5 15 46 22 46
3 0 -1 -11 -7 -25z m4367 -5 c-3 -5 -14 -10 -23 -9 -14 0 -13 2 3 9 27 11 27
11 20 0z m-6405 -5 c0 -2 -10 -9 -22 -15 -22 -11 -22 -10 -4 4 21 17 26 19 26
11z m3642 -62 c7 -4 14 -16 14 -25 1 -10 -2 -15 -8 -12 -5 3 -17 0 -26 -8 -15
-12 -16 -11 -3 4 11 15 11 24 -3 58 -19 49 -20 68 0 23 7 -17 19 -35 26 -40z
m2675 41 c-3 -3 -12 -4 -19 -1 -8 3 -5 6 6 6 11 1 17 -2 13 -5z m-39 -9 c-8
-8 -270 -77 -274 -72 -2 2 40 16 94 30 171 47 190 52 180 42z m-6363 -13 c-10
-8 -48 -36 -125 -91 -55 -39 -22 -8 50 48 36 28 69 51 75 51 5 0 5 -3 0 -8z
m-455 -6 c0 -2 -8 -10 -17 -17 -16 -13 -17 -12 -4 4 13 16 21 21 21 13z
m-2910 -20 c0 -3 -4 -8 -10 -11 -5 -3 -10 -1 -10 4 0 6 5 11 10 11 6 0 10 -2
10 -4z m3579 0 c-2 -2 -15 -9 -29 -15 -24 -11 -24 -11 -6 3 16 13 49 24 35 12z
m-3609 -16 c0 -5 -5 -10 -11 -10 -5 0 -7 5 -4 10 3 6 8 10 11 10 2 0 4 -4 4
-10z m3240 -4 c0 -3 -39 -31 -87 -63 -49 -32 -101 -70 -118 -84 -49 -43 -207
-145 -257 -167 -67 -29 -60 -18 11 17 66 33 163 96 230 150 38 31 211 150 219
151 1 0 2 -2 2 -4z m-1260 -10 c0 -6 -93 -37 -97 -32 -2 2 15 11 39 19 47 17
58 19 58 13z m1570 0 c0 -2 -15 -13 -33 -24 -19 -11 -46 -27 -60 -37 -15 -9
-27 -15 -27 -12 0 5 110 77 117 77 2 0 3 -2 3 -4z m1385 -16 c10 -11 16 -20
13 -20 -3 0 -13 9 -23 20 -10 11 -16 20 -13 20 3 0 13 -9 23 -20z m4532 4 c-3
-3 -12 -4 -19 -1 -8 3 -5 6 6 6 11 1 17 -2 13 -5z m-9533 -16 c-4 -7 -13 -20
-20 -28 -7 -8 -31 -52 -53 -96 -39 -78 -53 -145 -32 -158 5 -3 11 -16 14 -28
6 -22 5 -21 -18 4 -13 15 -35 30 -49 34 -29 7 -26 24 5 24 10 0 19 7 19 15 0
22 77 173 109 212 27 34 38 43 25 21z m3186 7 c0 -2 -10 -9 -22 -15 -22 -11
-22 -10 -4 4 21 17 26 19 26 11z m2293 -44 c-15 -28 -29 -48 -31 -46 -4 4 48
95 55 95 2 0 -8 -22 -24 -49z m3974 33 c-3 -3 -12 -4 -19 -1 -8 3 -5 6 6 6 11
1 17 -2 13 -5z m-8076 -21 c13 -16 12 -17 -3 -4 -17 13 -22 21 -14 21 2 0 10
-8 17 -17z m539 8 c-8 -5 -26 -11 -40 -15 -21 -5 -20 -3 5 9 32 15 60 20 35 6z
m5200 5 c0 -2 -8 -10 -17 -17 -16 -13 -17 -12 -4 4 13 16 21 21 21 13z m-3980
-9 c0 -2 -15 -13 -32 -26 l-33 -22 28 25 c26 24 37 31 37 23z m1915 -15 c-3
-3 -11 0 -18 7 -9 10 -8 11 6 5 10 -3 15 -9 12 -12z m4270 2 c-27 -7 -104 -25
-170 -39 -66 -13 -183 -41 -259 -60 -77 -19 -155 -35 -175 -34 -23 1 -1 8 59
19 52 10 117 26 143 35 26 10 130 34 230 55 184 39 263 50 172 24z m-6035 -10
c-8 -8 -23 -20 -34 -25 -13 -7 -9 -1 9 15 34 29 43 33 25 10z m-1245 -4 c-3
-5 -14 -10 -23 -10 -15 0 -15 2 -2 10 20 13 33 13 25 0z m-265 -20 c-8 -5 -22
-9 -30 -9 -10 0 -8 3 5 9 27 12 43 12 25 0z m2144 -42 c-27 -29 -115 -120
-194 -203 -80 -82 -196 -207 -259 -277 -115 -129 -160 -172 -79 -76 119 142
561 608 577 608 3 0 -17 -24 -45 -52z m256 -4 c0 -3 -13 4 -30 16 -16 12 -30
24 -30 26 0 3 14 -4 30 -16 17 -12 30 -24 30 -26z m-970 32 c0 -2 -31 -27 -70
-55 -38 -28 -70 -48 -70 -46 0 5 131 104 138 105 1 0 2 -2 2 -4z m500 -1 c0
-8 -62 -37 -67 -31 -3 3 10 12 28 20 42 18 39 17 39 11z m-655 -13 c-13 -12
-281 -174 -370 -225 -38 -22 -119 -74 -180 -117 -115 -81 -147 -101 -130 -82
35 38 324 224 580 373 97 57 119 68 100 51z m330 -18 c-24 -18 -83 -50 -73
-39 10 10 81 54 88 54 3 0 -4 -7 -15 -15z m2035 -65 c-16 -40 -29 -68 -30 -62
0 16 51 145 56 140 2 -2 -10 -37 -26 -78z m3011 28 c3 -4 25 -11 50 -16 l44
-9 -42 -1 c-23 -1 -45 4 -48 9 -3 6 -11 10 -16 10 -6 0 -7 -4 -4 -10 3 -5 -3
-10 -14 -10 -23 0 -36 16 -22 25 7 4 7 15 0 33 l-10 27 28 -25 c15 -14 30 -28
34 -33z m-5848 1 c-93 -77 -299 -232 -277 -209 20 22 299 239 307 240 5 1 -9
-14 -30 -31z m1032 20 c-11 -6 -46 -29 -77 -50 -32 -21 -58 -36 -58 -34 0 8
133 96 145 96 5 0 1 -6 -10 -12z m596 -5 c13 -16 12 -17 -3 -4 -17 13 -22 21
-14 21 2 0 10 -8 17 -17z m-1681 -7 c0 -2 -8 -10 -17 -17 -16 -13 -17 -12 -4
4 13 16 21 21 21 13z m2685 -46 c27 -27 47 -50 44 -50 -3 0 -27 23 -54 50 -27
28 -47 50 -44 50 3 0 27 -22 54 -50z m-1916 26 c-3 -3 -192 -111 -234 -134 -5
-3 -6 -1 -2 4 11 12 219 132 231 133 5 1 7 -1 5 -3z m4751 -6 c0 -5 -7 -10
-15 -10 -8 0 -15 5 -15 10 0 6 7 10 15 10 8 0 15 -4 15 -10z m-5560 -3 c0 -2
-10 -12 -22 -23 l-23 -19 19 23 c18 21 26 27 26 19z m6163 -4 c-7 -2 -21 -2
-30 0 -10 3 -4 5 12 5 17 0 24 -2 18 -5z m-6319 -41 c-17 -15 -55 -47 -85 -71
-39 -32 -33 -24 21 27 41 39 80 71 85 71 6 0 -4 -12 -21 -27z m106 5 c0 -2
-10 -12 -22 -23 l-23 -19 19 23 c18 21 26 27 26 19z m-910 -17 c0 -5 -8 -10
-17 -10 -15 0 -16 2 -3 10 19 12 20 12 20 0z m1940 6 c0 -2 -8 -10 -17 -17
-16 -13 -17 -12 -4 4 13 16 21 21 21 13z m3870 -11 c0 -9 -6 -12 -15 -9 -8 4
-15 10 -15 15 0 5 7 9 15 9 8 0 15 -7 15 -15z m-4289 -24 c-31 -23 -90 -57
-76 -44 13 14 88 63 95 63 3 0 -6 -9 -19 -19z m-1601 5 c0 -2 -13 -9 -30 -15
-35 -12 -41 -5 -7 9 25 10 37 12 37 6z m916 -4 c-3 -5 -34 -30 -68 -56 -264
-196 -327 -248 -409 -334 -95 -100 -86 -83 17 33 58 65 223 199 379 308 85 59
89 62 81 49z m568 -9 c-12 -4 -81 -52 -664 -463 -112 -79 -234 -155 -225 -140
3 6 95 70 203 142 108 72 222 150 252 172 30 22 82 59 115 81 33 23 85 59 115
82 98 73 204 142 210 136 3 -3 0 -7 -6 -10z m2453 -25 c-3 -7 -5 -2 -5 12 0
14 2 19 5 13 2 -7 2 -19 0 -25z m-2356 -27 c-31 -23 -90 -57 -76 -44 13 14 88
63 95 63 3 0 -6 -9 -19 -19z m-86 -7 c-24 -18 -83 -50 -73 -39 10 10 81 54 88
54 3 0 -4 -7 -15 -15z m2485 -15 c12 -9 11 -10 -7 -6 -20 4 -22 0 -26 -42 l-3
-46 -2 53 c-2 54 7 63 38 41z m127 -21 c-3 -8 -6 -5 -6 6 -1 11 2 17 5 13 3
-3 4 -12 1 -19z m-1467 4 c0 -5 -7 -17 -15 -28 -14 -18 -14 -17 -4 9 12 27 19
34 19 19z m-4140 -12 c0 -5 -2 -10 -4 -10 -3 0 -8 5 -11 10 -3 6 -1 10 4 10 6
0 11 -4 11 -10z m1705 -19 c-53 -24 -92 -36 -82 -25 11 11 88 42 107 42 8 0
-3 -7 -25 -17z m1005 15 c0 -2 -19 -19 -42 -36 l-43 -32 40 36 c40 36 45 39
45 32z m200 0 c0 -2 -8 -10 -17 -17 -16 -13 -17 -12 -4 4 13 16 21 21 21 13z
m65 -12 c-26 -20 -55 -36 -55 -30 0 5 63 46 70 46 3 -1 -4 -8 -15 -16z m1925
13 c0 -2 -15 -13 -32 -26 l-33 -22 28 25 c26 24 37 31 37 23z m-2590 -44 c-24
-21 -46 -38 -50 -38 -3 0 -25 -14 -50 -31 -53 -36 -90 -57 -90 -50 0 3 14 13
32 22 18 9 60 42 93 73 33 31 50 44 38 30 -37 -41 -26 -44 17 -5 22 20 43 36
47 36 4 0 -13 -17 -37 -37z m-2280 17 c-19 -13 -30 -13 -30 0 0 6 10 10 23 10
18 0 19 -2 7 -10z m2823 -18 c-12 -9 -48 -33 -79 -52 -31 -19 -87 -54 -123
-78 -52 -34 -59 -37 -31 -12 19 17 55 42 80 56 25 14 72 43 105 64 63 41 85
51 48 22z m57 -6 c0 -2 -12 -11 -27 -20 l-28 -17 24 20 c23 21 31 25 31 17z
m-295 -26 c-3 -5 -12 -10 -18 -10 -7 0 -6 4 3 10 19 12 23 12 15 0z m235 -14
c0 -3 -15 -14 -32 -26 l-33 -22 30 26 c31 27 35 29 35 22z m2618 -101 l0 -40
-9 40 c-4 22 -8 54 -7 70 l0 30 8 -30 c4 -16 8 -48 8 -70z m-1408 77 c0 -5 -7
-17 -15 -28 -14 -18 -14 -17 -4 9 12 27 19 34 19 19z m-1280 -26 c0 -2 -8 -10
-17 -17 -16 -13 -17 -12 -4 4 13 16 21 21 21 13z m-590 -10 c0 -2 -25 -22 -55
-45 -30 -23 -55 -39 -55 -37 0 5 102 85 108 86 1 0 2 -2 2 -4z m220 -10 c0 -2
-8 -10 -17 -17 -16 -13 -17 -12 -4 4 13 16 21 21 21 13z m-301 -9 c-2 -2 -24
-18 -49 -36 l-45 -33 39 36 c22 20 44 36 49 36 6 0 8 -1 6 -3z m601 -20 c0 -2
-12 -14 -27 -28 l-28 -24 24 28 c23 25 31 32 31 24z m6544 -3 c9 -4 16 -18 16
-34 0 -31 -30 -46 -62 -29 -17 9 -25 49 -11 62 8 9 36 9 57 1z m-3835 -54 c0
-9 -4 -8 -9 5 -5 11 -9 27 -9 35 0 9 4 8 9 -5 5 -11 9 -27 9 -35z m-3496 -13
c-29 -28 -61 -62 -70 -73 -10 -12 -60 -57 -112 -99 -87 -73 -92 -79 -72 -90
17 -8 19 -13 9 -23 -17 -17 -28 -15 -29 6 0 10 -3 12 -6 4 -2 -6 -9 -10 -13
-7 -5 3 -26 -10 -47 -28 -21 -19 -79 -67 -130 -108 -77 -63 -103 -92 -163
-184 -64 -98 -140 -188 -140 -166 0 9 54 86 81 114 10 11 15 25 12 33 -3 8 1
14 10 14 9 0 15 8 14 18 0 9 15 42 35 73 40 62 111 123 390 331 62 46 135 109
211 182 74 71 89 73 20 3z m657 39 c0 -2 -8 -10 -17 -17 -16 -13 -17 -12 -4 4
13 16 21 21 21 13z m4865 -16 c10 -11 16 -20 13 -20 -3 0 -13 9 -23 20 -10 11
-16 20 -13 20 3 0 13 -9 23 -20z m-5388 -22 c-22 -12 -179 -142 -253 -209 -56
-50 -92 -74 -101 -65 -6 6 47 55 60 56 5 0 27 18 50 39 59 55 251 201 257 194
3 -2 -3 -9 -13 -15z m483 9 c0 -2 -19 -21 -42 -42 l-43 -40 40 43 c36 39 45
47 45 39z m100 0 c0 -2 -12 -14 -27 -28 l-28 -24 24 28 c23 25 31 32 31 24z
m2837 -19 c-3 -8 -6 -5 -6 6 -1 11 2 17 5 13 3 -3 4 -12 1 -19z m2807 -34 c3
-9 6 -29 6 -45 0 -25 -4 -29 -28 -29 -28 0 -52 30 -52 65 0 26 64 35 74 9z
m-5704 3 c0 -2 -15 -16 -32 -33 l-33 -29 29 33 c28 30 36 37 36 29z m2077 -49
c-2 -13 -4 -5 -4 17 -1 22 1 32 4 23 2 -10 2 -28 0 -40z m565 27 c0 -8 1 -21
2 -27 1 -7 -9 -14 -21 -14 -12 -1 -20 2 -18 7 3 4 0 11 -6 15 -9 5 -7 11 6 21
24 17 35 17 37 -2z m-2772 -9 c0 -2 -8 -10 -17 -17 -16 -13 -17 -12 -4 4 13
16 21 21 21 13z m44 -60 c-24 -18 -29 -14 -12 13 8 13 16 17 22 11 6 -6 3 -15
-10 -24z m906 31 c0 -2 -10 -12 -22 -23 l-23 -19 19 23 c18 21 26 27 26 19z
m1278 -82 c0 -16 -2 -15 -8 5 -4 14 -8 34 -8 45 0 16 2 15 8 -5 4 -14 8 -34 8
-45z m-1318 31 c0 -2 -8 -10 -17 -17 -16 -13 -17 -12 -4 4 13 16 21 21 21 13z
m-30 -40 c0 -2 -8 -10 -17 -17 -16 -13 -17 -12 -4 4 13 16 21 21 21 13z m2236
-16 c0 -12 -4 -16 -9 -11 -5 5 -6 14 -3 20 10 15 12 14 12 -9z m-3636 -140
c-19 -12 -40 -13 -40 -1 0 9 40 20 50 13 2 -2 -2 -7 -10 -12z m2990 -54 c0 -3
-4 -8 -10 -11 -5 -3 -10 -1 -10 4 0 6 5 11 10 11 6 0 10 -2 10 -4z m-52 -68
c-6 -18 -28 -21 -28 -4 0 9 7 16 16 16 9 0 14 -5 12 -12z m-3378 -48 c0 -5 -4
-10 -10 -10 -5 0 -10 5 -10 10 0 6 5 10 10 10 6 0 10 -4 10 -10z m3417 -12
c-3 -8 -6 -5 -6 6 -1 11 2 17 5 13 3 -3 4 -12 1 -19z m1743 -8 c0 -23 -22 -27
-39 -7 -13 16 -5 27 21 27 11 0 18 -7 18 -20z m-2580 -79 c0 -5 3 -16 6 -25 7
-17 -3 -20 -24 -8 -7 5 -10 16 -6 25 7 18 24 23 24 8z m1859 -21 c16 0 131
-80 131 -91 0 -5 11 -9 24 -9 14 0 27 -4 30 -9 3 -5 24 -18 47 -30 22 -12 50
-30 61 -41 12 -11 28 -20 35 -20 8 0 11 -5 8 -10 -4 -6 -33 4 -73 26 -86 47
-103 59 -95 67 3 4 0 7 -8 7 -38 0 -207 109 -209 134 0 5 8 2 18 -7 10 -10 24
-17 31 -17z m445 -11 c-8 -14 -34 -11 -34 4 0 8 3 17 7 20 9 9 34 -13 27 -24z
m-1607 -31 c-3 -8 -6 -5 -6 6 -1 11 2 17 5 13 3 -3 4 -12 1 -19z m2841 -10 c3
-13 -3 -18 -22 -18 -20 0 -26 5 -26 21 0 15 5 20 22 17 13 -2 24 -11 26 -20z
m-3509 -65 c28 1 51 -1 51 -5 0 -5 -14 -8 -32 -8 -17 0 -40 -7 -50 -17 -15
-13 -18 -13 -18 -2 0 8 -8 15 -17 15 -10 1 -24 3 -32 5 -8 2 -61 -53 -130
-137 -64 -77 -143 -165 -175 -195 -33 -30 -72 -67 -88 -83 -15 -16 -28 -24
-28 -19 0 6 19 30 43 55 64 67 307 355 352 417 l39 54 17 -41 c18 -41 18 -41
68 -39z m860 47 c9 0 34 -51 28 -56 -2 -2 -17 -1 -34 2 -25 5 -30 11 -31 36
-1 23 3 28 14 24 9 -3 19 -6 23 -6z m-3789 -125 c0 -21 -37 -47 -62 -43 -36 5
-37 52 -1 72 25 13 30 13 46 -1 9 -9 17 -21 17 -28z m6098 8 c3 -17 -3 -24
-23 -29 -32 -8 -59 14 -49 40 10 27 68 18 72 -11z m-2398 -2 c0 -9 -41 -23
-48 -16 -2 2 -1 8 3 14 8 13 45 15 45 2z m1435 -49 c-3 -3 -11 0 -18 7 -9 10
-8 11 6 5 10 -3 15 -9 12 -12z m83 -38 c-6 -6 -58 20 -58 29 0 4 14 0 31 -8
17 -9 29 -18 27 -21z m-3788 -19 c-7 -8 -20 -15 -29 -15 -12 0 -10 5 9 20 28
21 39 18 20 -5z m2583 11 c24 -10 33 -20 35 -40 1 -15 6 -36 12 -46 13 -24 13
-40 0 -40 -5 0 -10 7 -10 16 0 19 -33 50 -75 69 -20 10 -24 14 -12 15 14 0 17
5 12 20 -8 24 -4 24 38 6z m1572 -76 c0 -30 -33 -40 -51 -15 -19 25 -6 47 25
43 20 -2 26 -8 26 -28z m-4305 -59 c0 -22 -29 -36 -43 -22 -15 15 0 41 23 41
13 0 20 -7 20 -19z m700 -26 c17 -20 5 -45 -20 -45 -11 0 -23 7 -26 15 -6 15
11 45 26 45 4 0 13 -7 20 -15z m6554 -90 c32 -30 36 -79 7 -95 -33 -17 -71
-11 -96 15 -67 66 20 144 89 80z m-5144 -145 c0 -4 -6 -10 -14 -13 -21 -8 -36
15 -29 43 l6 23 19 -22 c10 -13 18 -27 18 -31z m1251 34 c9 -11 10 -20 2 -32
-13 -22 -43 -22 -56 -1 -24 38 25 68 54 33z m-3966 -94 c17 -18 17 -21 1 -45
-16 -25 -39 -31 -70 -19 -22 8 -20 26 5 58 24 31 40 33 64 6z m6199 -6 c44
-43 -10 -99 -56 -57 -23 20 -23 49 0 62 24 15 38 13 56 -5z m-6038 -55 c3 -6
-3 -20 -14 -32 -18 -17 -23 -18 -37 -7 -14 12 -14 15 1 31 19 21 39 24 50 8z
m202 -296 c15 -29 -15 -83 -45 -83 -23 0 -38 46 -25 75 14 30 57 34 70 8z
m1142 -57 c0 -2 -7 -6 -15 -10 -8 -3 -15 -1 -15 4 0 6 7 10 15 10 8 0 15 -2
15 -4z m-55 -35 c-3 -6 -11 -11 -16 -11 -5 0 -4 6 3 14 14 16 24 13 13 -3z
m4025 -125 c19 -23 8 -61 -18 -64 -13 -2 -30 2 -38 8 -14 13 -19 51 -7 63 12
12 50 7 63 -7z m-4417 -10 c24 -19 21 -41 -9 -65 -32 -25 -43 -26 -72 -5 -26
18 -20 36 24 65 34 22 34 22 57 5z m367 -195 c0 -44 -54 -80 -91 -61 -28 15
-25 65 6 96 24 24 26 24 55 9 23 -12 30 -22 30 -44z m-582 -24 c6 -29 -26 -59
-49 -46 -36 19 -15 73 26 67 11 -2 21 -11 23 -21z m-543 -38 c5 -23 11 -29 23
-24 27 11 142 19 142 10 0 -15 -75 -76 -141 -115 -77 -46 -121 -92 -195 -206
-82 -125 -140 -160 -138 -83 1 27 17 59 63 124 58 85 72 115 52 115 -6 0 6 17
24 38 19 20 35 43 35 50 0 32 32 72 63 80 18 4 36 17 42 29 12 27 22 21 30
-18z m-652 -150 c28 -44 -25 -95 -72 -69 -27 14 -27 40 0 69 23 25 56 25 72 0z
m-109 -305 c39 -15 7 -77 -55 -109 -34 -18 -58 -14 -83 14 -16 18 -16 22 -2
50 9 16 24 35 33 40 20 12 83 14 107 5z m2994 -303 c3 -26 -1 -33 -23 -41 -37
-14 -65 3 -65 40 0 40 35 65 65 46 11 -7 21 -27 23 -45z m844 42 c24 -21 23
-44 -2 -71 -26 -28 -35 -28 -65 3 -30 29 -31 39 -5 65 24 24 47 25 72 3z
m-224 -215 c17 -14 15 -73 -3 -88 -22 -18 -64 -15 -80 6 -47 62 22 130 83 82z
m-1573 -833 c29 -28 32 -63 10 -105 -28 -53 -91 -67 -139 -29 -36 28 -37 94
-1 133 33 36 95 37 130 1z m-3030 -150 c59 -24 73 -103 30 -167 -60 -89 -172
-96 -212 -14 -21 45 -7 99 36 140 22 21 81 51 109 56 1 0 18 -7 37 -15z"/>
<path d="M5900 7235 c-11 -13 -10 -14 4 -9 9 3 16 10 16 15 0 13 -6 11 -20 -6z"/>
<path d="M5280 6070 c-19 -17 -20 -21 -7 -26 20 -7 54 23 40 37 -6 6 -18 2
-33 -11z"/>
<path d="M5320 6041 c-9 -17 -1 -25 58 -64 37 -25 69 -44 71 -42 8 9 -62 85
-72 78 -7 -3 -9 -2 -4 2 7 9 -20 45 -34 45 -5 0 -13 -9 -19 -19z"/>
<path d="M5220 6009 c-14 -12 -63 -56 -110 -98 -107 -98 -138 -124 -227 -190
-40 -30 -69 -59 -66 -65 3 -6 2 -8 -2 -3 -5 4 -16 0 -26 -9 -16 -15 -17 -20
-4 -49 10 -25 10 -35 2 -38 -7 -3 -13 6 -14 20 0 14 -7 30 -14 37 -8 6 -10 7
-6 2 4 -5 -5 -17 -19 -27 l-27 -17 34 -21 c22 -13 37 -17 43 -11 15 15 30 12
17 -3 -8 -10 -2 -22 27 -49 79 -75 75 -75 149 6 36 39 88 94 117 121 29 28 72
72 97 99 51 57 32 50 -68 -25 -37 -27 -52 -36 -33 -19 45 41 118 91 134 94 7
1 40 25 72 54 126 111 66 43 -136 -155 -116 -114 -216 -216 -222 -226 -7 -14
-5 -23 8 -38 21 -24 32 -24 58 -1 21 17 21 17 2 -5 -18 -22 -18 -24 -1 -43 10
-11 21 -20 24 -20 3 0 18 19 34 43 15 23 48 65 74 92 26 28 34 34 19 15 -84
-109 -116 -153 -116 -161 0 -16 22 -9 41 14 l20 22 -16 -27 c-28 -46 1 -66 37
-25 l20 22 -17 -28 c-13 -22 -14 -31 -4 -43 21 -25 34 -15 84 63 78 121 203
293 251 345 24 26 44 53 44 61 0 18 34 49 44 40 4 -4 4 0 1 9 -4 9 -1 19 6 24
8 5 10 3 4 -7 -8 -12 -6 -12 8 0 18 14 24 36 7 26 -5 -3 -7 0 -4 8 10 26 -27
29 -54 5 l-25 -23 18 28 c14 22 15 30 5 42 -10 12 -16 13 -28 3 -10 -8 -13 -8
-9 -2 10 17 -30 24 -44 8 -6 -8 -16 -11 -22 -7 -5 3 -7 2 -4 -4 4 -6 -24 -37
-61 -69 -45 -40 -60 -49 -45 -29 11 17 35 43 52 58 18 15 29 32 26 37 -3 5 8
17 25 26 16 10 30 21 30 24 0 4 -161 100 -179 107 -3 1 -17 -7 -31 -18z m70
-21 c0 -7 -11 -18 -25 -24 -24 -12 -24 -12 -7 12 19 26 32 31 32 12z m130
-181 c0 -2 -10 -12 -22 -23 l-23 -19 19 23 c18 21 26 27 26 19z m8 -92 c-64
-90 -91 -117 -37 -37 38 56 89 122 94 122 2 0 -23 -38 -57 -85z m-448 30 c-13
-14 -26 -22 -29 -19 -3 3 5 14 19 24 34 27 38 25 10 -5z m361 -13 c-5 -10 -18
-25 -27 -33 -11 -9 -9 -2 6 19 26 35 36 42 21 14z m-426 -10 c-6 -4 -22 -18
-37 -31 -16 -14 -28 -20 -28 -15 0 5 15 19 33 32 30 21 52 31 32 14z m429 -54
c-13 -22 -97 -128 -101 -128 -2 0 2 8 9 18 7 9 30 41 51 70 35 47 59 71 41 40z
m-474 -38 c-6 -11 -13 -20 -16 -20 -2 0 0 9 6 20 6 11 13 20 16 20 2 0 0 -9
-6 -20z m481 -27 c-5 -10 -20 -29 -33 -43 -13 -14 -39 -47 -58 -73 -19 -26
-43 -58 -53 -70 -18 -21 -18 -21 0 8 24 41 60 90 106 148 40 48 55 60 38 30z
m-241 -57 c0 -2 -8 -10 -17 -17 -16 -13 -17 -12 -4 4 13 16 21 21 21 13z m100
-56 c-12 -16 -24 -30 -26 -30 -3 0 4 14 16 30 12 17 24 30 26 30 3 0 -4 -13
-16 -30z m-200 -33 c0 -2 -10 -12 -22 -23 l-23 -19 19 23 c18 21 26 27 26 19z
m40 -11 c0 -2 -8 -10 -17 -17 -16 -13 -17 -12 -4 4 13 16 21 21 21 13z m74
-61 c-9 -14 -18 -25 -21 -25 -5 0 5 18 20 38 17 22 18 13 1 -13z"/>
<path d="M3965 5800 c-71 -37 -187 -94 -257 -127 -142 -64 -140 -61 -52 -109
l31 -17 184 90 c101 50 201 97 221 104 21 7 40 19 43 27 4 12 -29 103 -37 101
-2 0 -61 -31 -133 -69z"/>
<path d="M4100 5727 c-25 -12 -47 -30 -49 -41 -3 -16 1 -18 30 -12 l34 6 -37
-22 c-34 -21 -76 -56 -205 -172 -39 -35 -42 -40 -26 -51 10 -7 21 -11 26 -8 4
2 6 -1 5 -8 -3 -14 97 -79 122 -79 15 0 184 162 214 206 13 18 11 29 -22 112
-20 51 -39 92 -42 92 -3 -1 -25 -11 -50 -23z m90 -183 c-8 -8 -23 -20 -34 -25
-13 -7 -9 -1 9 15 34 29 43 33 25 10z m-75 -54 c-3 -5 -12 -10 -18 -10 -7 0
-6 4 3 10 19 12 23 12 15 0z m-170 -70 c-28 -12 -37 -12 -30 0 3 6 16 10 28 9
21 0 21 -1 2 -9z"/>
<path d="M4359 5692 c-23 -26 -23 -26 -1 -8 12 11 22 16 22 11 0 -12 -82 -106
-88 -100 -7 6 -42 -25 -42 -38 0 -5 12 -2 28 7 l27 17 -23 -20 c-22 -19 -23
-23 -11 -56 7 -19 17 -35 21 -35 15 0 226 109 234 121 8 13 6 13 -61 -22 -27
-15 -61 -29 -75 -33 -14 -4 8 11 49 33 41 22 83 41 95 43 36 5 24 21 -48 61
-88 49 -99 51 -127 19z m58 -8 c-3 -3 -12 -4 -19 -1 -8 3 -5 6 6 6 11 1 17 -2
13 -5z m79 -37 c4 -3 -4 -4 -16 -2 -30 6 -40 16 -12 12 12 -2 24 -6 28 -10z"/>
<path d="M4658 5676 c-24 -19 -62 -46 -83 -60 -48 -33 -31 -33 33 -1 28 14 64
28 81 31 17 4 31 11 31 16 0 5 5 6 11 2 8 -5 8 -1 0 14 -18 34 -26 33 -73 -2z"/>
<path d="M3989 5671 c-14 -9 -24 -23 -22 -31 4 -12 3 -13 -5 -1 -8 11 -14 11
-38 -3 -16 -9 -74 -36 -129 -61 l-99 -46 28 -14 c15 -8 33 -12 39 -8 6 3 7 1
3 -5 -4 -7 6 -18 25 -27 29 -15 32 -15 50 1 10 9 16 21 12 27 -3 5 -2 7 4 4 5
-4 42 21 82 55 56 49 70 66 65 82 -4 15 -3 17 4 7 12 -17 26 3 15 22 -7 12
-12 11 -34 -2z m-54 -71 c-11 -5 -27 -9 -35 -9 -9 0 -8 4 5 9 11 5 27 9 35 9
9 0 8 -4 -5 -9z"/>
<path d="M4312 5635 c-25 -29 -29 -43 -6 -25 15 13 38 50 31 50 -2 0 -13 -11
-25 -25z"/>
<path d="M4675 5620 c-32 -16 -35 -18 -11 -13 19 4 27 2 22 -5 -12 -21 28 -5
42 16 18 28 4 28 -53 2z"/>
<path d="M3478 5603 c7 -3 16 -2 19 1 4 3 -2 6 -13 5 -11 0 -14 -3 -6 -6z"/>
<path d="M3445 5550 c-38 -16 -60 -30 -48 -30 11 0 50 13 85 30 80 38 55 38
-37 0z"/>
<path d="M4453 5532 c-40 -20 -73 -40 -73 -45 0 -4 10 -2 23 4 20 11 21 11 9
-4 -8 -9 -24 -19 -35 -23 -12 -3 -32 -16 -44 -27 -13 -11 -23 -15 -23 -9 0 7
9 17 20 24 11 7 20 16 20 21 0 4 -11 0 -25 -9 -26 -17 -32 -38 -15 -49 6 -4
27 4 48 17 20 13 51 30 67 39 17 9 30 23 30 32 0 9 4 19 9 24 5 4 6 3 2 -4 -9
-17 14 -28 27 -13 9 10 9 11 -3 6 -9 -5 -9 -2 2 7 10 8 14 18 10 22 -4 5 -1 5
6 1 7 -4 10 -12 7 -17 -9 -13 7 -10 29 6 18 14 14 35 -7 34 -7 0 -45 -17 -84
-37z m97 24 c0 -11 -19 -15 -25 -6 -3 5 1 10 9 10 9 0 16 -2 16 -4z"/>
<path d="M4608 5544 c-16 -8 -28 -19 -28 -24 0 -6 -14 -19 -32 -30 -24 -14
-35 -16 -45 -8 -11 9 -12 7 -6 -8 6 -16 4 -17 -8 -7 -12 10 -29 4 -89 -30 -41
-24 -75 -47 -75 -52 0 -20 130 -333 136 -329 4 2 5 -4 2 -15 -2 -10 5 -38 18
-62 12 -24 27 -64 33 -88 l12 -43 44 88 c54 107 124 213 239 357 47 59 87 111
88 115 2 10 -108 102 -123 102 -17 0 -157 -171 -274 -334 -30 -42 -56 -76 -58
-76 -9 0 77 121 163 228 115 144 145 186 142 196 -11 34 -93 45 -139 20z
m-141 -96 c-10 -5 -33 -22 -50 -37 -53 -44 -71 -57 -63 -43 4 7 2 12 -5 12 -7
0 5 13 27 30 21 16 46 30 55 30 9 0 22 7 29 15 7 9 16 13 19 9 3 -3 -2 -10
-12 -16z m83 -1 c0 -2 -12 -14 -27 -28 l-28 -24 24 28 c23 25 31 32 31 24z
m-110 -121 c0 -2 -8 -10 -17 -17 -16 -13 -17 -12 -4 4 13 16 21 21 21 13z m70
-230 c0 -2 -8 -10 -17 -17 -16 -13 -17 -12 -4 4 13 16 21 21 21 13z m49 -160
c-31 -45 -37 -39 -7 7 12 20 25 34 27 32 2 -3 -7 -20 -20 -39z"/>
<path d="M4166 5474 c-45 -50 -56 -68 -46 -74 18 -11 53 7 44 23 -4 7 -3 9 1
4 11 -9 85 62 85 81 0 7 -4 10 -10 7 -6 -3 -7 1 -4 9 12 32 -12 14 -70 -50z"/>
<path d="M4530 5504 c-16 -8 -19 -14 -9 -14 8 0 24 7 35 15 24 18 7 18 -26 -1z"/>
<path d="M4198 5428 c-36 -37 -52 -48 -65 -43 -10 4 -22 8 -28 10 -12 4 -70
-63 -62 -71 7 -8 101 40 157 80 70 50 79 52 30 7 -25 -23 -73 -58 -107 -79
-35 -20 -63 -39 -63 -42 0 -3 14 -14 31 -24 25 -15 32 -16 42 -4 7 7 23 22 37
33 23 18 23 18 -2 -11 -16 -16 -28 -34 -28 -38 0 -4 12 2 28 14 15 12 53 39
85 61 31 22 57 44 57 49 0 4 -12 13 -27 19 -19 8 -21 10 -6 7 21 -4 21 -3 5
40 -9 24 -21 44 -27 43 -5 0 -31 -23 -57 -51z m-68 -52 c0 -5 -59 -36 -68 -36
-14 0 23 29 41 33 12 2 23 5 25 6 1 0 2 -1 2 -3z m125 -6 c-3 -5 -12 -10 -18
-10 -7 0 -6 4 3 10 19 12 23 12 15 0z"/>
<path d="M4828 5301 c-109 -137 -177 -240 -241 -366 -44 -87 -54 -117 -50
-142 3 -18 9 -33 14 -33 11 0 108 57 124 74 8 7 28 50 46 95 38 97 50 102 16
7 -14 -36 -21 -66 -17 -66 14 0 40 38 99 150 34 63 85 146 114 184 29 38 60
82 69 97 17 28 17 28 -22 59 -22 17 -47 32 -57 34 -13 2 -41 -26 -95 -93z m62
29 c-17 -22 -34 -40 -37 -40 -6 0 10 22 41 58 32 37 30 25 -4 -18z m70 26 c0
-2 -8 -10 -17 -17 -16 -13 -17 -12 -4 4 13 16 21 21 21 13z m-100 -82 c0 -8
-19 -13 -24 -6 -3 5 1 9 9 9 8 0 15 -2 15 -3z m-40 -17 c0 -2 -11 -17 -25 -33
-14 -16 -25 -33 -25 -38 0 -5 -3 -6 -6 -3 -4 4 5 22 20 42 24 31 36 42 36 32z
m-79 -114 c-12 -20 -14 -14 -5 12 4 9 9 14 11 11 3 -2 0 -13 -6 -23z m-79
-115 c-23 -35 -42 -59 -42 -54 0 13 74 126 79 121 2 -3 -15 -33 -37 -67z"/>
<path d="M2840 5305 c-14 -8 -20 -14 -15 -14 6 0 21 6 35 14 14 8 21 14 15 14
-5 0 -21 -6 -35 -14z"/>
<path d="M4998 5273 c-13 -21 -49 -74 -80 -118 -30 -44 -69 -107 -85 -140 -17
-33 -40 -77 -52 -99 -12 -21 -20 -40 -18 -43 3 -2 26 12 52 32 26 20 45 31 43
23 -3 -7 -37 -34 -76 -60 -64 -43 -73 -54 -92 -106 -21 -56 -43 -162 -36 -170
10 -9 46 20 50 41 21 97 50 204 57 211 14 15 11 -10 -5 -49 -8 -19 -17 -56
-21 -82 -3 -26 -8 -59 -11 -72 l-5 -24 33 21 c25 16 37 35 50 74 17 55 25 47
9 -10 -9 -31 -9 -32 12 -21 70 37 79 50 122 189 16 53 40 97 132 245 24 38 41
75 38 83 -2 7 -1 10 4 7 19 -11 23 17 5 36 -9 10 -20 19 -23 19 -3 0 -26 -32
-50 -70 -24 -39 -45 -70 -48 -70 -5 0 11 29 51 90 31 47 34 56 22 69 -13 12
-18 10 -40 -15 -14 -16 -26 -34 -26 -39 0 -6 -16 -35 -36 -64 -20 -30 -52 -86
-70 -125 -18 -39 -33 -65 -34 -58 0 17 61 136 99 192 17 25 31 49 31 54 0 4
11 22 25 38 23 27 26 48 6 48 -4 0 -19 -17 -33 -37z m48 -160 c-8 -15 -15 -25
-16 -21 0 12 23 58 27 54 3 -2 -2 -17 -11 -33z m-57 -25 c-17 -33 -102 -148
-106 -144 -4 3 109 166 115 166 1 0 -3 -10 -9 -22z m20 -48 c-13 -22 -26 -40
-30 -40 -4 0 4 18 18 40 15 22 28 40 30 40 3 0 -6 -18 -18 -40z m-198 -113
c-10 -9 -11 -8 -5 6 3 10 9 15 12 12 3 -3 0 -11 -7 -18z m62 -22 c-3 -9 -8
-14 -10 -11 -3 3 -2 9 2 15 9 16 15 13 8 -4z m-29 -64 c-4 -17 -9 -30 -11 -27
-3 2 -2 19 2 36 9 41 17 33 9 -9z m-17 -63 c-3 -8 -6 -5 -6 6 -1 11 2 17 5 13
3 -3 4 -12 1 -19z"/>
<path d="M2730 5249 c11 -7 6 -8 -19 -4 -21 5 -31 3 -27 -3 3 -5 -4 -10 -17
-10 -12 0 -49 -9 -82 -20 -33 -12 -127 -44 -210 -71 -82 -28 -224 -80 -315
-115 -91 -36 -173 -67 -184 -70 -18 -6 -18 -7 -1 -26 10 -11 27 -20 37 -20 27
0 150 55 213 95 29 19 65 37 81 40 29 7 23 3 -111 -74 -48 -28 -82 -51 -74
-51 3 0 66 28 140 63 216 102 253 119 481 208 70 28 130 54 132 57 2 4 -10 8
-27 9 -25 2 -29 0 -17 -8z m-61 -33 c-2 -2 -17 -6 -34 -9 l-30 -6 30 13 c26
12 47 13 34 2z"/>
<path d="M4441 5024 c-1 -6 -33 -60 -73 -120 -39 -60 -94 -156 -121 -214 -28
-58 -60 -117 -71 -131 -12 -15 -27 -35 -34 -45 -7 -11 -10 -13 -7 -6 3 6 1 12
-5 12 -7 0 -9 -7 -6 -16 3 -9 -5 -58 -19 -110 -30 -111 -29 -101 -10 -101 9 0
18 10 20 21 3 12 9 39 15 61 9 39 9 38 5 -12 l-6 -52 38 17 c89 40 144 76 148
96 2 12 8 39 14 61 9 38 9 37 4 -13 -8 -76 19 -61 36 20 18 88 49 164 83 206
17 20 8 14 -19 -14 -27 -28 -57 -66 -66 -85 -11 -22 -17 -27 -17 -16 0 10 27
56 60 101 33 46 60 87 60 93 0 6 7 24 16 39 16 29 16 29 10 -23 -4 -43 -2 -51
10 -46 17 6 17 10 0 103 -13 66 -64 202 -65 174z m-109 -387 c-112 -67 -155
-109 -174 -167 -15 -46 -17 -48 -13 -16 10 60 21 82 57 109 47 36 161 106 173
106 6 0 -14 -14 -43 -32z m15 -99 c-3 -8 -6 -5 -6 6 -1 11 2 17 5 13 3 -3 4
-12 1 -19z"/>
<path d="M4710 4849 c0 -5 5 -7 10 -4 6 3 10 8 10 11 0 2 -4 4 -10 4 -5 0 -10
-5 -10 -11z"/>
<path d="M4653 4796 c-24 -13 -49 -29 -57 -36 -8 -6 -27 -13 -41 -15 -32 -3
-99 -66 -125 -116 -22 -43 -52 -155 -48 -178 3 -13 8 -11 30 10 15 15 29 25
31 23 2 -3 10 17 16 43 26 103 83 225 98 209 3 -3 -4 -17 -15 -31 -26 -32 -57
-114 -67 -174 l-7 -44 40 23 c44 25 54 43 76 135 7 33 21 76 30 95 11 24 15
27 11 10 -3 -14 -14 -63 -25 -110 -10 -46 -17 -86 -15 -89 3 -2 13 4 24 13 11
10 27 53 40 109 12 51 28 104 36 120 7 15 13 27 12 27 -1 -1 -21 -11 -44 -24z"/>
<path d="M4675 4577 c-16 -9 -22 -24 -24 -57 -4 -61 -11 -64 -11 -5 0 76 -14
43 -26 -63 -12 -106 -4 -198 23 -241 8 -14 40 -46 71 -70 52 -42 56 -43 68
-26 19 25 17 49 -5 93 -31 62 -51 141 -64 264 -12 113 -13 116 -32 105z m-38
-159 c-3 -7 -5 -2 -5 12 0 14 2 19 5 13 2 -7 2 -19 0 -25z m-10 -70 c-2 -13
-4 -5 -4 17 -1 22 1 32 4 23 2 -10 2 -28 0 -40z"/>
<path d="M4578 4526 c-10 -7 -22 -31 -28 -52 l-10 -39 4 37 5 37 -60 -30 c-57
-29 -59 -32 -61 -72 l-1 -42 -4 37 c-6 53 -33 40 -33 -16 0 -22 -4 -47 -8 -53
-4 -7 -7 10 -6 37 2 47 1 49 -17 40 -10 -6 -19 -18 -19 -28 0 -15 -2 -15 -10
-2 -8 13 -11 13 -19 1 -9 -14 -6 -155 5 -201 9 -40 118 -250 130 -250 6 0 21
20 34 45 13 25 25 45 28 45 8 0 -9 -74 -25 -103 -13 -26 -13 -31 0 -44 13 -13
21 -11 68 19 51 33 125 107 170 169 l19 27 -57 44 c-32 24 -65 57 -72 73 -17
34 -22 235 -7 298 9 39 2 45 -26 23z m-211 -163 c-3 -10 -5 -4 -5 12 0 17 2
24 5 18 2 -7 2 -21 0 -30z"/>
<path d="M4511 3794 c0 -11 3 -14 6 -6 3 7 2 16 -1 19 -3 4 -6 -2 -5 -13z"/>
<path d="M4432 3778 c-16 -16 -15 -31 2 -25 8 3 16 1 19 -6 2 -7 5 -8 10 0 3
5 1 18 -6 27 -10 13 -15 14 -25 4z"/>
<path d="M4334 3668 c-11 -13 -26 -32 -34 -43 -13 -18 -13 -19 0 -8 8 6 20 11
25 11 6 -1 15 8 20 19 6 11 16 18 23 17 7 -1 8 0 2 3 -5 2 -8 9 -4 14 11 18
-13 8 -32 -13z"/>
<path d="M4490 3620 c-8 -11 -20 -20 -28 -20 -7 0 -10 -4 -7 -10 3 -5 -1 -10
-10 -10 -10 0 -13 -5 -9 -12 5 -7 0 -9 -14 -6 -13 4 -19 2 -16 -6 2 -6 -38
-52 -91 -100 -92 -87 -115 -118 -58 -78 15 11 57 39 92 62 36 24 74 51 85 61
11 11 26 19 33 19 8 0 11 5 8 10 -3 6 0 10 9 10 8 0 17 6 19 13 3 7 6 5 6 -5
1 -10 -3 -18 -9 -18 -5 0 -10 -7 -10 -15 0 -19 5 -19 35 1 28 18 33 34 10 34
-12 0 -13 4 -4 18 7 12 7 25 0 45 -12 32 -22 34 -41 7z"/>
<path d="M4609 3554 c-9 -11 -9 -21 0 -40 l11 -25 40 31 c22 17 40 35 40 40 0
14 -78 9 -91 -6z"/>
<path d="M4159 3303 c-1 -5 -1 -11 -1 -14 1 -4 -10 -10 -23 -13 -54 -14 -79
-58 -55 -96 7 -12 21 -2 67 49 70 77 72 81 39 81 -14 0 -27 -3 -27 -7z"/>
<path d="M574 5577 c-11 -12 -29 -27 -39 -34 -11 -6 -14 -12 -8 -12 15 -1 80
55 73 62 -3 3 -14 -4 -26 -16z"/>
</g>
</svg>
